<svg width="180" height="60" viewBox="0 0 180 60" fill="none" xmlns="http://www.w3.org/2000/svg">
<rect width="179.457" height="59.8189" rx="8.97284" fill="white"/>
<rect x="0.747737" y="0.747737" width="177.961" height="58.3235" rx="8.2251" stroke="black" stroke-opacity="0.2" stroke-width="1.49547"/>
<path d="M36.946 31.0504C36.9641 29.6747 37.3384 28.3259 38.034 27.1293C38.7296 25.9328 39.7239 24.9275 40.9244 24.207C40.1617 23.1436 39.1557 22.2685 37.986 21.6512C36.8164 21.0338 35.5154 20.6912 34.1864 20.6507C31.3515 20.3601 28.6031 22.3068 27.1585 22.3068C25.6859 22.3068 23.4617 20.6795 21.0665 20.7276C19.5173 20.7765 18.0074 21.2163 16.6841 22.0042C15.3607 22.7922 14.269 23.9014 13.5153 25.2237C10.2503 30.7426 12.6857 38.8535 15.8133 43.3146C17.3781 45.499 19.2069 47.9391 21.5999 47.8526C23.9415 47.7578 24.8161 46.3948 27.6427 46.3948C30.443 46.3948 31.2636 47.8526 33.7051 47.7976C36.2178 47.7578 37.8009 45.6034 39.3109 43.3983C40.4352 41.8418 41.3004 40.1215 41.8743 38.3012C40.4145 37.6984 39.1687 36.6894 38.2923 35.4C37.4159 34.1106 36.9477 32.5979 36.946 31.0504Z" fill="#133055"/>
<path d="M32.3334 17.7142C33.7035 16.1085 34.3784 14.0447 34.215 11.9609C32.1219 12.1756 30.1884 13.1522 28.7999 14.6963C28.121 15.4506 27.601 16.3282 27.2697 17.2788C26.9384 18.2295 26.8023 19.2346 26.8691 20.2366C27.916 20.2471 28.9517 20.0256 29.8982 19.5887C30.8448 19.1517 31.6774 18.5108 32.3334 17.7142Z" fill="#133055"/>
<path d="M59.146 26.1504L55.9014 26.1504L55.9014 16.5757L59.2114 16.5757C60.162 16.5757 60.9786 16.7673 61.6612 17.1507C62.3469 17.5309 62.8736 18.0779 63.2414 18.7917C63.6092 19.5054 63.7931 20.3594 63.7931 21.3537C63.7931 22.351 63.6076 23.2082 63.2368 23.925C62.869 24.6419 62.3376 25.192 61.6425 25.5753C60.9506 25.9587 60.1184 26.1504 59.146 26.1504ZM57.6359 24.6497L59.0618 24.6497C59.7288 24.6497 60.2852 24.5281 60.7309 24.285C61.1766 24.0388 61.5116 23.6726 61.736 23.1863C61.9604 22.697 62.0726 22.0861 62.0726 21.3537C62.0726 20.6212 61.9604 20.0135 61.736 19.5304C61.5116 19.0441 61.1797 18.681 60.7402 18.441C60.3039 18.1979 59.7615 18.0764 59.1133 18.0764L57.6359 18.0764L57.6359 24.6497ZM68.5447 26.2906C67.8435 26.2906 67.2357 26.1364 66.7214 25.8278C66.2071 25.5192 65.8082 25.0876 65.5246 24.5328C65.2441 23.978 65.1038 23.3297 65.1038 22.5879C65.1038 21.8461 65.2441 21.1963 65.5246 20.6384C65.8082 20.0805 66.2071 19.6472 66.7214 19.3387C67.2357 19.0301 67.8435 18.8758 68.5447 18.8758C69.246 18.8758 69.8538 19.0301 70.368 19.3387C70.8823 19.6472 71.2797 20.0805 71.5602 20.6384C71.8438 21.1963 71.9856 21.8461 71.9856 22.5879C71.9856 23.3297 71.8438 23.978 71.5602 24.5328C71.2797 25.0876 70.8823 25.5192 70.368 25.8278C69.8538 26.1364 69.246 26.2906 68.5447 26.2906ZM68.5541 24.9348C68.9343 24.9348 69.2522 24.8304 69.5078 24.6216C69.7634 24.4097 69.9535 24.126 70.0782 23.7707C70.206 23.4154 70.2699 23.0196 70.2699 22.5832C70.2699 22.1438 70.206 21.7464 70.0782 21.3911C69.9535 21.0326 69.7634 20.7475 69.5078 20.5355C69.2522 20.3236 68.9343 20.2176 68.5541 20.2176C68.1645 20.2176 67.8403 20.3236 67.5816 20.5355C67.3261 20.7475 67.1344 21.0326 67.0066 21.3911C66.8819 21.7464 66.8196 22.1438 66.8196 22.5832C66.8196 23.0196 66.8819 23.4154 67.0066 23.7707C67.1344 24.126 67.3261 24.4097 67.5816 24.6216C67.8403 24.8304 68.1645 24.9348 68.5541 24.9348ZM74.7445 26.1504L72.7155 18.9693L74.4406 18.9693L75.7029 24.0185L75.7684 24.0185L77.0587 18.9693L78.7651 18.9693L80.0555 23.9905L80.1256 23.9905L81.3692 18.9693L83.099 18.9693L81.0653 26.1504L79.3028 26.1504L77.9563 21.2976L77.8582 21.2976L76.5117 26.1504L74.7445 26.1504ZM86.0191 21.9427L86.0191 26.1504L84.3267 26.1504L84.3267 18.9693L85.9443 18.9693L85.9443 20.1896L86.0285 20.1896C86.1937 19.7875 86.4571 19.468 86.8186 19.2311C87.1833 18.9943 87.6336 18.8758 88.1697 18.8758C88.6653 18.8758 89.097 18.9818 89.4647 19.1937C89.8356 19.4057 90.1224 19.7127 90.325 20.1148C90.5307 20.5168 90.632 21.0046 90.6289 21.5781L90.6289 26.1504L88.9365 26.1504L88.9365 21.8399C88.9365 21.3599 88.8118 20.9843 88.5624 20.7132C88.3162 20.442 87.9749 20.3064 87.5386 20.3064C87.2425 20.3064 86.9791 20.3719 86.7485 20.5028C86.5209 20.6306 86.3417 20.816 86.2108 21.0591C86.083 21.3022 86.0191 21.5968 86.0191 21.9427ZM94.0878 16.5757L94.0878 26.1504L92.3954 26.1504L92.3954 16.5757L94.0878 16.5757ZM99.0066 26.2906C98.3053 26.2906 97.6975 26.1364 97.1833 25.8278C96.669 25.5192 96.27 25.0876 95.9864 24.5328C95.7059 23.978 95.5657 23.3297 95.5657 22.5879C95.5657 21.8461 95.7059 21.1963 95.9864 20.6384C96.27 20.0805 96.669 19.6472 97.1833 19.3387C97.6975 19.0301 98.3053 18.8758 99.0066 18.8758C99.7079 18.8758 100.316 19.0301 100.83 19.3387C101.344 19.6472 101.742 20.0805 102.022 20.6384C102.306 21.1963 102.447 21.8461 102.447 22.5879C102.447 23.3297 102.306 23.978 102.022 24.5328C101.742 25.0876 101.344 25.5192 100.83 25.8278C100.316 26.1364 99.7079 26.2906 99.0066 26.2906ZM99.0159 24.9348C99.3962 24.9348 99.7141 24.8304 99.9697 24.6216C100.225 24.4097 100.415 24.126 100.54 23.7707C100.668 23.4154 100.732 23.0196 100.732 22.5832C100.732 22.1438 100.668 21.7464 100.54 21.3911C100.415 21.0326 100.225 20.7475 99.9697 20.5355C99.7141 20.3236 99.3962 20.2176 99.0159 20.2176C98.6263 20.2176 98.3022 20.3236 98.0435 20.5355C97.7879 20.7475 97.5962 21.0326 97.4684 21.3911C97.3438 21.7464 97.2814 22.1438 97.2814 22.5832C97.2814 23.0196 97.3438 23.4154 97.4684 23.7707C97.5962 24.126 97.7879 24.4097 98.0435 24.6216C98.3022 24.8304 98.6263 24.9348 99.0159 24.9348ZM105.996 26.2953C105.541 26.2953 105.132 26.2143 104.767 26.0522C104.405 25.887 104.119 25.6439 103.907 25.3229C103.698 25.0019 103.593 24.606 103.593 24.1354C103.593 23.7302 103.668 23.3952 103.818 23.1302C103.967 22.8653 104.172 22.6534 104.43 22.4944C104.689 22.3355 104.98 22.2155 105.305 22.1344C105.632 22.0503 105.97 21.9895 106.319 21.9521C106.74 21.9085 107.081 21.8695 107.343 21.8352C107.605 21.7978 107.795 21.7417 107.913 21.6669C108.035 21.589 108.096 21.469 108.096 21.3069L108.096 21.2789C108.096 20.9267 107.991 20.654 107.782 20.4607C107.574 20.2675 107.273 20.1709 106.88 20.1709C106.466 20.1709 106.137 20.2612 105.894 20.442C105.654 20.6228 105.492 20.8363 105.407 21.0825L103.827 20.8581C103.952 20.4218 104.158 20.0571 104.444 19.7641C104.731 19.468 105.082 19.2467 105.496 19.1002C105.911 18.9506 106.369 18.8758 106.871 18.8758C107.217 18.8758 107.561 18.9164 107.904 18.9974C108.247 19.0784 108.56 19.2124 108.844 19.3995C109.127 19.5833 109.355 19.8342 109.526 20.1522C109.701 20.4701 109.788 20.8675 109.788 21.3443L109.788 26.1504L108.161 26.1504L108.161 25.1639L108.105 25.1639C108.002 25.3634 107.857 25.5504 107.67 25.7249C107.486 25.8964 107.254 26.0351 106.974 26.141C106.696 26.2439 106.37 26.2953 105.996 26.2953ZM106.436 25.0517C106.776 25.0517 107.07 24.9847 107.32 24.8507C107.569 24.7136 107.761 24.5328 107.895 24.3084C108.032 24.084 108.1 23.8393 108.1 23.5744L108.1 22.7282C108.047 22.7718 107.957 22.8123 107.829 22.8497C107.704 22.8871 107.564 22.9199 107.408 22.9479C107.253 22.976 107.098 23.0009 106.946 23.0227C106.793 23.0445 106.66 23.0632 106.548 23.0788C106.296 23.1131 106.07 23.1692 105.87 23.2471C105.671 23.325 105.513 23.4341 105.398 23.5744C105.283 23.7115 105.225 23.8892 105.225 24.1073C105.225 24.419 105.339 24.6543 105.566 24.8133C105.794 24.9722 106.084 25.0517 106.436 25.0517ZM114.201 26.2766C113.637 26.2766 113.132 26.1317 112.686 25.8418C112.24 25.552 111.888 25.1312 111.629 24.5795C111.371 24.0279 111.241 23.3578 111.241 22.5692C111.241 21.7713 111.372 21.0981 111.634 20.5495C111.899 19.9979 112.256 19.5818 112.705 19.3013C113.153 19.0176 113.654 18.8758 114.205 18.8758C114.626 18.8758 114.972 18.9475 115.243 19.0909C115.514 19.2311 115.729 19.401 115.888 19.6005C116.047 19.7968 116.17 19.9823 116.258 20.1568L116.328 20.1568L116.328 16.5757L118.025 16.5757L118.025 26.1504L116.361 26.1504L116.361 25.019L116.258 25.019C116.17 25.1935 116.044 25.379 115.879 25.5753C115.714 25.7686 115.496 25.9338 115.225 26.0709C114.953 26.2081 114.612 26.2766 114.201 26.2766ZM114.673 24.8881C115.031 24.8881 115.337 24.7915 115.589 24.5982C115.842 24.4019 116.033 24.1292 116.164 23.7801C116.295 23.431 116.361 23.0243 116.361 22.5599C116.361 22.0955 116.295 21.6918 116.164 21.349C116.036 21.0061 115.846 20.7397 115.594 20.5495C115.345 20.3594 115.038 20.2644 114.673 20.2644C114.296 20.2644 113.981 20.3625 113.728 20.5589C113.476 20.7552 113.286 21.0264 113.158 21.3724C113.03 21.7183 112.966 22.1142 112.966 22.5599C112.966 23.0087 113.03 23.4092 113.158 23.7614C113.289 24.1105 113.481 24.3863 113.733 24.5889C113.989 24.7884 114.302 24.8881 114.673 24.8881ZM126.319 26.2906C125.617 26.2906 125.009 26.1364 124.495 25.8278C123.981 25.5192 123.582 25.0876 123.298 24.5328C123.018 23.978 122.878 23.3297 122.878 22.5879C122.878 21.8461 123.018 21.1963 123.298 20.6384C123.582 20.0805 123.981 19.6472 124.495 19.3387C125.009 19.0301 125.617 18.8758 126.319 18.8758C127.02 18.8758 127.628 19.0301 128.142 19.3387C128.656 19.6472 129.054 20.0805 129.334 20.6384C129.618 21.1963 129.759 21.8461 129.759 22.5879C129.759 23.3297 129.618 23.978 129.334 24.5328C129.054 25.0876 128.656 25.5192 128.142 25.8278C127.628 26.1364 127.02 26.2906 126.319 26.2906ZM126.328 24.9348C126.708 24.9348 127.026 24.8304 127.282 24.6216C127.537 24.4097 127.727 24.126 127.852 23.7707C127.98 23.4154 128.044 23.0196 128.044 22.5832C128.044 22.1438 127.98 21.7464 127.852 21.3911C127.727 21.0326 127.537 20.7475 127.282 20.5355C127.026 20.3236 126.708 20.2176 126.328 20.2176C125.938 20.2176 125.614 20.3236 125.355 20.5355C125.1 20.7475 124.908 21.0326 124.78 21.3911C124.656 21.7464 124.593 22.1438 124.593 22.5832C124.593 23.0196 124.656 23.4154 124.78 23.7707C124.908 24.126 125.1 24.4097 125.355 24.6216C125.614 24.8304 125.938 24.9348 126.328 24.9348ZM132.934 21.9427L132.934 26.1504L131.242 26.1504L131.242 18.9693L132.86 18.9693L132.86 20.1896L132.944 20.1896C133.109 19.7875 133.372 19.468 133.734 19.2311C134.099 18.9943 134.549 18.8758 135.085 18.8758C135.581 18.8758 136.012 18.9818 136.38 19.1937C136.751 19.4057 137.038 19.7127 137.24 20.1148C137.446 20.5168 137.547 21.0046 137.544 21.5781L137.544 26.1504L135.852 26.1504L135.852 21.8399C135.852 21.3599 135.727 20.9843 135.478 20.7132C135.231 20.442 134.89 20.3064 134.454 20.3064C134.158 20.3064 133.894 20.3719 133.664 20.5028C133.436 20.6306 133.257 20.816 133.126 21.0591C132.998 21.3022 132.934 21.5968 132.934 21.9427ZM146.208 18.9693L146.208 20.2784L142.08 20.2784L142.08 18.9693L146.208 18.9693ZM143.099 17.2489L144.792 17.2489L144.792 23.9905C144.792 24.218 144.826 24.3925 144.894 24.5141C144.966 24.6325 145.06 24.7136 145.175 24.7572C145.29 24.8008 145.418 24.8226 145.558 24.8226C145.664 24.8226 145.761 24.8149 145.848 24.7993C145.939 24.7837 146.007 24.7697 146.054 24.7572L146.339 26.0803C146.249 26.1114 146.119 26.1457 145.951 26.1831C145.786 26.2205 145.583 26.2423 145.343 26.2486C144.919 26.261 144.538 26.1971 144.198 26.0569C143.858 25.9135 143.589 25.6922 143.389 25.393C143.193 25.0938 143.096 24.7198 143.099 24.271L143.099 17.2489ZM149.516 21.9427L149.516 26.1504L147.824 26.1504L147.824 16.5757L149.479 16.5757L149.479 20.1896L149.563 20.1896C149.731 19.7844 149.992 19.4649 150.344 19.2311C150.699 18.9943 151.151 18.8758 151.7 18.8758C152.198 18.8758 152.633 18.9802 153.004 19.1891C153.375 19.3979 153.662 19.7033 153.864 20.1054C154.07 20.5075 154.173 20.9984 154.173 21.5781L154.173 26.1504L152.48 26.1504L152.48 21.8399C152.48 21.3568 152.356 20.9812 152.106 20.7132C151.86 20.442 151.514 20.3064 151.069 20.3064C150.769 20.3064 150.501 20.3719 150.264 20.5028C150.031 20.6306 149.847 20.816 149.713 21.0591C149.582 21.3022 149.516 21.5968 149.516 21.9427ZM159.123 26.2906C158.403 26.2906 157.781 26.141 157.258 25.8418C156.737 25.5395 156.337 25.1125 156.056 24.5608C155.776 24.006 155.635 23.3531 155.635 22.6019C155.635 21.8633 155.776 21.215 156.056 20.6571C156.34 20.0961 156.736 19.6597 157.244 19.348C157.752 19.0332 158.349 18.8758 159.034 18.8758C159.477 18.8758 159.895 18.9475 160.287 19.0909C160.683 19.2311 161.032 19.4493 161.334 19.7454C161.64 20.0415 161.88 20.4186 162.054 20.8768C162.229 21.3319 162.316 21.8742 162.316 22.5038L162.316 23.0227L156.43 23.0227L156.43 21.882L160.694 21.882C160.691 21.5578 160.621 21.2695 160.484 21.0171C160.346 20.7615 160.155 20.5605 159.909 20.414C159.665 20.2675 159.382 20.1942 159.058 20.1942C158.712 20.1942 158.408 20.2784 158.146 20.4467C157.884 20.6119 157.68 20.8301 157.534 21.1012C157.39 21.3693 157.317 21.6638 157.314 21.9848L157.314 22.9806C157.314 23.3983 157.39 23.7567 157.543 24.0559C157.696 24.352 157.909 24.5795 158.183 24.7385C158.458 24.8943 158.779 24.9722 159.147 24.9722C159.393 24.9722 159.616 24.938 159.815 24.8694C160.015 24.7977 160.188 24.6933 160.334 24.5562C160.48 24.419 160.591 24.2492 160.666 24.0466L162.246 24.2242C162.146 24.6419 161.956 25.0065 161.676 25.3182C161.398 25.6268 161.043 25.8668 160.61 26.0382C160.177 26.2065 159.681 26.2906 159.123 26.2906Z" fill="#133055"/>
<path d="M66.2588 44.1807L59.9371 44.1807L58.8911 47.2051L55.5483 47.2051L61.256 31.3098L64.9626 31.3098L70.6704 47.2051L67.3049 47.2051L66.2588 44.1807ZM65.3947 41.6338L63.098 34.9937L60.8012 41.6338L65.3947 41.6338ZM75.9874 36.4263C76.3968 35.8502 76.9577 35.3727 77.6702 34.9937C78.3979 34.5995 79.2241 34.4025 80.1489 34.4025C81.2252 34.4025 82.1955 34.6678 83.0596 35.1984C83.9389 35.729 84.6286 36.487 85.1289 37.4724C85.6444 38.4426 85.9021 39.572 85.9021 40.8606C85.9021 42.1492 85.6444 43.2938 85.1289 44.2944C84.6287 45.2798 83.9389 46.0453 83.0596 46.5911C82.1955 47.1369 81.2252 47.4097 80.1489 47.4097C79.2241 47.4097 78.4055 47.2202 77.693 46.8412C76.9956 46.4622 76.4271 45.9847 75.9875 45.4086L75.9875 53.2084L72.8039 53.2084L72.8038 34.6071L75.9874 34.6071L75.9874 36.4263ZM82.6503 40.8606C82.6503 40.1026 82.4911 39.4507 82.1727 38.905C81.8695 38.3441 81.4602 37.9196 80.9448 37.6315C80.4445 37.3435 79.8987 37.1995 79.3075 37.1995C78.7314 37.1995 78.1856 37.3511 77.6702 37.6543C77.1699 37.9423 76.7606 38.3668 76.4422 38.9277C76.139 39.4886 75.9874 40.1481 75.9874 40.9061C75.9874 41.6641 76.1391 42.3236 76.4423 42.8845C76.7606 43.4454 77.1699 43.8775 77.6702 44.1807C78.1857 44.4687 78.7314 44.6127 79.3075 44.6127C79.8987 44.6127 80.4445 44.4611 80.9448 44.1579C81.4602 43.8547 81.8695 43.4227 82.1727 42.8617C82.4911 42.3008 82.6503 41.6338 82.6503 40.8606ZM91.3991 36.4263C91.8085 35.8502 92.3694 35.3727 93.0819 34.9937C93.8096 34.5995 94.6358 34.4025 95.5606 34.4025C96.6369 34.4025 97.6072 34.6678 98.4713 35.1984C99.3506 35.729 100.04 36.487 100.541 37.4724C101.056 38.4426 101.314 39.572 101.314 40.8606C101.314 42.1492 101.056 43.2938 100.541 44.2944C100.04 45.2798 99.3506 46.0453 98.4713 46.5911C97.6072 47.1369 96.6369 47.4097 95.5606 47.4097C94.6358 47.4097 93.8172 47.2202 93.1046 46.8412C92.4073 46.4622 91.8388 45.9847 91.3991 45.4086L91.3991 53.2084L88.2155 53.2084L88.2155 34.6071L91.3991 34.6071L91.3991 36.4263ZM98.062 40.8606C98.062 40.1026 97.9028 39.4507 97.5844 38.905C97.2812 38.3441 96.8719 37.9196 96.3565 37.6315C95.8562 37.3435 95.3104 37.1995 94.7192 37.1995C94.1431 37.1995 93.5973 37.3511 93.0819 37.6543C92.5816 37.9423 92.1723 38.3668 91.8539 38.9277C91.5507 39.4886 91.3991 40.1481 91.3991 40.9061C91.3991 41.6641 91.5507 42.3236 91.8539 42.8845C92.1723 43.4454 92.5816 43.8775 93.0819 44.1807C93.5973 44.4687 94.1431 44.6127 94.7192 44.6127C95.3104 44.6127 95.8562 44.4611 96.3565 44.1579C96.8719 43.8547 97.2812 43.4227 97.5844 42.8617C97.9028 42.3008 98.062 41.6338 98.062 40.8606ZM114.526 47.3643C113.419 47.3643 112.419 47.1748 111.524 46.7958C110.645 46.4168 109.948 45.871 109.432 45.1585C108.917 44.446 108.652 43.6046 108.636 42.6343L112.047 42.6343C112.093 43.2862 112.32 43.8017 112.73 44.1807C113.154 44.5597 113.73 44.7492 114.458 44.7492C115.201 44.7492 115.784 44.5748 116.209 44.2261C116.633 43.8623 116.846 43.3923 116.846 42.8163C116.846 42.3463 116.702 41.9597 116.413 41.6565C116.125 41.3533 115.762 41.1183 115.322 40.9516C114.897 40.7697 114.306 40.5726 113.548 40.3603C112.517 40.0571 111.676 39.7615 111.024 39.4735C110.387 39.1703 109.834 38.7231 109.364 38.1318C108.909 37.5254 108.682 36.7219 108.682 35.7214C108.682 34.7815 108.917 33.9628 109.387 33.2655C109.857 32.5681 110.516 32.0375 111.365 31.6737C112.214 31.2947 113.184 31.1052 114.276 31.1052C115.913 31.1052 117.24 31.5069 118.255 32.3104C119.286 33.0987 119.855 34.2054 119.961 35.6304L116.459 35.6304C116.429 35.0847 116.194 34.6374 115.754 34.2888C115.33 33.9249 114.761 33.743 114.049 33.743C113.427 33.743 112.927 33.9022 112.548 34.2205C112.184 34.5389 112.002 35.0013 112.002 35.6077C112.002 36.0322 112.138 36.3884 112.411 36.6765C112.699 36.9493 113.048 37.1767 113.457 37.3587C113.882 37.5254 114.473 37.7225 115.231 37.9499C116.262 38.2531 117.103 38.5563 117.755 38.8595C118.407 39.1627 118.968 39.6175 119.438 40.2239C119.908 40.8303 120.143 41.6262 120.143 42.6116C120.143 43.4606 119.923 44.2489 119.483 44.9766C119.044 45.7042 118.399 46.2879 117.55 46.7275C116.702 47.152 115.693 47.3643 114.526 47.3643ZM126.61 37.2222L126.61 43.3165C126.61 43.741 126.708 44.0518 126.905 44.2489C127.117 44.4308 127.466 44.5218 127.951 44.5218L129.429 44.5218L129.429 47.2051L127.428 47.2051C124.745 47.2051 123.403 45.9013 123.403 43.2938L123.403 37.2222L121.902 37.2222L121.902 34.6071L123.403 34.6071L123.403 31.4917L126.61 31.4917L126.61 34.6071L129.429 34.6071L129.429 37.2222L126.61 37.2222ZM137.313 47.4097C136.1 47.4097 135.009 47.1444 134.039 46.6138C133.068 46.0681 132.303 45.3025 131.742 44.3171C131.196 43.3317 130.923 42.1947 130.923 40.9061C130.923 39.6175 131.204 38.4805 131.765 37.4951C132.341 36.5097 133.121 35.7517 134.107 35.2211C135.092 34.6753 136.191 34.4025 137.404 34.4025C138.617 34.4025 139.716 34.6753 140.701 35.2211C141.687 35.7517 142.46 36.5097 143.021 37.4951C143.597 38.4805 143.885 39.6175 143.885 40.9061C143.885 42.1947 143.589 43.3317 142.998 44.3171C142.422 45.3025 141.634 46.0681 140.633 46.6138C139.648 47.1444 138.541 47.4097 137.313 47.4097ZM137.313 44.6355C137.889 44.6355 138.427 44.499 138.928 44.2261C139.443 43.9381 139.852 43.5136 140.156 42.9527C140.459 42.3918 140.61 41.7096 140.61 40.9061C140.61 39.7085 140.292 38.7913 139.655 38.1546C139.034 37.5027 138.268 37.1767 137.359 37.1767C136.449 37.1767 135.683 37.5027 135.062 38.1546C134.455 38.7913 134.152 39.7085 134.152 40.9061C134.152 42.1037 134.448 43.0285 135.039 43.6804C135.646 44.3171 136.404 44.6355 137.313 44.6355ZM149.404 36.5628C149.813 35.8957 150.344 35.3727 150.996 34.9937C151.663 34.6147 152.421 34.4252 153.27 34.4252L153.27 37.768L152.428 37.768C151.428 37.768 150.67 38.003 150.154 38.4729C149.654 38.9429 149.404 39.7615 149.404 40.9288L149.404 47.2051L146.22 47.2051L146.22 34.6071L149.404 34.6071L149.404 36.5628ZM167.125 40.6332C167.125 41.088 167.095 41.4973 167.034 41.8612L157.824 41.8612C157.9 42.7708 158.219 43.4833 158.78 43.9987C159.34 44.5142 160.03 44.7719 160.849 44.7719C162.031 44.7719 162.873 44.264 163.373 43.2483L166.807 43.2483C166.443 44.4611 165.746 45.4617 164.715 46.25C163.684 47.0232 162.418 47.4097 160.917 47.4097C159.704 47.4097 158.613 47.1444 157.643 46.6138C156.687 46.0681 155.937 45.3025 155.391 44.3171C154.861 43.3317 154.595 42.1947 154.595 40.9061C154.595 39.6023 154.861 38.4578 155.391 37.4724C155.922 36.487 156.665 35.729 157.62 35.1984C158.575 34.6678 159.674 34.4025 160.917 34.4025C162.115 34.4025 163.184 34.6602 164.123 35.1756C165.079 35.6911 165.814 36.4263 166.329 37.3814C166.86 38.3213 167.125 39.4053 167.125 40.6332ZM163.828 39.7236C163.813 38.905 163.517 38.2531 162.941 37.768C162.365 37.2677 161.66 37.0176 160.826 37.0176C160.038 37.0176 159.371 37.2601 158.825 37.7452C158.294 38.2152 157.968 38.8747 157.847 39.7236L163.828 39.7236Z" fill="#133055"/>
</svg>
