<svg width="221" height="155" viewBox="0 0 221 155" fill="none" xmlns="http://www.w3.org/2000/svg">
<path d="M124.44 6.35463C124.855 4.61828 125.82 3.06266 127.192 1.91966C128.563 0.776654 130.267 0.107479 132.05 0.0118842C133.833 -0.0837102 135.599 0.399395 137.085 1.38919C138.571 2.37898 139.697 3.82245 140.295 5.50442L162.942 69.0161C171.002 69.0161 176.126 67.5144 181.547 63.4511C183.138 61.4737 185.058 59.7854 187.222 58.4603L187.708 57.9744V58.1732C191.066 56.2369 194.873 55.2182 198.749 55.2195C202.624 55.2208 206.431 56.2421 209.787 58.1806C213.143 60.1192 215.93 62.9068 217.867 66.2633C219.805 69.6199 220.825 73.4273 220.825 77.3029C220.825 81.1785 219.805 84.9858 217.867 88.3424C215.93 91.699 213.143 94.4866 209.787 96.4251C206.431 98.3637 202.624 99.3849 198.749 99.3862C194.873 99.3875 191.066 98.3688 187.708 96.4325V96.6203L187.222 96.1344C185.178 94.885 183.351 93.3113 181.812 91.4748C176.788 87.8311 172.073 86.5834 165.084 86.3957H157.388C155.679 86.394 154.012 85.8635 152.616 84.877C151.221 83.8906 150.164 82.4964 149.592 80.8859L134.046 37.2713L107.325 148.24C106.906 149.978 105.936 151.534 104.559 152.675C103.183 153.816 101.474 154.481 99.6888 154.57C97.9032 154.66 96.1367 154.169 94.6531 153.171C93.1696 152.173 92.0488 150.722 91.4581 149.035L60.2765 59.708L51.8848 81.1288C50.6371 84.2978 47.5785 88.339 44.1667 88.339H0V71.7765H38.5244L53.0221 32.8657C53.6407 31.2924 54.7259 29.9461 56.132 29.0077C57.5382 28.0692 59.1978 27.5836 60.888 27.6161C62.5783 27.6486 64.218 28.1975 65.5871 29.1892C66.9562 30.181 67.989 31.5679 68.5467 33.1638L97.8181 116.992L124.44 6.35463Z" fill="#86AFE3"/>
</svg>
