<svg width="23" height="39" viewBox="0 0 23 39" fill="none" xmlns="http://www.w3.org/2000/svg">
<path d="M21.6608 0.286232C19.8114 0.0901103 17.9528 -0.00536362 16.093 0.000232387C9.9275 0.000232387 6.09583 3.92723 6.09583 10.2486V14.5404H0.916667C0.673552 14.5404 0.440393 14.637 0.268485 14.8089C0.0965764 14.9808 0 15.214 0 15.4571V22.5154C0 22.7585 0.0965764 22.9917 0.268485 23.1636C0.440393 23.3355 0.673552 23.4321 0.916667 23.4321H6.09583V37.5854C6.09583 37.8285 6.19241 38.0617 6.36432 38.2336C6.53623 38.4055 6.76938 38.5021 7.0125 38.5021H14.3055C14.5486 38.5021 14.7818 38.4055 14.9537 38.2336C15.1256 38.0617 15.2222 37.8285 15.2222 37.5854V23.4321H20.3848C20.6074 23.4322 20.8224 23.3513 20.9897 23.2046C21.157 23.0578 21.2652 22.8552 21.2942 22.6346L22.2053 15.5762C22.2223 15.4469 22.2114 15.3154 22.1735 15.1905C22.1356 15.0657 22.0714 14.9504 21.9853 14.8523C21.8992 14.7543 21.7932 14.6757 21.6743 14.6219C21.5555 14.5681 21.4265 14.5403 21.296 14.5404H15.2222V10.9489C15.2222 9.17057 15.5797 8.42807 17.8035 8.42807H21.5417C21.7848 8.42807 22.0179 8.33149 22.1898 8.15958C22.3618 7.98767 22.4583 7.75451 22.4583 7.5114V1.19557C22.4584 0.973014 22.3776 0.758024 22.2308 0.590704C22.0841 0.423385 21.8815 0.315164 21.6608 0.286232ZM20.625 6.5929L17.8017 6.59473C13.8472 6.59473 13.3888 9.08073 13.3888 10.9489V15.4589C13.3888 15.7017 13.4852 15.9346 13.6567 16.1064C13.8282 16.2783 14.0609 16.3751 14.3037 16.3756H20.2547L19.5782 21.6006H14.3055C14.0624 21.6006 13.8292 21.6971 13.6573 21.8691C13.4854 22.041 13.3888 22.2741 13.3888 22.5172V36.6669H7.92917V22.5172C7.92917 22.2741 7.83259 22.041 7.66068 21.8691C7.48877 21.6971 7.25561 21.6006 7.0125 21.6006H1.83517V16.3756H7.0125C7.25561 16.3756 7.48877 16.279 7.66068 16.1071C7.83259 15.9352 7.92917 15.702 7.92917 15.4589V10.2486C7.92917 4.97957 10.9817 1.83357 16.093 1.83357C17.9428 1.83357 19.613 1.9344 20.625 2.0224V6.5929Z" fill="url(#paint0_linear_1465_8729)"/>
<defs>
<linearGradient id="paint0_linear_1465_8729" x1="11.2292" y1="0" x2="11.2292" y2="38.5021" gradientUnits="userSpaceOnUse">
<stop stop-color="#1B4477"/>
<stop offset="1" stop-color="#327EDD"/>
</linearGradient>
</defs>
</svg>
