<svg width="180" height="60" viewBox="0 0 180 60" fill="none" xmlns="http://www.w3.org/2000/svg">
<rect width="179.457" height="59.8189" rx="8.97284" fill="white"/>
<rect x="0.747737" y="0.747737" width="177.961" height="58.3235" rx="8.2251" stroke="black" stroke-opacity="0.2" stroke-width="1.49547"/>
<path d="M26.6266 29.1028L12.0978 44.8714C12.0991 44.8742 12.0991 44.8784 12.1005 44.8812C12.5467 46.5934 14.0751 47.8535 15.89 47.8535C16.616 47.8535 17.2969 47.6526 17.8809 47.3009L17.9273 47.273L34.2806 37.6234L26.6266 29.1028Z" fill="#EA4335"/>
<path d="M41.3246 26.4189L41.3109 26.4092L34.2505 22.2242L26.2963 29.4624L34.2791 37.623L41.3014 33.4799C42.5322 32.799 43.3687 31.4719 43.3687 29.9425C43.3687 28.4214 42.5445 27.1013 41.3246 26.4189Z" fill="#FBBC04"/>
<path d="M12.0975 14.9447C12.0102 15.2741 11.9638 15.6201 11.9638 15.9774V43.8418C11.9638 44.199 12.0102 44.5451 12.0989 44.873L27.1258 29.5077L12.0975 14.9447Z" fill="#4285F4"/>
<path d="M26.7339 29.9082L34.2529 22.2206L17.9187 12.5362C17.3251 12.172 16.6318 11.9627 15.8909 11.9627C14.076 11.9627 12.5449 13.2255 12.0987 14.9392C12.0987 14.9406 12.0973 14.9419 12.0973 14.9433L26.7339 29.9082Z" fill="#34A853"/>
<path d="M56.7885 18.6129C56.7885 20.3951 56.2597 21.815 55.2022 22.8725C54.0141 24.132 52.4516 24.7617 50.5149 24.7617C48.6613 24.7617 47.0929 24.1201 45.8096 22.8369C44.5264 21.5536 43.8848 19.9733 43.8848 18.096C43.8848 16.2187 44.5264 14.6384 45.8096 13.3552C47.0929 12.0719 48.6613 11.4303 50.5149 11.4303C51.4535 11.4303 52.3387 11.5966 53.1704 11.9293C54.0022 12.262 54.6854 12.7314 55.2201 13.3373L54.0438 14.5136C53.6517 14.0384 53.1407 13.67 52.511 13.4086C51.8931 13.1353 51.2278 12.9987 50.5149 12.9987C49.1247 12.9987 47.9484 13.4799 46.9859 14.4423C46.0354 15.4167 45.5601 16.6345 45.5601 18.096C45.5601 19.5575 46.0354 20.7754 46.9859 21.7497C47.9484 22.7121 49.1247 23.1933 50.5149 23.1933C51.7862 23.1933 52.8437 22.8369 53.6873 22.124C54.5309 21.411 55.0181 20.4308 55.1488 19.1832H50.5149V17.6504H56.6994C56.7588 17.9831 56.7885 18.3039 56.7885 18.6129ZM66.2306 11.7155V13.2839H60.4204V17.3296H65.6603V18.8624H60.4204V22.9082H66.2306V24.4766H58.7807V11.7155H66.2306ZM72.7893 13.2839V24.4766H71.1496V13.2839H67.585V11.7155H76.3538V13.2839H72.7893ZM83.6213 24.4766H81.9816V11.7155H83.6213V24.4766ZM90.5424 13.2839V24.4766H88.9027V13.2839H85.3382V11.7155H94.107V13.2839H90.5424ZM111.88 18.096C111.88 19.9852 111.251 21.5655 109.991 22.8369C108.72 24.1201 107.163 24.7617 105.322 24.7617C103.468 24.7617 101.912 24.1201 100.652 22.8369C99.3926 21.5655 98.7629 19.9852 98.7629 18.096C98.7629 16.2068 99.3926 14.6265 100.652 13.3552C101.912 12.0719 103.468 11.4303 105.322 11.4303C107.175 11.4303 108.732 12.0779 109.991 13.373C111.251 14.6443 111.88 16.2187 111.88 18.096ZM100.438 18.096C100.438 19.5694 100.902 20.7872 101.828 21.7497C102.767 22.7121 103.932 23.1933 105.322 23.1933C106.712 23.1933 107.87 22.7121 108.797 21.7497C109.736 20.7991 110.205 19.5812 110.205 18.096C110.205 16.6108 109.736 15.3929 108.797 14.4423C107.87 13.4799 106.712 12.9987 105.322 12.9987C103.932 12.9987 102.767 13.4799 101.828 14.4423C100.902 15.4048 100.438 16.6227 100.438 18.096ZM115.455 24.4766H113.815V11.7155H115.812L122.014 21.6427H122.085L122.014 19.1832V11.7155H123.654V24.4766H121.943L115.455 14.0681H115.384L115.455 16.5276V24.4766Z" fill="black"/>
<path d="M139.854 50.4139H142.29V33.9465H139.854V50.4139ZM161.793 39.8783L159.001 47.018H158.918L156.02 39.8783H153.396L157.742 49.8567L155.265 55.4078H157.804L164.502 39.8783H161.793ZM147.98 48.5434C147.181 48.5434 146.069 48.1416 146.069 47.1444C146.069 45.8746 147.454 45.3872 148.651 45.3872C149.721 45.3872 150.226 45.6203 150.876 45.9378C150.687 47.4632 149.386 48.5434 147.98 48.5434ZM148.274 39.5186C146.51 39.5186 144.682 40.3024 143.928 42.0399L146.09 42.9502C146.552 42.0399 147.412 41.7422 148.315 41.7422C149.575 41.7422 150.856 42.5049 150.876 43.8617V44.0304C150.435 43.7761 149.491 43.3954 148.336 43.3954C146.006 43.3954 143.633 44.6877 143.633 47.1023C143.633 49.3061 145.544 50.7261 147.685 50.7261C149.323 50.7261 150.226 49.9845 150.793 49.1151H150.876V50.3863H153.227V44.0725C153.227 41.1494 151.066 39.5186 148.274 39.5186ZM133.22 41.8832H129.755V36.2386H133.22C135.041 36.2386 136.075 37.7601 136.075 39.0602C136.075 40.3367 135.041 41.8832 133.22 41.8832ZM133.157 33.9465H127.321V50.4139H129.755V44.1753H133.157C135.857 44.1753 138.511 42.202 138.511 39.0602C138.511 35.9185 135.857 33.9465 133.157 33.9465ZM101.331 48.546C99.6481 48.546 98.2396 47.1247 98.2396 45.1724C98.2396 43.1991 99.6481 41.7554 101.331 41.7554C102.992 41.7554 104.295 43.1991 104.295 45.1724C104.295 47.1247 102.992 48.546 101.331 48.546ZM104.128 40.8004H104.043C103.496 40.143 102.446 39.5489 101.121 39.5489C98.344 39.5489 95.7998 42.0096 95.7998 45.1724C95.7998 48.3129 98.344 50.7538 101.121 50.7538C102.446 50.7538 103.496 50.1597 104.043 49.48H104.128V50.2875C104.128 52.4307 102.992 53.5767 101.162 53.5767C99.669 53.5767 98.7435 52.4939 98.3649 51.5811L96.2411 52.4729C96.8507 53.9588 98.4706 55.7832 101.162 55.7832C104.022 55.7832 106.441 54.0852 106.441 49.9476V39.8875H104.128V40.8004ZM108.124 50.4139H110.564V33.9452H108.124V50.4139ZM114.159 44.9814C114.096 42.8171 115.82 41.7132 117.061 41.7132C118.029 41.7132 118.849 42.2006 119.122 42.9014L114.159 44.9814ZM121.73 43.1135C121.268 41.8621 119.858 39.5489 116.977 39.5489C114.117 39.5489 111.741 41.8186 111.741 45.1514C111.741 48.2918 114.096 50.7538 117.25 50.7538C119.795 50.7538 121.268 49.1836 121.877 48.2707L119.985 46.9969C119.354 47.9308 118.491 48.546 117.25 48.546C116.01 48.546 115.126 47.973 114.558 46.8494L121.982 43.7498L121.73 43.1135ZM62.5857 41.268V43.6444H68.221C68.0526 44.9814 67.6114 45.9576 66.9391 46.636C66.1181 47.4645 64.8349 48.3774 62.5857 48.3774C59.1147 48.3774 56.4021 45.5545 56.4021 42.0531C56.4021 38.5504 59.1147 35.7288 62.5857 35.7288C64.4576 35.7288 65.8244 36.4718 66.8334 37.4268L68.4952 35.7499C67.0854 34.3918 65.2147 33.3511 62.5857 33.3511C57.8328 33.3511 53.837 37.2569 53.837 42.0531C53.837 46.8494 57.8328 50.7538 62.5857 50.7538C65.1508 50.7538 67.0854 49.9041 68.5996 48.3129C70.1569 46.7427 70.6399 44.5362 70.6399 42.7526C70.6399 42.2006 70.5981 41.6922 70.5133 41.268H62.5857ZM77.048 48.546C75.3654 48.546 73.9138 47.1457 73.9138 45.1514C73.9138 43.1346 75.3654 41.7554 77.048 41.7554C78.7294 41.7554 80.1809 43.1346 80.1809 45.1514C80.1809 47.1457 78.7294 48.546 77.048 48.546ZM77.048 39.5489C73.9765 39.5489 71.4741 41.9043 71.4741 45.1514C71.4741 48.3774 73.9765 50.7538 77.048 50.7538C80.1183 50.7538 82.6207 48.3774 82.6207 45.1514C82.6207 41.9043 80.1183 39.5489 77.048 39.5489ZM89.205 48.546C87.5224 48.546 86.0708 47.1457 86.0708 45.1514C86.0708 43.1346 87.5224 41.7554 89.205 41.7554C90.8877 41.7554 92.338 43.1346 92.338 45.1514C92.338 47.1457 90.8877 48.546 89.205 48.546ZM89.205 39.5489C86.1348 39.5489 83.6324 41.9043 83.6324 45.1514C83.6324 48.3774 86.1348 50.7538 89.205 50.7538C92.2753 50.7538 94.7777 48.3774 94.7777 45.1514C94.7777 41.9043 92.2753 39.5489 89.205 39.5489Z" fill="black"/>
</svg>
