<svg width="44" height="44" viewBox="0 0 44 44" fill="none" xmlns="http://www.w3.org/2000/svg">
<path d="M21.9978 13.5243C19.7495 13.5243 17.5933 14.4175 16.0035 16.0073C14.4137 17.5971 13.5205 19.7533 13.5205 22.0017C13.5205 24.25 14.4137 26.4062 16.0035 27.996C17.5933 29.5858 19.7495 30.479 21.9978 30.479C24.2462 30.479 26.4024 29.5858 27.9922 27.996C29.582 26.4062 30.4752 24.25 30.4752 22.0017C30.4752 19.7533 29.582 17.5971 27.9922 16.0073C26.4024 14.4175 24.2462 13.5243 21.9978 13.5243ZM21.9978 27.5072C21.2746 27.5072 20.5585 27.3647 19.8903 27.0879C19.2221 26.8112 18.615 26.4055 18.1036 25.8941C17.5922 25.3827 17.1865 24.7756 16.9097 24.1074C16.633 23.4392 16.4905 22.7231 16.4905 21.9998C16.4905 21.2766 16.633 20.5604 16.9097 19.8923C17.1865 19.2241 17.5922 18.617 18.1036 18.1056C18.615 17.5942 19.2221 17.1885 19.8903 16.9117C20.5585 16.6349 21.2746 16.4925 21.9978 16.4925C23.4585 16.4925 24.8593 17.0727 25.8921 18.1056C26.9249 19.1384 27.5052 20.5392 27.5052 21.9998C27.5052 23.4605 26.9249 24.8613 25.8921 25.8941C24.8593 26.9269 23.4585 27.5072 21.9978 27.5072ZM30.8107 11.2363C30.2865 11.2363 29.7838 11.4445 29.4132 11.8152C29.0426 12.1858 28.8343 12.6885 28.8343 13.2127C28.8343 13.7368 29.0426 14.2395 29.4132 14.6101C29.7838 14.9808 30.2865 15.189 30.8107 15.189C31.3348 15.189 31.8375 14.9808 32.2082 14.6101C32.5788 14.2395 32.787 13.7368 32.787 13.2127C32.787 12.6885 32.5788 12.1858 32.2082 11.8152C31.8375 11.4445 31.3348 11.2363 30.8107 11.2363Z" fill="url(#paint0_linear_1465_8734)"/>
<path d="M37.6441 11.2041C37.2202 10.1078 36.5717 9.11224 35.7405 8.28127C34.9092 7.45029 33.9134 6.80227 32.8169 6.37877C31.5342 5.89705 30.1791 5.63668 28.8092 5.60877C27.0437 5.53177 26.4846 5.50977 22.0076 5.50977C17.5306 5.50977 16.9567 5.50977 15.2059 5.60877C13.8373 5.63709 12.4834 5.89745 11.2019 6.37877C10.1055 6.80227 9.10964 7.45029 8.27835 8.28127C7.44706 9.11224 6.79866 10.1078 6.37474 11.2041C5.89365 12.4869 5.6339 13.842 5.60657 15.2118C5.52774 16.9754 5.50391 17.5346 5.50391 22.0134C5.50391 26.4923 5.50391 27.0606 5.60657 28.8151C5.63407 30.1864 5.89257 31.5394 6.37474 32.8246C6.79886 33.9211 7.44755 34.9167 8.27916 35.7477C9.11078 36.5787 10.1069 37.2266 11.2037 37.6499C12.4825 38.1502 13.8372 38.4292 15.2096 38.4749C16.9751 38.5519 17.5342 38.5758 22.0112 38.5758C26.4882 38.5758 27.0621 38.5758 28.8129 38.4749C30.1826 38.4476 31.5378 38.1879 32.8206 37.7068C33.9172 37.2831 34.9131 36.6348 35.7444 35.8035C36.5757 34.9722 37.224 33.9762 37.6477 32.8796C38.1299 31.5963 38.3884 30.2433 38.4159 28.8719C38.4947 27.1083 38.5186 26.5491 38.5186 22.0703C38.5186 17.5914 38.5186 17.0231 38.4159 15.2686C38.3939 13.8795 38.1328 12.5046 37.6441 11.2041ZM35.4111 28.6794C35.4008 29.7361 35.2079 30.7831 34.8409 31.7741C34.5643 32.4863 34.1424 33.133 33.602 33.6731C33.0616 34.2132 32.4146 34.6347 31.7022 34.9109C30.7217 35.2742 29.6862 35.4671 28.6406 35.4811C26.8989 35.5618 26.4076 35.5819 21.9416 35.5819C17.4719 35.5819 17.0154 35.5819 15.2407 35.4811C14.1957 35.4669 13.1609 35.274 12.1809 34.9109C11.4662 34.6362 10.8167 34.2153 10.274 33.6752C9.73134 33.135 9.30743 32.4875 9.02941 31.7741C8.66973 30.7932 8.477 29.7589 8.45924 28.7143C8.38041 26.9726 8.36207 26.4813 8.36207 22.0153C8.36207 17.5493 8.36207 17.0909 8.45924 15.3144C8.4697 14.2583 8.6626 13.212 9.02941 12.2216C9.58857 10.7751 10.7344 9.6366 12.1809 9.08293C13.1609 8.71984 14.1957 8.52701 15.2407 8.51277C16.9842 8.43393 17.4737 8.41193 21.9416 8.41193C26.4094 8.41193 26.8677 8.41193 28.6406 8.51277C29.6862 8.5268 30.7217 8.71964 31.7022 9.08293C32.4148 9.35932 33.0619 9.78117 33.6023 10.3216C34.1427 10.862 34.5645 11.5091 34.8409 12.2216C35.2006 13.2025 35.3933 14.2368 35.4111 15.2814C35.4899 17.0249 35.5101 17.5144 35.5101 21.9823C35.5101 26.4501 35.5101 26.9286 35.4312 28.6813L35.4111 28.6794Z" fill="url(#paint1_linear_1465_8734)"/>
<defs>
<linearGradient id="paint0_linear_1465_8734" x1="23.1538" y1="11.2363" x2="23.1538" y2="30.479" gradientUnits="userSpaceOnUse">
<stop stop-color="#1B4477"/>
<stop offset="1" stop-color="#327EDD"/>
</linearGradient>
<linearGradient id="paint1_linear_1465_8734" x1="22.0112" y1="5.50977" x2="22.0112" y2="38.5758" gradientUnits="userSpaceOnUse">
<stop stop-color="#1B4477"/>
<stop offset="1" stop-color="#327EDD"/>
</linearGradient>
</defs>
</svg>
