<svg width="153" height="52" viewBox="0 0 153 52" fill="none" xmlns="http://www.w3.org/2000/svg">
<path d="M56.6184 23.3126C56.6184 24.0053 56.5992 24.5344 56.5607 24.9H43.4863C43.544 26.093 43.8327 27.1127 44.3522 27.9594C44.8717 28.806 45.5547 29.4505 46.4013 29.8931C47.248 30.3164 48.1715 30.528 49.1721 30.528C50.4805 30.528 51.5772 30.2106 52.4623 29.5756C53.3667 28.9407 53.9631 28.0844 54.2518 27.0069H56.3875C56.0027 28.5462 55.1753 29.8065 53.9054 30.7878C52.6547 31.7499 51.077 32.2309 49.1721 32.2309C47.6905 32.2309 46.3629 31.9038 45.1892 31.2496C44.0154 30.5762 43.0919 29.6333 42.4184 28.4211C41.7642 27.1897 41.4371 25.7562 41.4371 24.1207C41.4371 22.4852 41.7642 21.0518 42.4184 19.8203C43.0726 18.5889 43.9866 17.6461 45.1603 16.9919C46.334 16.3377 47.6713 16.0106 49.1721 16.0106C50.6729 16.0106 51.9813 16.3377 53.0973 16.9919C54.2325 17.6461 55.0984 18.5312 55.6948 19.6472C56.3106 20.7439 56.6184 21.9657 56.6184 23.3126ZM54.5692 23.2549C54.5885 22.0812 54.348 21.0806 53.8477 20.2533C53.3667 19.4259 52.7028 18.8005 51.8562 18.3772C51.0096 17.9539 50.086 17.7423 49.0855 17.7423C47.5847 17.7423 46.3051 18.2233 45.2469 19.1854C44.1886 20.1474 43.6018 21.5039 43.4863 23.2549H54.5692ZM59.3912 24.0919C59.3912 22.4756 59.7183 21.0614 60.3725 19.8492C61.0267 18.6178 61.9214 17.6749 63.0566 17.0207C64.2111 16.3473 65.5099 16.0106 66.953 16.0106C68.3383 16.0106 69.589 16.3473 70.705 17.0207C71.821 17.6942 72.6387 18.5697 73.1582 19.6472V10.6423H75.1786V32H73.1582V28.4789C72.6772 29.5756 71.8883 30.4799 70.7916 31.1919C69.6948 31.8846 68.4057 32.2309 66.9241 32.2309C65.481 32.2309 64.1822 31.8942 63.0278 31.2207C61.8925 30.5473 60.9978 29.5949 60.3436 28.3634C59.7087 27.132 59.3912 25.7081 59.3912 24.0919ZM73.1582 24.1207C73.1582 22.8508 72.8985 21.7348 72.379 20.7728C71.8595 19.8107 71.1475 19.0699 70.2432 18.5504C69.3581 18.0309 68.3768 17.7711 67.2993 17.7711C66.1833 17.7711 65.1828 18.0213 64.2977 18.5216C63.4126 19.0218 62.7103 19.753 62.1908 20.715C61.6905 21.6579 61.4404 22.7835 61.4404 24.0919C61.4404 25.381 61.6905 26.5163 62.1908 27.4976C62.7103 28.4596 63.4126 29.2004 64.2977 29.7199C65.1828 30.2202 66.1833 30.4703 67.2993 30.4703C68.3768 30.4703 69.3581 30.2106 70.2432 29.6911C71.1475 29.1715 71.8595 28.4308 72.379 27.4687C72.8985 26.5066 73.1582 25.3907 73.1582 24.1207ZM80.801 13.2687C80.3969 13.2687 80.0506 13.1244 79.762 12.8358C79.4733 12.5472 79.329 12.1912 79.329 11.7679C79.329 11.3446 79.4733 10.9982 79.762 10.7289C80.0506 10.4403 80.3969 10.2959 80.801 10.2959C81.205 10.2959 81.5514 10.4403 81.84 10.7289C82.1286 10.9982 82.2729 11.3446 82.2729 11.7679C82.2729 12.1912 82.1286 12.5472 81.84 12.8358C81.5514 13.1244 81.205 13.2687 80.801 13.2687ZM81.8111 16.2415V32H79.7908V16.2415H81.8111ZM85.4626 24.1207C85.4626 22.4852 85.7897 21.0614 86.4439 19.8492C87.0981 18.6178 88.0024 17.6749 89.1569 17.0207C90.3114 16.3473 91.6294 16.0106 93.111 16.0106C95.0543 16.0106 96.6514 16.4916 97.902 17.4537C99.1719 18.4157 99.9897 19.7241 100.355 21.3789H98.1906C97.9213 20.2436 97.3344 19.3585 96.4301 18.7236C95.545 18.0694 94.4386 17.7423 93.111 17.7423C92.0527 17.7423 91.1003 17.9828 90.2537 18.4638C89.407 18.9449 88.7336 19.6664 88.2333 20.6285C87.7523 21.5713 87.5118 22.7354 87.5118 24.1207C87.5118 25.5061 87.7523 26.6798 88.2333 27.6419C88.7336 28.6039 89.407 29.3255 90.2537 29.8065C91.1003 30.2875 92.0527 30.528 93.111 30.528C94.4386 30.528 95.545 30.2106 96.4301 29.5756C97.3344 28.9214 97.9213 28.0171 98.1906 26.8626H100.355C99.9897 28.4789 99.1719 29.7776 97.902 30.7589C96.6321 31.7402 95.0351 32.2309 93.111 32.2309C91.6294 32.2309 90.3114 31.9038 89.1569 31.2496C88.0024 30.5762 87.0981 29.6333 86.4439 28.4211C85.7897 27.1897 85.4626 25.7562 85.4626 24.1207ZM103.163 24.0919C103.163 22.4756 103.48 21.0614 104.115 19.8492C104.77 18.6178 105.664 17.6749 106.8 17.0207C107.954 16.3473 109.253 16.0106 110.696 16.0106C112.197 16.0106 113.486 16.3569 114.563 17.0496C115.66 17.7423 116.449 18.6274 116.93 19.7049V16.2415H118.95V32H116.93V28.5077C116.43 29.5852 115.631 30.4799 114.535 31.1919C113.457 31.8846 112.168 32.2309 110.667 32.2309C109.243 32.2309 107.954 31.8942 106.8 31.2207C105.664 30.5473 104.77 29.5949 104.115 28.3634C103.48 27.132 103.163 25.7081 103.163 24.0919ZM116.93 24.1207C116.93 22.8508 116.67 21.7348 116.151 20.7728C115.631 19.8107 114.919 19.0699 114.015 18.5504C113.13 18.0309 112.149 17.7711 111.071 17.7711C109.955 17.7711 108.955 18.0213 108.069 18.5216C107.184 19.0218 106.482 19.753 105.963 20.715C105.462 21.6579 105.212 22.7835 105.212 24.0919C105.212 25.381 105.462 26.5163 105.963 27.4976C106.482 28.4596 107.184 29.2004 108.069 29.7199C108.955 30.2202 109.955 30.4703 111.071 30.4703C112.149 30.4703 113.13 30.2106 114.015 29.6911C114.919 29.1715 115.631 28.4308 116.151 27.4687C116.67 26.5066 116.93 25.3907 116.93 24.1207ZM125.583 19.0411C126.026 18.0598 126.699 17.2997 127.603 16.761C128.527 16.2222 129.652 15.9529 130.98 15.9529V18.0598H130.432C128.969 18.0598 127.796 18.4542 126.911 19.2431C126.026 20.032 125.583 21.35 125.583 23.1972V32H123.563V16.2415H125.583V19.0411ZM133.096 24.0919C133.096 22.4756 133.423 21.0614 134.077 19.8492C134.731 18.6178 135.626 17.6749 136.761 17.0207C137.916 16.3473 139.215 16.0106 140.658 16.0106C142.043 16.0106 143.294 16.3473 144.41 17.0207C145.526 17.6942 146.343 18.5697 146.863 19.6472V10.6423H148.883V32H146.863V28.4789C146.382 29.5756 145.593 30.4799 144.496 31.1919C143.399 31.8846 142.11 32.2309 140.629 32.2309C139.186 32.2309 137.887 31.8942 136.732 31.2207C135.597 30.5473 134.702 29.5949 134.048 28.3634C133.413 27.132 133.096 25.7081 133.096 24.0919ZM146.863 24.1207C146.863 22.8508 146.603 21.7348 146.084 20.7728C145.564 19.8107 144.852 19.0699 143.948 18.5504C143.063 18.0309 142.081 17.7711 141.004 17.7711C139.888 17.7711 138.887 18.0213 138.002 18.5216C137.117 19.0218 136.415 19.753 135.895 20.715C135.395 21.6579 135.145 22.7835 135.145 24.0919C135.145 25.381 135.395 26.5163 135.895 27.4976C136.415 28.4596 137.117 29.2004 138.002 29.7199C138.887 30.2202 139.888 30.4703 141.004 30.4703C142.081 30.4703 143.063 30.2106 143.948 29.6911C144.852 29.1715 145.564 28.4308 146.084 27.4687C146.603 26.5066 146.863 25.3907 146.863 24.1207Z" fill="white"/>
<path d="M47.2639 47.6221V39.4591H50.022C50.6624 39.4591 51.1859 39.5747 51.5925 39.8059C52.0017 40.0344 52.3046 40.344 52.5012 40.7346C52.6979 41.1252 52.7962 41.561 52.7962 42.0419C52.7962 42.5229 52.6979 42.96 52.5012 43.3533C52.3072 43.7465 52.007 44.0601 51.6004 44.2939C51.1939 44.5251 50.6731 44.6407 50.038 44.6407H48.061V43.7638H50.0061C50.4445 43.7638 50.7966 43.6881 51.0623 43.5366C51.3281 43.3852 51.5207 43.1806 51.6403 42.9228C51.7625 42.6624 51.8236 42.3688 51.8236 42.0419C51.8236 41.7151 51.7625 41.4228 51.6403 41.1651C51.5207 40.9073 51.3267 40.7054 51.0584 40.5592C50.79 40.4104 50.4339 40.336 49.9902 40.336H48.2523V47.6221H47.2639ZM56.6823 47.7496C56.1296 47.7496 55.6447 47.6181 55.2275 47.355C54.813 47.092 54.4888 46.7239 54.255 46.251C54.0238 45.778 53.9082 45.2253 53.9082 44.5929C53.9082 43.9551 54.0238 43.3984 54.255 42.9228C54.4888 42.4472 54.813 42.0778 55.2275 41.8148C55.6447 41.5517 56.1296 41.4202 56.6823 41.4202C57.235 41.4202 57.7186 41.5517 58.1332 41.8148C58.5503 42.0778 58.8745 42.4472 59.1057 42.9228C59.3395 43.3984 59.4564 43.9551 59.4564 44.5929C59.4564 45.2253 59.3395 45.778 59.1057 46.251C58.8745 46.7239 58.5503 47.092 58.1332 47.355C57.7186 47.6181 57.235 47.7496 56.6823 47.7496ZM56.6823 46.9046C57.1022 46.9046 57.4476 46.797 57.7186 46.5818C57.9897 46.3665 58.1903 46.0835 58.3205 45.7328C58.4507 45.382 58.5158 45.0021 58.5158 44.5929C58.5158 44.1836 58.4507 43.8023 58.3205 43.4489C58.1903 43.0955 57.9897 42.8099 57.7186 42.592C57.4476 42.3741 57.1022 42.2651 56.6823 42.2651C56.2625 42.2651 55.9171 42.3741 55.646 42.592C55.375 42.8099 55.1744 43.0955 55.0442 43.4489C54.914 43.8023 54.8489 44.1836 54.8489 44.5929C54.8489 45.0021 54.914 45.382 55.0442 45.7328C55.1744 46.0835 55.375 46.3665 55.646 46.5818C55.9171 46.797 56.2625 46.9046 56.6823 46.9046ZM62.0711 47.6221L60.2058 41.4999H61.1943L62.5175 46.1872H62.5813L63.8887 41.4999H64.8931L66.1845 46.1712H66.2483L67.5715 41.4999H68.56L66.6947 47.6221H65.77L64.4307 42.9188H64.3351L62.9958 47.6221H62.0711ZM72.1622 47.7496C71.5723 47.7496 71.0634 47.6194 70.6356 47.359C70.2105 47.0959 69.8823 46.7293 69.6511 46.2589C69.4226 45.7859 69.3084 45.2359 69.3084 44.6088C69.3084 43.9817 69.4226 43.429 69.6511 42.9507C69.8823 42.4698 70.2038 42.0951 70.6157 41.8267C71.0302 41.5557 71.5138 41.4202 72.0665 41.4202C72.3854 41.4202 72.7003 41.4733 73.0112 41.5796C73.3221 41.6859 73.6051 41.8586 73.8601 42.0977C74.1152 42.3342 74.3185 42.6478 74.47 43.0384C74.6214 43.429 74.6972 43.91 74.6972 44.4813V44.8798H69.978V44.0667H73.7406C73.7406 43.7213 73.6715 43.4131 73.5333 43.142C73.3978 42.871 73.2038 42.6571 72.9514 42.5003C72.7016 42.3435 72.4067 42.2651 72.0665 42.2651C71.6919 42.2651 71.3677 42.3582 71.094 42.5442C70.823 42.7275 70.6144 42.9667 70.4682 43.2616C70.3221 43.5565 70.249 43.8728 70.249 44.2102V44.7523C70.249 45.2146 70.3287 45.6066 70.4882 45.9281C70.6502 46.247 70.8748 46.4901 71.1618 46.6575C71.4487 46.8223 71.7822 46.9046 72.1622 46.9046C72.4093 46.9046 72.6325 46.8701 72.8318 46.801C73.0338 46.7293 73.2078 46.623 73.3539 46.4821C73.5001 46.3386 73.613 46.1606 73.6927 45.948L74.6015 46.2031C74.5058 46.5114 74.3451 46.7824 74.1192 47.0162C73.8934 47.2474 73.6144 47.4281 73.2822 47.5583C72.9501 47.6858 72.5767 47.7496 72.1622 47.7496ZM76.1281 47.6221V41.4999H77.0368V42.4246H77.1006C77.2122 42.1217 77.4142 41.8759 77.7064 41.6872C77.9987 41.4985 78.3282 41.4042 78.6949 41.4042C78.764 41.4042 78.8504 41.4055 78.954 41.4082C79.0576 41.4109 79.136 41.4148 79.1892 41.4202V42.3768C79.1573 42.3688 79.0842 42.3568 78.9699 42.3409C78.8583 42.3223 78.7401 42.313 78.6152 42.313C78.3176 42.313 78.0519 42.3754 77.818 42.5003C77.5869 42.6225 77.4035 42.7926 77.268 43.0105C77.1351 43.2257 77.0687 43.4715 77.0687 43.7479V47.6221H76.1281ZM82.6847 47.7496C82.0948 47.7496 81.586 47.6194 81.1582 47.359C80.733 47.0959 80.4048 46.7293 80.1737 46.2589C79.9451 45.7859 79.8309 45.2359 79.8309 44.6088C79.8309 43.9817 79.9451 43.429 80.1737 42.9507C80.4048 42.4698 80.7264 42.0951 81.1382 41.8267C81.5527 41.5557 82.0364 41.4202 82.5891 41.4202C82.9079 41.4202 83.2228 41.4733 83.5337 41.5796C83.8446 41.6859 84.1276 41.8586 84.3827 42.0977C84.6378 42.3342 84.841 42.6478 84.9925 43.0384C85.144 43.429 85.2197 43.91 85.2197 44.4813V44.8798H80.5005V44.0667H84.2631C84.2631 43.7213 84.194 43.4131 84.0558 43.142C83.9203 42.871 83.7263 42.6571 83.4739 42.5003C83.2241 42.3435 82.9292 42.2651 82.5891 42.2651C82.2144 42.2651 81.8902 42.3582 81.6165 42.5442C81.3455 42.7275 81.1369 42.9667 80.9907 43.2616C80.8446 43.5565 80.7715 43.8728 80.7715 44.2102V44.7523C80.7715 45.2146 80.8512 45.6066 81.0107 45.9281C81.1728 46.247 81.3973 46.4901 81.6843 46.6575C81.9713 46.8223 82.3047 46.9046 82.6847 46.9046C82.9318 46.9046 83.155 46.8701 83.3543 46.801C83.5563 46.7293 83.7303 46.623 83.8765 46.4821C84.0226 46.3386 84.1355 46.1606 84.2153 45.948L85.124 46.2031C85.0284 46.5114 84.8676 46.7824 84.6417 47.0162C84.4159 47.2474 84.1369 47.4281 83.8047 47.5583C83.4726 47.6858 83.0992 47.7496 82.6847 47.7496ZM88.9624 47.7496C88.4522 47.7496 88.0018 47.6207 87.6112 47.363C87.2206 47.1026 86.915 46.7359 86.6944 46.2629C86.4739 45.7873 86.3636 45.2253 86.3636 44.5769C86.3636 43.9339 86.4739 43.3759 86.6944 42.9029C86.915 42.4299 87.2219 42.0645 87.6152 41.8068C88.0084 41.549 88.4628 41.4202 88.9783 41.4202C89.3769 41.4202 89.6918 41.4866 89.9229 41.6194C90.1568 41.7497 90.3348 41.8985 90.457 42.0659C90.5819 42.2306 90.6789 42.3661 90.748 42.4724H90.8277V39.4591H91.7684V47.6221H90.8596V46.6814H90.748C90.6789 46.793 90.5806 46.9339 90.453 47.1039C90.3255 47.2713 90.1435 47.4215 89.907 47.5543C89.6705 47.6845 89.3556 47.7496 88.9624 47.7496ZM89.0899 46.9046C89.4672 46.9046 89.7861 46.8063 90.0465 46.6097C90.3069 46.4104 90.5049 46.1354 90.6404 45.7846C90.7759 45.4312 90.8437 45.0233 90.8437 44.561C90.8437 44.1039 90.7772 43.704 90.6444 43.3612C90.5115 43.0158 90.3149 42.7474 90.0545 42.5561C89.7941 42.3621 89.4725 42.2651 89.0899 42.2651C88.6913 42.2651 88.3592 42.3675 88.0935 42.5721C87.8304 42.774 87.6324 43.049 87.4996 43.3971C87.3694 43.7426 87.3043 44.1305 87.3043 44.561C87.3043 44.9968 87.3707 45.3927 87.5036 45.7487C87.6391 46.1022 87.8384 46.3838 88.1014 46.5937C88.3671 46.801 88.6966 46.9046 89.0899 46.9046ZM96.9061 47.6221V39.4591H97.8467V42.4724H97.9264C97.9955 42.3661 98.0912 42.2306 98.2134 42.0659C98.3383 41.8985 98.5163 41.7497 98.7475 41.6194C98.9813 41.4866 99.2975 41.4202 99.6961 41.4202C100.212 41.4202 100.666 41.549 101.059 41.8068C101.453 42.0645 101.759 42.4299 101.98 42.9029C102.201 43.3759 102.311 43.9339 102.311 44.5769C102.311 45.2253 102.201 45.7873 101.98 46.2629C101.759 46.7359 101.454 47.1026 101.063 47.363C100.673 47.6207 100.222 47.7496 99.7121 47.7496C99.3188 47.7496 99.0039 47.6845 98.7674 47.5543C98.5309 47.4215 98.3489 47.2713 98.2214 47.1039C98.0938 46.9339 97.9955 46.793 97.9264 46.6814H97.8148V47.6221H96.9061ZM97.8308 44.561C97.8308 45.0233 97.8985 45.4312 98.034 45.7846C98.1696 46.1354 98.3675 46.4104 98.6279 46.6097C98.8883 46.8063 99.2072 46.9046 99.5845 46.9046C99.9778 46.9046 100.306 46.801 100.569 46.5937C100.835 46.3838 101.034 46.1022 101.167 45.7487C101.302 45.3927 101.37 44.9968 101.37 44.561C101.37 44.1305 101.304 43.7426 101.171 43.3971C101.041 43.049 100.843 42.774 100.577 42.5721C100.314 42.3675 99.9831 42.2651 99.5845 42.2651C99.2019 42.2651 98.8804 42.3621 98.62 42.5561C98.3596 42.7474 98.1629 43.0158 98.0301 43.3612C97.8972 43.704 97.8308 44.1039 97.8308 44.561ZM104.136 49.9179C103.977 49.9179 103.835 49.9046 103.71 49.878C103.585 49.8541 103.499 49.8302 103.451 49.8063L103.69 48.9772C103.918 49.0357 104.12 49.057 104.296 49.041C104.471 49.0251 104.627 48.9467 104.762 48.8059C104.9 48.6677 105.026 48.4431 105.141 48.1323L105.316 47.654L103.052 41.4999H104.073L105.763 46.3785H105.826L107.516 41.4999H108.537L105.938 48.5149C105.821 48.8311 105.676 49.0928 105.503 49.3001C105.331 49.51 105.13 49.6655 104.902 49.7664C104.676 49.8674 104.421 49.9179 104.136 49.9179Z" fill="#C2C2C2"/>
<path d="M33.2056 8.4417C33.2389 8.45681 33.2722 8.4719 33.3055 8.48696C33.6009 8.62322 33.8531 8.8009 34.1019 9.02515C34.1245 9.04463 34.1471 9.06411 34.1704 9.08419C34.4388 9.33384 34.6496 9.6347 34.8239 9.96977C34.839 9.99875 34.8541 10.0277 34.8696 10.0576C35.1562 10.653 35.2763 11.2872 35.2751 11.9564C35.2751 11.997 35.2751 12.0376 35.2752 12.0782C35.2753 12.1896 35.2752 12.3011 35.2751 12.4125C35.275 12.5338 35.275 12.655 35.2751 12.7763C35.2751 12.9888 35.2751 13.2013 35.275 13.4138C35.2748 13.7298 35.2748 14.0457 35.2749 14.3617C35.2749 14.8932 35.2748 15.4248 35.2747 15.9563C35.2745 16.4826 35.2744 17.0089 35.2744 17.5352C35.2744 17.5679 35.2744 17.6006 35.2744 17.6343C35.2744 17.8005 35.2744 17.9667 35.2744 18.1329C35.2743 19.3099 35.2741 20.487 35.2739 21.664C35.2737 22.8076 35.2735 23.9511 35.2734 25.0946C35.2734 25.1298 35.2734 25.1651 35.2734 25.2014C35.2734 25.5554 35.2733 25.9093 35.2733 26.2633C35.2732 26.9843 35.2732 27.7054 35.2731 28.4265C35.2731 28.4596 35.2731 28.4928 35.2731 28.5269C35.2729 30.2424 35.2726 31.9579 35.2723 33.6734C35.2723 33.6976 35.2723 33.7217 35.2723 33.7466C35.2722 34.2207 35.2721 34.6949 35.272 35.169C34.4751 35.169 33.6782 35.169 32.8571 35.169C32.8569 34.8781 32.8567 34.5873 32.8565 34.2876C32.8563 34.0902 32.8562 33.8929 32.856 33.6955C32.856 33.6699 32.856 33.6442 32.856 33.6178C32.8548 31.9203 32.8535 30.2228 32.8521 28.5253C32.852 28.4762 32.852 28.4762 32.852 28.426C32.8514 27.7138 32.8507 27.0016 32.8501 26.2894C32.8498 25.9401 32.8495 25.5909 32.8492 25.2416C32.8491 25.1895 32.8491 25.1895 32.8491 25.1363C32.8481 24.0096 32.8472 22.8829 32.8465 21.7562C32.8457 20.5984 32.8448 19.4407 32.8437 18.2829C32.8435 18.1194 32.8433 17.9559 32.8432 17.7924C32.8431 17.7602 32.8431 17.7281 32.8431 17.6949C32.8426 17.1768 32.8423 16.6586 32.842 16.1405C32.8417 15.6196 32.8413 15.0988 32.8407 14.578C32.8403 14.2685 32.8401 13.959 32.84 13.6495C32.84 13.4428 32.8398 13.236 32.8394 13.0293C32.8392 12.9115 32.8391 12.7937 32.8392 12.6759C32.8393 12.5686 32.8391 12.4613 32.8388 12.354C32.8387 12.2975 32.8388 12.241 32.839 12.1845C32.8372 11.7826 32.812 11.4927 32.5611 11.1914C32.3622 10.9788 32.157 10.9264 31.889 10.931C31.6485 10.9416 31.4431 11.0447 31.2732 11.2381C31.1611 11.3758 31.0725 11.5229 30.9867 11.6819C30.9729 11.7071 30.9591 11.7324 30.9449 11.7584C30.8184 11.9905 30.6946 12.2246 30.5713 12.4589C30.4952 12.6032 30.4183 12.7469 30.341 12.8905C30.3288 12.9131 30.3166 12.9358 30.304 12.9591C30.2671 13.0277 30.2301 13.0963 30.1931 13.1648C30.1423 13.2592 30.0915 13.3535 30.0407 13.4479C30.0283 13.4709 30.0159 13.4939 30.0031 13.5176C29.9132 13.6849 29.8242 13.8528 29.7362 14.0214C29.6592 14.1684 29.5792 14.3133 29.4991 14.4582C29.4129 14.6142 29.3276 14.7707 29.2424 14.9273C29.2333 14.944 29.2242 14.9607 29.2148 14.978C29.0797 15.2263 28.9461 15.4757 28.814 15.7261C28.6899 15.9614 28.5641 16.1954 28.438 16.4294C28.3994 16.501 28.3609 16.5726 28.3225 16.6443C28.303 16.6806 28.303 16.6806 28.2832 16.7176C28.2589 16.7629 28.2346 16.8081 28.2104 16.8534C28.1432 16.9785 28.0751 17.1029 28.0064 17.227C27.9089 17.4037 27.8135 17.5817 27.7188 17.7603C27.692 17.8109 27.6652 17.8614 27.6384 17.9119C27.5556 18.0646 27.5262 18.0821 27.45 18.2389C27.3582 18.2236 27.3506 18.1736 27.2538 18.1206C27.1695 18.0554 27.0844 17.9953 26.9955 17.9383C26.8666 17.8554 26.7395 17.7698 26.6127 17.683C26.3223 17.4844 26.0305 17.2888 25.7363 17.0972C25.6189 17.0204 25.4783 16.9345 25.3633 16.8534C25.4005 16.7508 25.4182 16.704 25.4751 16.5942C25.4849 16.5749 25.5276 16.4846 25.5378 16.4648C25.64 16.2669 25.7499 16.0745 25.86 15.8819C26.0343 15.5767 26.201 15.2665 26.3647 14.9541C26.4845 14.7262 26.6085 14.5012 26.7325 14.2761C26.7507 14.2431 26.7689 14.2101 26.7871 14.1771C26.8523 14.0587 26.9176 13.9405 26.983 13.8223C27.0084 13.7762 27.0084 13.7762 27.0344 13.7292C27.0494 13.7021 27.0643 13.6751 27.0797 13.6472C27.1209 13.572 27.1617 13.4964 27.2023 13.4207C27.2768 13.2819 27.353 13.1442 27.4296 13.0068C27.6631 12.587 27.8936 12.1651 28.1203 11.7407C28.1779 11.6336 28.2368 11.5273 28.2956 11.421C28.383 11.2625 28.4696 11.1035 28.556 10.9444C28.5834 10.8938 28.611 10.8433 28.6385 10.7927C28.7193 10.6443 28.8001 10.4957 28.8802 10.3468C29.4553 9.28121 30.2036 8.56211 31.3032 8.25715C31.9241 8.105 32.6205 8.1621 33.2056 8.4417Z" fill="white"/>
<ellipse cx="23.687" cy="25.7963" rx="2.32272" ry="2.40181" fill="white"/>
<ellipse cx="15.6128" cy="17.077" rx="3.11766" ry="3.34164" fill="white"/>
<path d="M4.61559 8.33728C4.63087 8.3454 4.64615 8.35352 4.66189 8.36189C5.52336 8.82349 6.00806 9.66648 6.46186 10.6054C6.51792 10.7205 6.57525 10.8348 6.63265 10.949C6.77938 11.2413 6.9184 11.5375 7.05414 11.837C7.13646 12.018 7.22231 12.1934 7.31586 12.3666C7.36204 12.4551 7.40384 12.5458 7.44485 12.6377C7.64568 13.0871 7.86505 13.5249 8.08143 13.9641C8.17565 14.1557 8.26825 14.3482 8.35922 14.5419C8.46826 14.7738 8.58064 15.0034 8.69282 15.2332C8.72773 15.3047 8.76255 15.3763 8.79734 15.448C8.89666 15.6525 8.99607 15.857 9.09661 16.0607C9.26402 16.4001 9.42859 16.7409 9.58998 17.0842C9.70245 17.3228 9.81857 17.5587 9.93615 17.7938C10.017 17.9558 10.0964 18.1186 10.1736 18.283C10.4075 18.7868 10.4075 18.7868 10.6627 19.2757C10.7198 19.3786 10.7675 19.4829 10.8134 19.5933C10.8857 19.7673 10.9648 19.9355 11.0468 20.1035C11.0585 20.1275 11.0702 20.1514 11.0822 20.1761C11.1394 20.2926 11.1974 20.4084 11.2567 20.5235C11.3381 20.6823 11.4148 20.844 11.4915 21.0059C11.5207 21.0674 11.55 21.1289 11.5792 21.1904C11.5931 21.2197 11.6071 21.249 11.6214 21.2791C11.7196 21.4852 11.8187 21.6907 11.9229 21.8927C11.9693 21.9828 12.0133 22.0738 12.0557 22.1665C12.1337 22.3352 12.2158 22.5009 12.2982 22.6667C12.4388 22.9509 12.5737 23.2379 12.704 23.5288C12.9603 24.0969 13.281 24.7435 13.8361 24.9441C13.8603 24.9525 13.8603 24.9525 13.8849 24.961C13.9012 24.9669 13.9175 24.9728 13.9343 24.9788C14.0962 25.0365 14.2369 25.058 14.405 25.0582C14.4237 25.0585 14.4424 25.0589 14.4617 25.0592C14.7082 25.0599 14.9429 24.9879 15.1806 24.9176C15.2159 24.9075 15.2159 24.9075 15.2519 24.8971C15.5402 24.8124 15.8129 24.6937 16.0859 24.5575C16.1362 24.5325 16.1866 24.5079 16.237 24.4833C16.4287 24.3886 16.6096 24.2832 16.7883 24.1582C16.8574 24.111 16.9272 24.0693 16.9993 24.0291C17.1821 23.9236 17.3516 23.7944 17.5223 23.6646C17.5373 23.6533 17.5523 23.642 17.5677 23.6303C17.9931 23.3076 18.3858 22.9426 18.7579 22.5396C18.808 22.4862 18.8586 22.4341 18.9098 22.3824C19.0279 22.2613 19.1386 22.1321 19.2494 22.0021C19.2799 21.9668 19.2799 21.9668 19.311 21.9308C19.4215 21.8013 19.5229 21.67 19.6161 21.5228C19.6617 21.4528 19.7144 21.3936 19.768 21.3322C19.8939 21.1739 20.0043 21.0033 20.1135 20.8289C20.1502 20.7706 20.1872 20.7127 20.2243 20.6547C20.5277 20.1784 20.7904 19.6807 21.0445 19.1664C21.0542 19.147 21.0639 19.1276 21.0738 19.1076C21.4241 18.4044 21.7023 17.6636 21.9445 16.9015C21.9677 16.83 21.9921 16.7591 22.0167 16.6882C22.0499 16.5915 22.0779 16.4962 22.0994 16.3949C22.1148 16.3227 22.1306 16.2546 22.1543 16.1856C22.3229 15.686 22.399 15.1376 22.4865 14.6126C22.4952 14.5617 22.5039 14.5107 22.5126 14.4598C22.6082 13.898 22.6398 13.3337 22.6667 12.7626C22.6828 12.4276 22.6828 12.4276 22.6992 12.0858C23.4637 12.0858 24.2282 12.0858 25.0158 12.0858C25.0158 12.9684 24.9465 13.8196 24.8166 14.6885C24.8016 14.7887 24.7873 14.889 24.7732 14.9894C24.7676 15.0293 24.7619 15.0691 24.7561 15.1089C24.7423 15.2048 24.7294 15.3006 24.7179 15.3968C24.6773 15.7267 24.6012 16.0391 24.5184 16.3575C24.4802 16.5055 24.4438 16.6542 24.4071 16.8027C24.3816 16.9057 24.356 17.0087 24.3303 17.1116C24.3245 17.1353 24.3186 17.1589 24.3127 17.1833C24.2729 17.3427 24.2268 17.4978 24.1766 17.6531C24.1326 17.7909 24.0892 17.9277 24.0555 18.0696C24.0259 18.1924 23.9821 18.304 23.9358 18.4193C23.9034 18.5035 23.8759 18.5886 23.8486 18.6753C23.7949 18.8428 23.73 18.9996 23.6601 19.1584C23.6338 19.22 23.6092 19.2827 23.5862 19.3461C23.549 19.4473 23.5065 19.5436 23.4616 19.6402C23.4008 19.7719 23.3426 19.9043 23.2872 20.0393C23.0817 20.5255 22.8324 20.9883 22.581 21.4433C22.5705 21.4623 22.5601 21.4813 22.5493 21.5008C22.4176 21.7386 22.2793 21.9682 22.1319 22.193C22.1124 22.2227 22.093 22.2524 22.0735 22.2821C22.0436 22.3279 22.0136 22.3736 21.9835 22.4193C21.9189 22.5175 21.856 22.617 21.7936 22.7171C21.6002 23.021 21.3798 23.3008 21.1627 23.5813C21.1456 23.6039 21.1286 23.6266 21.111 23.6499C20.9552 23.854 20.7912 24.0485 20.6264 24.2425C20.6146 24.2564 20.6029 24.2703 20.5908 24.2846C20.4547 24.4451 20.3164 24.6002 20.1699 24.7475C20.1334 24.7868 20.0969 24.8261 20.0605 24.8655C19.9139 25.0206 19.7594 25.1625 19.6025 25.3029C19.5864 25.3174 19.5703 25.3319 19.5537 25.3468C18.8787 25.9514 18.1558 26.4554 17.3943 26.8922C17.3364 26.9256 17.2787 26.9594 17.2212 26.9937C17.2067 27.0024 17.1921 27.0111 17.1772 27.02C17.1372 27.0438 17.0973 27.0678 17.0575 27.0918C16.5277 27.3855 15.9193 27.5837 15.3476 27.7186C15.3131 27.7272 15.3131 27.7272 15.2779 27.7359C14.6919 27.8788 14.0614 27.902 13.4801 27.7186C13.4504 27.7093 13.4207 27.7 13.3901 27.6904C13.3167 27.6653 13.2448 27.6377 13.1728 27.6075C13.1454 27.5962 13.1454 27.5962 13.1175 27.5846C12.618 27.363 12.1715 27.0575 11.7984 26.6039C11.7542 26.5521 11.7081 26.5054 11.6599 26.4587C11.6365 26.4346 11.6131 26.4106 11.589 26.3858C11.589 26.3675 11.5606 26.3575 11.5488 26.3313C11.5252 26.3183 11.5422 26.3119 11.5181 26.3025C11.4833 26.2629 11.4833 26.2629 11.4457 26.2105C11.4241 26.1805 11.4241 26.1805 11.402 26.1499C11.3857 26.1269 11.3694 26.104 11.3526 26.0803C11.3242 26.0412 11.3242 26.0412 11.2951 26.0013C11.0916 25.7193 10.9249 25.4257 10.7705 25.1033C10.754 25.069 10.7374 25.0346 10.7208 25.0003C10.6873 24.9309 10.6539 24.8614 10.6205 24.7919C10.5765 24.7001 10.5322 24.6084 10.488 24.5168C10.3639 24.2598 10.2408 24.0022 10.1189 23.7437C10.0119 23.517 9.90305 23.2916 9.79432 23.066C9.74389 22.9614 9.69365 22.8566 9.64361 22.7517C9.53899 22.5325 9.43316 22.3141 9.32709 22.0958C9.31896 22.0791 9.31082 22.0623 9.30244 22.0451C9.1893 21.8123 9.07475 21.5807 8.95921 21.3496C8.84095 21.1129 8.7275 20.8736 8.61651 20.6322C8.5381 20.4621 8.45644 20.2949 8.37215 20.1287C8.28659 19.9594 8.20461 19.7878 8.12299 19.6159C8.0026 19.3622 7.88094 19.1095 7.75807 18.8575C7.56451 18.4604 7.3718 18.0627 7.18215 17.6631C7.02979 17.3421 6.87523 17.0229 6.71705 16.7058C6.59284 16.4567 6.47223 16.2055 6.35273 15.9532C6.20261 15.6365 6.05153 15.3207 5.89504 15.0083C5.76506 14.7485 5.64006 14.4859 5.51677 14.2217C5.35297 13.8708 5.18438 13.5234 5.01467 13.1764C4.99999 13.1464 4.9853 13.1164 4.97018 13.0854C4.96222 13.0692 4.95426 13.0529 4.94605 13.0361C4.84887 12.8373 4.753 12.6379 4.65992 12.4364C4.55918 12.2203 4.4561 12.0058 4.35114 11.7925C4.33795 11.7655 4.32477 11.7384 4.31119 11.7105C4.04038 11.1626 4.04039 11.1626 3.60062 10.8222C3.49792 10.7934 3.39403 10.7922 3.28887 10.7912C3.25632 10.7907 3.25632 10.7907 3.22312 10.7903C2.98769 10.796 2.8023 10.8864 2.63234 11.0772C2.38196 11.4025 2.30809 11.7595 2.31063 12.1887C2.31052 12.2292 2.31037 12.2697 2.31018 12.3102C2.30978 12.4211 2.30997 12.5319 2.31025 12.6428C2.31046 12.7636 2.31011 12.8844 2.30983 13.0052C2.30943 13.2168 2.30937 13.4283 2.30954 13.6399C2.30979 13.9544 2.3095 14.269 2.3091 14.5836C2.30845 15.1128 2.30823 15.642 2.30826 16.1712C2.30829 16.6951 2.30813 17.219 2.30771 17.743C2.30768 17.7755 2.30765 17.8081 2.30763 17.8417C2.30749 18.0072 2.30735 18.1726 2.30721 18.3381C2.30624 19.51 2.30569 20.6819 2.30541 21.8537C2.30513 22.9922 2.30465 24.1306 2.30391 25.269C2.30387 25.3217 2.30387 25.3217 2.30384 25.3754C2.30361 25.7278 2.30337 26.0803 2.30314 26.4327C2.30265 27.1506 2.3022 27.8686 2.30176 28.5865C2.30173 28.636 2.30173 28.636 2.3017 28.6865C2.30065 30.3944 2.3 32.1023 2.29945 33.8101C2.29944 33.8342 2.29943 33.8582 2.29943 33.8829C2.29927 34.3549 2.29914 34.827 2.299 35.299C1.54232 35.299 0.785649 35.299 0.0060438 35.299C0.00566062 34.225 0.00566062 34.225 0.00551862 33.8084C0.00550978 33.7824 0.00550104 33.7565 0.00549193 33.7298C0.00490745 32.0127 0.00437916 30.2956 0.00404193 28.5786C0.0040354 28.5454 0.00402881 28.5123 0.00402209 28.4781C0.00388059 27.7577 0.00374977 27.0374 0.00362965 26.317C0.00357068 25.9637 0.00350929 25.6104 0.00344677 25.2572C0.00344059 25.222 0.00343439 25.1869 0.00342802 25.1506C0.00322651 24.0109 0.00287154 22.8712 0.00243682 21.7315C0.00199095 20.5604 0.00169957 19.3894 0.00160361 18.2183C0.00158998 18.0529 0.00157463 17.8876 0.00155816 17.7222C0.00155497 17.6896 0.0015517 17.6571 0.00154842 17.6236C0.00149252 17.0994 0.00127323 16.5753 0.000992943 16.0511C0.000714724 15.5243 0.000608327 14.9975 0.000677693 14.4707C0.000713684 14.1576 0.000617603 13.8446 0.000332865 13.5315C0.000155654 13.3224 0.000149877 13.1133 0.00028381 12.9041C0.000355219 12.785 0.000351976 12.6658 0.000139531 12.5466C-5.24626e-05 12.4381 -2.44439e-05 12.3296 0.000174879 12.2211C0.000208504 12.1822 0.000163623 12.1433 2.8436e-05 12.1044C-0.00073382 11.87 0.0137472 11.6492 0.0533212 11.4194C0.0570994 11.3967 0.0608775 11.374 0.0647702 11.3506C0.0891657 11.2061 0.118012 11.0627 0.147876 10.9196C0.151731 10.901 0.155585 10.8824 0.159557 10.8632C0.32727 10.0832 0.765931 9.34976 1.30617 8.86485C1.32629 8.84635 1.3464 8.82784 1.36712 8.80878C2.28768 7.98807 3.55759 7.76275 4.61559 8.33728Z" fill="white"/>
<path d="M112.016 40.1182C112.481 40.1182 112.947 40.1182 113.427 40.1182C113.427 42.2347 113.427 44.3512 113.427 46.5319C114.005 46.4079 114.544 46.2861 115.094 46.0829C115.151 46.0622 115.151 46.0622 115.208 46.0411C115.836 45.7939 116.402 45.4194 116.905 44.9726C116.955 44.9281 117.005 44.8842 117.055 44.8403C117.269 44.6516 117.453 44.449 117.628 44.2229C117.667 44.1745 117.667 44.1745 117.707 44.125C118.017 43.7376 118.252 43.3145 118.466 42.868C118.489 42.8207 118.513 42.7738 118.537 42.7271C118.762 42.2733 118.882 41.7691 118.954 41.2706C118.959 41.2366 118.964 41.2026 118.97 41.1675C119.016 40.8167 119.022 40.4751 119.039 40.1182C119.525 40.1182 120.012 40.1182 120.514 40.1182C120.514 40.6966 120.514 40.6966 120.49 40.9018C120.488 40.9241 120.485 40.9464 120.483 40.9693C120.477 41.0154 120.472 41.0615 120.466 41.1076C120.458 41.1764 120.45 41.2452 120.442 41.314C120.406 41.6288 120.341 41.9292 120.257 42.2347C120.246 42.2785 120.246 42.2785 120.234 42.3231C119.895 43.602 119.18 44.7493 118.269 45.6981C118.242 45.7269 118.214 45.7557 118.186 45.7853C118.001 45.9751 117.804 46.1436 117.596 46.3074C117.565 46.3324 117.534 46.3574 117.502 46.3832C116.881 46.8768 116.172 47.2985 115.414 47.538C115.353 47.5575 115.292 47.5785 115.232 47.5996C114.145 47.9769 113.197 48.007 112.016 48.007C112.016 45.4037 112.016 42.8004 112.016 40.1182Z" fill="#2BABA2"/>
<path d="M116.808 42.0031C117.124 42.2636 117.337 42.6279 117.378 43.0387C117.409 43.5402 117.287 43.9544 116.962 44.3451C116.774 44.5468 116.536 44.6698 116.281 44.768C116.252 44.7792 116.223 44.7905 116.194 44.8021C115.816 44.9101 115.324 44.8449 114.981 44.659C114.581 44.4003 114.299 44.0161 114.196 43.5494C114.15 42.9919 114.248 42.5822 114.6 42.1384C115.186 41.4981 116.139 41.5152 116.808 42.0031Z" fill="#2CABA2"/>
<path d="M141.194 43.212C141.389 43.3512 141.559 43.5005 141.679 43.7095C141.738 43.6524 141.796 43.5954 141.847 43.5307C142.089 43.2257 142.387 43.0707 142.769 43.004C143.217 42.954 143.596 43.0499 143.956 43.3247C143.975 43.3377 143.994 43.3507 144.014 43.3641C144.334 43.5986 144.495 44.0393 144.565 44.4151C144.585 44.602 144.58 44.7902 144.578 44.978C144.577 45.0306 144.577 45.0831 144.577 45.1357C144.576 45.2725 144.575 45.4092 144.574 45.5459C144.572 45.6861 144.572 45.8263 144.571 45.9665C144.57 46.2404 144.568 46.5143 144.565 46.7881C144.396 46.7881 144.226 46.7881 144.052 46.7881C144.051 46.6904 144.051 46.6904 144.05 46.5906C144.049 46.374 144.047 46.1575 144.044 45.9409C144.043 45.8097 144.042 45.6786 144.041 45.5474C144.04 45.4205 144.039 45.2937 144.037 45.1669C144.037 45.1187 144.036 45.0706 144.036 45.0225C144.034 44.5929 143.988 44.1262 143.667 43.8057C143.367 43.6032 143.129 43.5504 142.769 43.5813C142.515 43.6508 142.341 43.8183 142.192 44.0302C142 44.3662 141.989 44.7073 141.986 45.0845C141.986 45.1337 141.985 45.183 141.984 45.2322C141.983 45.3611 141.981 45.4899 141.98 45.6187C141.979 45.7505 141.977 45.8823 141.976 46.0141C141.973 46.2721 141.97 46.5301 141.967 46.7881C141.788 46.7881 141.608 46.7881 141.422 46.7881C141.422 46.7223 141.422 46.6565 141.421 46.5887C141.42 46.3697 141.418 46.1507 141.416 45.9317C141.415 45.7991 141.414 45.6665 141.414 45.5339C141.413 45.4056 141.412 45.2773 141.41 45.149C141.41 45.1004 141.41 45.0517 141.41 45.0031C141.409 44.5657 141.353 44.1359 141.037 43.8057C140.75 43.5916 140.491 43.5511 140.14 43.5813C139.861 43.6574 139.663 43.8572 139.52 44.1029C139.365 44.4283 139.359 44.7596 139.357 45.1127C139.356 45.1611 139.355 45.2096 139.355 45.2581C139.353 45.3848 139.352 45.5115 139.351 45.6382C139.349 45.7678 139.348 45.8974 139.346 46.0271C139.343 46.2807 139.34 46.5344 139.338 46.7881C139.158 46.7881 138.978 46.7881 138.793 46.7881C138.79 46.5157 138.789 46.2434 138.788 45.971C138.787 45.8444 138.786 45.7179 138.785 45.5914C138.784 45.4689 138.784 45.3464 138.784 45.224C138.783 45.1776 138.783 45.1313 138.782 45.0849C138.775 44.4353 138.916 43.8669 139.36 43.3808C139.839 42.92 140.632 42.8688 141.194 43.212Z" fill="#D4D4D8"/>
<path d="M122.919 41.657C123.088 41.657 123.258 41.657 123.432 41.657C123.443 42.4295 123.453 43.2021 123.464 43.998C123.801 44.0632 123.801 44.0632 124.138 44.0622C124.211 43.9995 124.256 43.9515 124.312 43.8758C124.327 43.8568 124.342 43.8378 124.357 43.8182C124.388 43.7793 124.418 43.7402 124.448 43.7009C124.508 43.6227 124.57 43.5468 124.633 43.4709C124.656 43.4424 124.679 43.4138 124.703 43.3844C124.79 43.2797 124.878 43.1769 124.967 43.074C125.111 42.9076 125.249 42.7372 125.383 42.5633C125.506 42.4056 125.634 42.2527 125.767 42.1037C125.84 42.022 125.899 41.9501 125.951 41.8533C125.999 41.7623 126.043 41.7178 126.126 41.657C126.207 41.6411 126.207 41.6411 126.296 41.6396C126.328 41.639 126.36 41.6383 126.393 41.6377C126.54 41.6396 126.685 41.6461 126.831 41.657C126.738 41.8034 126.635 41.9335 126.521 42.0639C126.404 42.1986 126.288 42.334 126.176 42.4727C126.059 42.6165 125.939 42.7563 125.817 42.8957C125.689 43.0422 125.566 43.19 125.448 43.345C125.368 43.4463 125.284 43.5436 125.2 43.6412C125.077 43.7835 124.955 43.9259 124.835 44.0702C124.812 44.0981 124.788 44.1261 124.764 44.1548C124.708 44.2171 124.708 44.2171 124.715 44.2866C124.764 44.3094 124.764 44.3094 124.814 44.3326C125.752 44.7793 126.263 45.5537 126.759 46.4352C126.78 46.4718 126.78 46.4718 126.801 46.509C126.895 46.6801 126.895 46.6801 126.895 46.788C126.694 46.788 126.493 46.788 126.286 46.788C126.264 46.7462 126.241 46.7043 126.218 46.6612C125.85 45.9817 125.463 45.3278 124.779 44.928C124.755 44.912 124.732 44.8961 124.708 44.8797C124.579 44.8106 124.444 44.7748 124.304 44.7356C124.263 44.7237 124.263 44.7237 124.222 44.7115C123.959 44.6371 123.704 44.5941 123.432 44.5432C123.432 45.284 123.432 46.0248 123.432 46.788C123.263 46.788 123.093 46.788 122.919 46.788C122.919 45.0948 122.919 43.4015 122.919 41.657Z" fill="#D4D4D8"/>
<path d="M127.345 41.6572C127.525 41.6572 127.705 41.6572 127.89 41.6572C127.9 42.2816 127.911 42.906 127.922 43.5493C128.017 43.454 128.112 43.3588 128.211 43.2607C128.31 43.1963 128.393 43.1466 128.499 43.1003C128.522 43.0901 128.546 43.0799 128.569 43.0694C128.929 42.9373 129.341 42.9607 129.688 43.115C130.056 43.3088 130.307 43.5577 130.497 43.9261C130.513 43.9558 130.513 43.9558 130.529 43.9862C130.706 44.3485 130.726 44.7294 130.721 45.1253C130.721 45.1736 130.721 45.2219 130.721 45.2702C130.721 45.3958 130.72 45.5214 130.719 45.647C130.718 45.7758 130.717 45.9046 130.717 46.0334C130.716 46.285 130.714 46.5366 130.712 46.7882C130.521 46.7882 130.331 46.7882 130.135 46.7882C130.134 46.724 130.134 46.6598 130.133 46.5936C130.132 46.3803 130.13 46.1669 130.127 45.9535C130.126 45.8243 130.124 45.6951 130.124 45.5658C130.123 45.4409 130.121 45.3159 130.12 45.1909C130.119 45.1435 130.119 45.0961 130.119 45.0487C130.117 44.604 130.061 44.2115 129.756 43.8687C129.544 43.6672 129.318 43.5755 129.026 43.5673C128.706 43.5793 128.472 43.6731 128.243 43.902C127.959 44.2664 127.903 44.6744 127.902 45.1221C127.902 45.1705 127.901 45.2188 127.901 45.2672C127.899 45.3931 127.899 45.5189 127.898 45.6448C127.898 45.7738 127.896 45.9028 127.895 46.0318C127.893 46.284 127.891 46.5361 127.89 46.7882C127.71 46.7882 127.53 46.7882 127.345 46.7882C127.345 45.095 127.345 43.4018 127.345 41.6572Z" fill="#C2C2C2"/>
<path d="M137.726 43.205C137.976 43.3961 138.132 43.6309 138.216 43.9345C138.227 44.0456 138.224 44.1432 138.216 44.2552C138.047 44.2552 137.877 44.2552 137.703 44.2552C137.658 44.143 137.628 44.0513 137.601 43.9365C137.548 43.7616 137.471 43.6778 137.318 43.5817C137.298 43.5685 137.279 43.5553 137.258 43.5416C137.008 43.4017 136.664 43.4085 136.391 43.4769C136.205 43.5533 136.082 43.6713 135.971 43.8383C135.955 44.006 135.976 44.1133 136.067 44.2552C136.333 44.5205 136.741 44.5724 137.093 44.6512C137.503 44.7437 137.868 44.8583 138.12 45.2172C138.255 45.4464 138.285 45.6851 138.229 45.9444C138.145 46.2148 137.988 46.433 137.747 46.5854C137.669 46.6251 137.592 46.6601 137.51 46.6924C137.485 46.7036 137.46 46.7149 137.435 46.7264C136.978 46.8887 136.374 46.8148 135.94 46.6168C135.603 46.4271 135.403 46.1691 135.288 45.8005C135.266 45.6982 135.266 45.6982 135.266 45.5379C135.446 45.5379 135.625 45.5379 135.811 45.5379C135.827 45.5968 135.843 45.6556 135.859 45.7163C135.926 45.9168 136.012 46.0398 136.196 46.1472C136.405 46.2448 136.587 46.26 136.817 46.2594C136.848 46.2604 136.88 46.2613 136.912 46.2622C137.142 46.2628 137.319 46.2132 137.51 46.0831C137.624 45.9635 137.649 45.843 137.661 45.6802C137.655 45.5569 137.643 45.4843 137.553 45.3976C137.253 45.1911 136.879 45.1172 136.532 45.0322C136.084 44.9213 135.707 44.7952 135.458 44.3834C135.35 44.1643 135.356 43.8829 135.419 43.6495C135.546 43.3618 135.798 43.1467 136.087 43.0287C136.636 42.8558 137.234 42.8848 137.726 43.205Z" fill="#C2C2C2"/>
<path d="M120.068 45.8016C120.352 46.0457 120.503 46.2871 120.546 46.6597C120.549 46.6827 120.551 46.7057 120.554 46.7295C120.571 47.0252 120.47 47.3391 120.279 47.565C120.261 47.5837 120.244 47.6025 120.225 47.6217C120.198 47.6513 120.198 47.6513 120.17 47.6815C119.927 47.9165 119.646 48.0216 119.311 48.0266C118.962 48.021 118.683 47.9052 118.429 47.6618C118.324 47.542 118.244 47.4114 118.173 47.269C118.161 47.2456 118.149 47.2222 118.137 47.1981C118.04 46.889 118.067 46.5096 118.203 46.2187C118.379 45.9188 118.619 45.7262 118.943 45.6014C119.34 45.5009 119.736 45.5603 120.068 45.8016Z" fill="#2BABA2"/>
<path d="M131.385 43.0039C131.564 43.0039 131.744 43.0039 131.93 43.0039C131.93 43.0624 131.93 43.1209 131.931 43.1812C131.932 43.3767 131.933 43.5721 131.936 43.7676C131.937 43.8858 131.938 44.0041 131.938 44.1223C131.918 45.0866 131.918 45.0866 132.341 45.9228C132.631 46.2005 132.955 46.2326 133.341 46.2428C133.341 46.2217 133.341 46.2005 133.341 46.1787C133.359 46.172 133.376 46.1654 133.395 46.1585C133.71 46.0313 133.884 45.8618 134.036 45.5581C134.158 45.2221 134.189 44.897 134.191 44.5416C134.191 44.4969 134.192 44.4522 134.193 44.4075C134.194 44.2913 134.195 44.1752 134.196 44.0591C134.197 43.9399 134.198 43.8208 134.2 43.7017C134.203 43.4691 134.205 43.2365 134.207 43.0039C134.386 43.0039 134.566 43.0039 134.752 43.0039C134.753 43.269 134.754 43.5342 134.755 43.7993C134.755 43.9225 134.756 44.0456 134.757 44.1688C134.757 44.2879 134.758 44.407 134.758 44.5262C134.758 44.5713 134.758 44.6165 134.759 44.6616C134.761 45.035 134.744 45.3928 134.585 45.7358C134.571 45.7685 134.571 45.7685 134.555 45.8019C134.472 45.9799 134.375 46.1321 134.239 46.2749C134.204 46.3119 134.204 46.3119 134.168 46.3496C133.806 46.7027 133.413 46.8013 132.919 46.7969C132.506 46.7672 132.148 46.554 131.869 46.2579C131.567 45.9024 131.38 45.4641 131.381 44.9953C131.381 44.9737 131.381 44.9521 131.381 44.9298C131.381 44.8589 131.381 44.7879 131.381 44.7169C131.381 44.6676 131.381 44.6182 131.382 44.5688C131.382 44.4392 131.382 44.3095 131.382 44.1799C131.383 44.0475 131.383 43.9151 131.383 43.7826C131.383 43.5231 131.384 43.2635 131.385 43.0039Z" fill="#C2C2C2"/>
<path d="M135.81 43.2285C135.765 43.3316 135.711 43.3992 135.63 43.477C135.599 43.5066 135.599 43.5066 135.568 43.5367C135.553 43.5514 135.537 43.5661 135.521 43.5813C135.521 43.4613 135.551 43.4385 135.63 43.3508C135.65 43.3278 135.67 43.3049 135.691 43.2813C135.746 43.2285 135.746 43.2285 135.81 43.2285Z" fill="#C2C2C2"/>
</svg>
