<svg width="170" height="57" viewBox="0 0 170 57" fill="none" xmlns="http://www.w3.org/2000/svg">
<path d="M61.3613 23.3032C61.3613 23.9967 61.342 24.5264 61.3035 24.8923H48.215C48.2728 26.0866 48.5617 27.1075 49.0818 27.955C49.6018 28.8025 50.2856 29.4478 51.1332 29.8908C51.9807 30.3146 52.9053 30.5265 53.9069 30.5265C55.2167 30.5265 56.3146 30.2086 57.2007 29.573C58.106 28.9374 58.7031 28.0802 58.992 27.0015H61.1301C60.7449 28.5425 59.9166 29.8041 58.6453 30.7865C57.3933 31.7496 55.8138 32.2311 53.9069 32.2311C52.4237 32.2311 51.0946 31.9037 49.9197 31.2488C48.7447 30.5746 47.8201 29.6308 47.146 28.4173C46.491 27.1845 46.1636 25.7495 46.1636 24.1122C46.1636 22.475 46.491 21.04 47.146 19.8072C47.8009 18.5744 48.7158 17.6306 49.8908 16.9757C51.0658 16.3208 52.4045 15.9933 53.9069 15.9933C55.4093 15.9933 56.7191 16.3208 57.8363 16.9757C58.9728 17.6306 59.8396 18.5166 60.4367 19.6338C61.0531 20.7318 61.3613 21.9549 61.3613 23.3032ZM59.3099 23.2454C59.3291 22.0705 59.0884 21.0689 58.5875 20.2406C58.106 19.4123 57.4415 18.7863 56.5939 18.3625C55.7464 17.9388 54.8218 17.7269 53.8202 17.7269C52.3178 17.7269 51.0369 18.2085 49.9775 19.1715C48.9181 20.1346 48.3306 21.4926 48.215 23.2454H59.3099ZM64.137 24.0833C64.137 22.4653 64.4645 21.0496 65.1194 19.8361C65.7743 18.6033 66.67 17.6595 67.8064 17.0046C68.9621 16.3304 70.2623 15.9933 71.707 15.9933C73.0938 15.9933 74.3458 16.3304 75.463 17.0046C76.5802 17.6787 77.3989 18.5552 77.9189 19.6338V10.6192H79.9414V32H77.9189V28.4751C77.4374 29.573 76.6476 30.4783 75.5497 31.191C74.4518 31.8844 73.1612 32.2311 71.6781 32.2311C70.2334 32.2311 68.9332 31.8941 67.7775 31.2199C66.6411 30.5457 65.7454 29.5923 65.0905 28.3595C64.4548 27.1267 64.137 25.7013 64.137 24.0833ZM77.9189 24.1122C77.9189 22.8409 77.6589 21.7238 77.1388 20.7607C76.6187 19.7976 75.9061 19.056 75.0007 18.5359C74.1147 18.0158 73.1323 17.7558 72.0537 17.7558C70.9365 17.7558 69.9349 18.0062 69.0488 18.507C68.1628 19.0078 67.4597 19.7398 66.9396 20.7029C66.4388 21.6467 66.1884 22.7735 66.1884 24.0833C66.1884 25.3739 66.4388 26.5103 66.9396 27.4927C67.4597 28.4558 68.1628 29.1974 69.0488 29.7175C69.9349 30.2183 70.9365 30.4687 72.0537 30.4687C73.1323 30.4687 74.1147 30.2086 75.0007 29.6886C75.9061 29.1685 76.6187 28.4269 77.1388 27.4638C77.6589 26.5007 77.9189 25.3835 77.9189 24.1122ZM85.5699 13.2485C85.1654 13.2485 84.8187 13.104 84.5298 12.8151C84.2408 12.5262 84.0964 12.1698 84.0964 11.7461C84.0964 11.3223 84.2408 10.9756 84.5298 10.7059C84.8187 10.417 85.1654 10.2725 85.5699 10.2725C85.9744 10.2725 86.3211 10.417 86.6101 10.7059C86.899 10.9756 87.0434 11.3223 87.0434 11.7461C87.0434 12.1698 86.899 12.5262 86.6101 12.8151C86.3211 13.104 85.9744 13.2485 85.5699 13.2485ZM86.5812 16.2245V32H84.5587V16.2245H86.5812ZM90.2366 24.1122C90.2366 22.475 90.564 21.0496 91.2189 19.8361C91.8738 18.6033 92.7791 17.6595 93.9349 17.0046C95.0906 16.3304 96.41 15.9933 97.8932 15.9933C99.8386 15.9933 101.437 16.4749 102.689 17.438C103.961 18.4011 104.779 19.7109 105.145 21.3674H102.978C102.709 20.231 102.121 19.3449 101.216 18.7093C100.33 18.0544 99.2223 17.7269 97.8932 17.7269C96.8338 17.7269 95.8803 17.9677 95.0328 18.4492C94.1853 18.9308 93.5111 19.6531 93.0103 20.6162C92.5287 21.56 92.288 22.7254 92.288 24.1122C92.288 25.4991 92.5287 26.6741 93.0103 27.6372C93.5111 28.6003 94.1853 29.3226 95.0328 29.8041C95.8803 30.2857 96.8338 30.5265 97.8932 30.5265C99.2223 30.5265 100.33 30.2086 101.216 29.573C102.121 28.9181 102.709 28.0128 102.978 26.8571H105.145C104.779 28.4751 103.961 29.7752 102.689 30.7576C101.418 31.74 99.8194 32.2311 97.8932 32.2311C96.41 32.2311 95.0906 31.9037 93.9349 31.2488C92.7791 30.5746 91.8738 29.6308 91.2189 28.4173C90.564 27.1845 90.2366 25.7495 90.2366 24.1122ZM107.956 24.0833C107.956 22.4653 108.274 21.0496 108.91 19.8361C109.564 18.6033 110.46 17.6595 111.597 17.0046C112.752 16.3304 114.052 15.9933 115.497 15.9933C117 15.9933 118.29 16.34 119.369 17.0335C120.467 17.7269 121.256 18.613 121.738 19.6916V16.2245H123.76V32H121.738V28.504C121.237 29.5826 120.438 30.4783 119.34 31.191C118.261 31.8844 116.971 32.2311 115.468 32.2311C114.043 32.2311 112.752 31.8941 111.597 31.2199C110.46 30.5457 109.564 29.5923 108.91 28.3595C108.274 27.1267 107.956 25.7013 107.956 24.0833ZM121.738 24.1122C121.738 22.8409 121.478 21.7238 120.958 20.7607C120.438 19.7976 119.725 19.056 118.82 18.5359C117.934 18.0158 116.951 17.7558 115.873 17.7558C114.756 17.7558 113.754 18.0062 112.868 18.507C111.982 19.0078 111.279 19.7398 110.759 20.7029C110.258 21.6467 110.007 22.7735 110.007 24.0833C110.007 25.3739 110.258 26.5103 110.759 27.4927C111.279 28.4558 111.982 29.1974 112.868 29.7175C113.754 30.2183 114.756 30.4687 115.873 30.4687C116.951 30.4687 117.934 30.2086 118.82 29.6886C119.725 29.1685 120.438 28.4269 120.958 27.4638C121.478 26.5007 121.738 25.3835 121.738 24.1122ZM130.4 19.0271C130.843 18.0447 131.517 17.2839 132.423 16.7445C133.347 16.2052 134.474 15.9355 135.803 15.9355V18.0447H135.254C133.79 18.0447 132.615 18.4396 131.729 19.2293C130.843 20.0191 130.4 21.3385 130.4 23.1877V32H128.378V16.2245H130.4V19.0271ZM137.921 24.0833C137.921 22.4653 138.249 21.0496 138.903 19.8361C139.558 18.6033 140.454 17.6595 141.591 17.0046C142.746 16.3304 144.046 15.9933 145.491 15.9933C146.878 15.9933 148.13 16.3304 149.247 17.0046C150.364 17.6787 151.183 18.5552 151.703 19.6338V10.6192H153.726V32H151.703V28.4751C151.222 29.573 150.432 30.4783 149.334 31.191C148.236 31.8844 146.945 32.2311 145.462 32.2311C144.018 32.2311 142.717 31.8941 141.562 31.2199C140.425 30.5457 139.53 29.5923 138.875 28.3595C138.239 27.1267 137.921 25.7013 137.921 24.0833ZM151.703 24.1122C151.703 22.8409 151.443 21.7238 150.923 20.7607C150.403 19.7976 149.69 19.056 148.785 18.5359C147.899 18.0158 146.916 17.7558 145.838 17.7558C144.721 17.7558 143.719 18.0062 142.833 18.507C141.947 19.0078 141.244 19.7398 140.724 20.7029C140.223 21.6467 139.973 22.7735 139.973 24.0833C139.973 25.3739 140.223 26.5103 140.724 27.4927C141.244 28.4558 141.947 29.1974 142.833 29.7175C143.719 30.2183 144.721 30.4687 145.838 30.4687C146.916 30.4687 147.899 30.2086 148.785 29.6886C149.69 29.1685 150.403 28.4269 150.923 27.4638C151.443 26.5007 151.703 25.3835 151.703 24.1122Z" fill="#0F1F3D"/>
<path d="M45.9895 52V43.8283H48.7507C49.3918 43.8283 49.9158 43.944 50.3228 44.1754C50.7324 44.4042 51.0357 44.7141 51.2325 45.1051C51.4294 45.4961 51.5278 45.9324 51.5278 46.4139C51.5278 46.8953 51.4294 47.3329 51.2325 47.7266C51.0384 48.1203 50.7378 48.4342 50.3308 48.6683C49.9238 48.8997 49.4024 49.0154 48.7667 49.0154H46.7876V48.1376H48.7347C49.1736 48.1376 49.5261 48.0618 49.7921 47.9101C50.0581 47.7585 50.251 47.5537 50.3707 47.2957C50.493 47.035 50.5542 46.741 50.5542 46.4139C50.5542 46.0867 50.493 45.7941 50.3707 45.536C50.251 45.278 50.0568 45.0758 49.7881 44.9295C49.5195 44.7806 49.163 44.7061 48.7188 44.7061H46.9791V52H45.9895ZM55.4182 52.1277C54.8649 52.1277 54.3794 51.996 53.9618 51.7327C53.5468 51.4693 53.2223 51.1009 52.9882 50.6274C52.7568 50.1539 52.641 49.6006 52.641 48.9675C52.641 48.3291 52.7568 47.7718 52.9882 47.2957C53.2223 46.8195 53.5468 46.4498 53.9618 46.1864C54.3794 45.9231 54.8649 45.7914 55.4182 45.7914C55.9715 45.7914 56.4556 45.9231 56.8706 46.1864C57.2882 46.4498 57.6127 46.8195 57.8441 47.2957C58.0782 47.7718 58.1953 48.3291 58.1953 48.9675C58.1953 49.6006 58.0782 50.1539 57.8441 50.6274C57.6127 51.1009 57.2882 51.4693 56.8706 51.7327C56.4556 51.996 55.9715 52.1277 55.4182 52.1277ZM55.4182 51.2818C55.8384 51.2818 56.1843 51.174 56.4556 50.9586C56.7269 50.7431 56.9277 50.4598 57.0581 50.1087C57.1884 49.7576 57.2536 49.3772 57.2536 48.9675C57.2536 48.5579 57.1884 48.1762 57.0581 47.8224C56.9277 47.4686 56.7269 47.1826 56.4556 46.9645C56.1843 46.7464 55.8384 46.6373 55.4182 46.6373C54.9979 46.6373 54.6521 46.7464 54.3807 46.9645C54.1094 47.1826 53.9086 47.4686 53.7782 47.8224C53.6479 48.1762 53.5827 48.5579 53.5827 48.9675C53.5827 49.3772 53.6479 49.7576 53.7782 50.1087C53.9086 50.4598 54.1094 50.7431 54.3807 50.9586C54.6521 51.174 54.9979 51.2818 55.4182 51.2818ZM60.8128 52L58.9454 45.8712H59.935L61.2597 50.5636H61.3235L62.6323 45.8712H63.6378L64.9306 50.5476H64.9944L66.3191 45.8712H67.3087L65.4413 52H64.5156L63.1749 47.2917H63.0792L61.7385 52H60.8128ZM70.9147 52.1277C70.3242 52.1277 69.8148 51.9973 69.3865 51.7367C68.9609 51.4733 68.6324 51.1062 68.401 50.6354C68.1722 50.1619 68.0578 49.6113 68.0578 48.9835C68.0578 48.3557 68.1722 47.8024 68.401 47.3236C68.6324 46.8421 68.9543 46.4671 69.3666 46.1984C69.7815 45.9271 70.2657 45.7914 70.819 45.7914C71.1382 45.7914 71.4534 45.8446 71.7646 45.951C72.0758 46.0574 72.3591 46.2303 72.6145 46.4697C72.8699 46.7065 73.0734 47.0204 73.225 47.4114C73.3766 47.8024 73.4524 48.2839 73.4524 48.8558V49.2548H68.7281V48.4408H72.4948C72.4948 48.095 72.4256 47.7865 72.2873 47.5151C72.1517 47.2438 71.9575 47.0297 71.7048 46.8727C71.4547 46.7158 71.1594 46.6373 70.819 46.6373C70.4439 46.6373 70.1194 46.7304 69.8454 46.9166C69.574 47.1002 69.3652 47.3396 69.2189 47.6348C69.0726 47.9301 68.9995 48.2466 68.9995 48.5845V49.1271C68.9995 49.59 69.0793 49.9823 69.2389 50.3042C69.4011 50.6234 69.6259 50.8668 69.9132 51.0344C70.2005 51.1993 70.5343 51.2818 70.9147 51.2818C71.1621 51.2818 71.3856 51.2472 71.5851 51.178C71.7872 51.1062 71.9615 50.9998 72.1078 50.8588C72.2541 50.7152 72.3671 50.537 72.4469 50.3242L73.3567 50.5795C73.2609 50.8881 73.1 51.1594 72.8739 51.3935C72.6478 51.6249 72.3684 51.8058 72.0359 51.9362C71.7034 52.0638 71.3297 52.1277 70.9147 52.1277ZM74.8849 52V45.8712H75.7946V46.7969H75.8585C75.9702 46.4937 76.1723 46.2476 76.465 46.0587C76.7576 45.8699 77.0874 45.7754 77.4545 45.7754C77.5237 45.7754 77.6101 45.7768 77.7139 45.7794C77.8176 45.7821 77.8961 45.7861 77.9493 45.7914V46.749C77.9174 46.741 77.8442 46.7291 77.7298 46.7131C77.6181 46.6945 77.4997 46.6852 77.3747 46.6852C77.0768 46.6852 76.8108 46.7477 76.5767 46.8727C76.3453 46.9951 76.1617 47.1653 76.026 47.3835C75.893 47.5989 75.8265 47.845 75.8265 48.1216V52H74.8849ZM81.4486 52.1277C80.8581 52.1277 80.3487 51.9973 79.9204 51.7367C79.4948 51.4733 79.1663 51.1062 78.9348 50.6354C78.7061 50.1619 78.5917 49.6113 78.5917 48.9835C78.5917 48.3557 78.7061 47.8024 78.9348 47.3236C79.1663 46.8421 79.4881 46.4671 79.9004 46.1984C80.3154 45.9271 80.7995 45.7914 81.3528 45.7914C81.672 45.7914 81.9873 45.8446 82.2985 45.951C82.6097 46.0574 82.893 46.2303 83.1484 46.4697C83.4037 46.7065 83.6072 47.0204 83.7589 47.4114C83.9105 47.8024 83.9863 48.2839 83.9863 48.8558V49.2548H79.262V48.4408H83.0287C83.0287 48.095 82.9595 47.7865 82.8212 47.5151C82.6855 47.2438 82.4913 47.0297 82.2386 46.8727C81.9886 46.7158 81.6933 46.6373 81.3528 46.6373C80.9778 46.6373 80.6532 46.7304 80.3792 46.9166C80.1079 47.1002 79.8991 47.3396 79.7528 47.6348C79.6065 47.9301 79.5333 48.2466 79.5333 48.5845V49.1271C79.5333 49.59 79.6131 49.9823 79.7728 50.3042C79.935 50.6234 80.1598 50.8668 80.4471 51.0344C80.7344 51.1993 81.0682 51.2818 81.4486 51.2818C81.696 51.2818 81.9194 51.2472 82.1189 51.178C82.3211 51.1062 82.4953 50.9998 82.6416 50.8588C82.7879 50.7152 82.901 50.537 82.9808 50.3242L83.8905 50.5795C83.7948 50.8881 83.6338 51.1594 83.4077 51.3935C83.1816 51.6249 82.9023 51.8058 82.5698 51.9362C82.2373 52.0638 81.8636 52.1277 81.4486 52.1277ZM87.733 52.1277C87.2223 52.1277 86.7714 51.9987 86.3804 51.7406C85.9893 51.48 85.6834 51.1129 85.4626 50.6394C85.2419 50.1632 85.1315 49.6006 85.1315 48.9516C85.1315 48.3078 85.2419 47.7492 85.4626 47.2757C85.6834 46.8022 85.9907 46.4365 86.3844 46.1784C86.778 45.9204 87.2329 45.7914 87.749 45.7914C88.148 45.7914 88.4632 45.8579 88.6946 45.9909C88.9287 46.1212 89.1069 46.2702 89.2293 46.4378C89.3543 46.6027 89.4514 46.7384 89.5206 46.8448H89.6004V43.8283H90.542V52H89.6323V51.0583H89.5206C89.4514 51.1701 89.353 51.311 89.2253 51.4813C89.0976 51.6489 88.9154 51.7992 88.6787 51.9322C88.4419 52.0625 88.1267 52.1277 87.733 52.1277ZM87.8607 51.2818C88.2384 51.2818 88.5576 51.1834 88.8183 50.9865C89.079 50.787 89.2772 50.5117 89.4128 50.1606C89.5485 49.8068 89.6163 49.3985 89.6163 48.9356C89.6163 48.4781 89.5498 48.0777 89.4168 47.7346C89.2838 47.3888 89.087 47.1201 88.8263 46.9286C88.5656 46.7344 88.2437 46.6373 87.8607 46.6373C87.4617 46.6373 87.1292 46.7397 86.8632 46.9445C86.5998 47.1467 86.4016 47.422 86.2686 47.7705C86.1383 48.1163 86.0731 48.5047 86.0731 48.9356C86.0731 49.3719 86.1396 49.7682 86.2726 50.1247C86.4083 50.4784 86.6078 50.7604 86.8711 50.9706C87.1372 51.178 87.467 51.2818 87.8607 51.2818ZM95.6853 52V43.8283H96.6269V46.8448H96.7067C96.7759 46.7384 96.8717 46.6027 96.994 46.4378C97.1191 46.2702 97.2973 46.1212 97.5287 45.9909C97.7628 45.8579 98.0793 45.7914 98.4784 45.7914C98.9944 45.7914 99.4493 45.9204 99.843 46.1784C100.237 46.4365 100.544 46.8022 100.765 47.2757C100.985 47.7492 101.096 48.3078 101.096 48.9516C101.096 49.6006 100.985 50.1632 100.765 50.6394C100.544 51.1129 100.238 51.48 99.847 51.7406C99.4559 51.9987 99.005 52.1277 98.4943 52.1277C98.1006 52.1277 97.7854 52.0625 97.5487 51.9322C97.3119 51.7992 97.1297 51.6489 97.002 51.4813C96.8743 51.311 96.7759 51.1701 96.7067 51.0583H96.595V52H95.6853ZM96.611 48.9356C96.611 49.3985 96.6788 49.8068 96.8145 50.1606C96.9501 50.5117 97.1483 50.787 97.409 50.9865C97.6697 51.1834 97.9889 51.2818 98.3666 51.2818C98.7603 51.2818 99.0888 51.178 99.3522 50.9706C99.6182 50.7604 99.8177 50.4784 99.9507 50.1247C100.086 49.7682 100.154 49.3719 100.154 48.9356C100.154 48.5047 100.088 48.1163 99.9547 47.7705C99.8243 47.422 99.6262 47.1467 99.3602 46.9445C99.0968 46.7397 98.7656 46.6373 98.3666 46.6373C97.9836 46.6373 97.6617 46.7344 97.401 46.9286C97.1403 47.1201 96.9435 47.3888 96.8105 47.7346C96.6775 48.0777 96.611 48.4781 96.611 48.9356ZM102.923 54.2983C102.764 54.2983 102.621 54.285 102.496 54.2584C102.371 54.2345 102.285 54.2105 102.237 54.1866L102.476 53.3566C102.705 53.4152 102.907 53.4364 103.083 53.4205C103.258 53.4045 103.414 53.326 103.55 53.1851C103.688 53.0467 103.814 52.822 103.929 52.5107L104.104 52.0319L101.838 45.8712H102.859L104.551 50.7551H104.615L106.307 45.8712H107.328L104.727 52.8938C104.61 53.2103 104.465 53.4723 104.292 53.6798C104.119 53.89 103.918 54.0456 103.689 54.1467C103.463 54.2478 103.208 54.2983 102.923 54.2983Z" fill="#B7B7B7"/>
<path d="M37.0049 5.43806C37.042 5.4549 37.0791 5.47171 37.1163 5.48849C37.4455 5.64034 37.7265 5.83835 38.0038 6.08825C38.0289 6.10997 38.0541 6.13168 38.0801 6.15405C38.3792 6.43227 38.6141 6.76754 38.8084 7.14095C38.8252 7.17324 38.842 7.20553 38.8593 7.23879C39.1786 7.90234 39.3125 8.60907 39.3112 9.35487C39.3112 9.40012 39.3112 9.44536 39.3113 9.4906C39.3114 9.61478 39.3113 9.73896 39.3112 9.86313C39.3111 9.99828 39.3111 10.1334 39.3112 10.2686C39.3112 10.5054 39.3112 10.7422 39.3111 10.979C39.3109 11.3311 39.3109 11.6832 39.3109 12.0354C39.311 12.6277 39.3109 13.22 39.3107 13.8124C39.3105 14.3989 39.3104 14.9854 39.3104 15.5719C39.3104 15.6084 39.3104 15.6449 39.3104 15.6824C39.3104 15.8676 39.3104 16.0528 39.3104 16.238C39.3103 17.5497 39.3101 18.8614 39.3099 20.1731C39.3096 21.4475 39.3094 22.7218 39.3093 23.9962C39.3093 24.0355 39.3093 24.0747 39.3093 24.1152C39.3092 24.5097 39.3092 24.9041 39.3092 25.2986C39.3091 26.1021 39.309 26.9057 39.3089 27.7092C39.3089 27.7462 39.3089 27.7831 39.3089 27.8212C39.3087 29.733 39.3084 31.6447 39.3081 33.5565C39.3081 33.5834 39.3081 33.6103 39.3081 33.638C39.308 34.1664 39.3079 34.6948 39.3078 35.2232C38.4197 35.2232 37.5315 35.2232 36.6165 35.2232C36.6163 34.899 36.6161 34.5749 36.6158 34.2409C36.6157 34.021 36.6155 33.801 36.6154 33.5811C36.6154 33.5525 36.6153 33.524 36.6153 33.4945C36.614 31.6028 36.6126 29.7111 36.6109 27.8194C36.6109 27.7647 36.6109 27.7647 36.6108 27.7088C36.6102 26.9151 36.6095 26.1214 36.6087 25.3277C36.6084 24.9385 36.6081 24.5492 36.6077 24.16C36.6077 24.1019 36.6077 24.1019 36.6076 24.0427C36.6065 22.787 36.6056 21.5314 36.6047 20.2758C36.6039 18.9856 36.6028 17.6954 36.6016 16.4052C36.6014 16.223 36.6012 16.0408 36.601 15.8586C36.601 15.8227 36.601 15.7869 36.6009 15.7499C36.6004 15.1725 36.6 14.5951 36.5997 14.0176C36.5994 13.4372 36.5989 12.8568 36.5982 12.2764C36.5978 11.9315 36.5976 11.5866 36.5975 11.2417C36.5975 11.0113 36.5972 10.7809 36.5968 10.5505C36.5966 10.4192 36.5965 10.2879 36.5966 10.1567C36.5967 10.0371 36.5965 9.9175 36.5962 9.79792C36.596 9.73498 36.5962 9.67204 36.5963 9.6091C36.5944 9.1612 36.5662 8.83812 36.2867 8.5023C36.065 8.26542 35.8364 8.20699 35.5377 8.21214C35.2696 8.22393 35.0407 8.33891 34.8514 8.55442C34.7265 8.70783 34.6277 8.87173 34.5322 9.04896C34.5168 9.07708 34.5014 9.10519 34.4856 9.13416C34.3446 9.39291 34.2067 9.65373 34.0692 9.9148C33.9844 10.0757 33.8987 10.2358 33.8126 10.3958C33.799 10.421 33.7854 10.4463 33.7714 10.4723C33.7302 10.5487 33.689 10.6251 33.6478 10.7015C33.5911 10.8067 33.5345 10.9118 33.4779 11.017C33.4641 11.0426 33.4503 11.0682 33.4361 11.0946C33.3358 11.2811 33.2367 11.4682 33.1386 11.6561C33.0528 11.82 32.9637 11.9814 32.8744 12.1429C32.7783 12.3167 32.6833 12.4912 32.5883 12.6657C32.5782 12.6843 32.568 12.7029 32.5576 12.7221C32.407 12.9989 32.2581 13.2768 32.1109 13.5559C31.9726 13.818 31.8324 14.0789 31.6918 14.3396C31.6489 14.4194 31.606 14.4992 31.5632 14.5791C31.5415 14.6196 31.5415 14.6196 31.5193 14.6608C31.4923 14.7112 31.4652 14.7617 31.4382 14.8121C31.3633 14.9516 31.2875 15.0902 31.2109 15.2285C31.1022 15.4253 30.9959 15.6237 30.8904 15.8228C30.8606 15.8791 30.8307 15.9354 30.8008 15.9917C30.7085 16.1619 30.6757 16.1814 30.5908 16.3561C30.4886 16.3391 30.4801 16.2834 30.3722 16.2243C30.2783 16.1517 30.1834 16.0847 30.0843 16.0211C29.9407 15.9288 29.799 15.8334 29.6578 15.7367C29.3341 15.5153 29.0089 15.2973 28.6811 15.0838C28.5502 14.9983 28.3936 14.9025 28.2654 14.8121C28.3069 14.6978 28.3266 14.6456 28.39 14.5232C28.4009 14.5018 28.4485 14.4011 28.4598 14.379C28.5738 14.1585 28.6963 13.9441 28.8189 13.7295C29.0131 13.3894 29.199 13.0437 29.3814 12.6956C29.5148 12.4415 29.653 12.1908 29.7913 11.94C29.8116 11.9032 29.8318 11.8664 29.8521 11.8296C29.9247 11.6977 29.9975 11.566 30.0704 11.4342C30.0987 11.3829 30.0987 11.3829 30.1277 11.3305C30.1444 11.3003 30.161 11.2702 30.1782 11.2391C30.2241 11.1553 30.2695 11.0711 30.3148 10.9867C30.3978 10.832 30.4828 10.6786 30.5681 10.5254C30.8283 10.0576 31.0852 9.5875 31.3378 9.11452C31.402 8.9951 31.4677 8.8767 31.5332 8.75816C31.6306 8.58163 31.727 8.4044 31.8233 8.22709C31.854 8.17073 31.8846 8.1144 31.9153 8.05808C32.0054 7.8926 32.0954 7.72708 32.1847 7.56111C32.8256 6.37361 33.6595 5.57224 34.8848 5.23239C35.5768 5.06284 36.3529 5.12647 37.0049 5.43806Z" fill="url(#paint0_linear_1750_2288)"/>
<ellipse cx="26.3967" cy="24.7801" rx="2.58846" ry="2.67659" fill="url(#paint1_linear_1750_2288)"/>
<ellipse cx="17.3993" cy="15.0618" rx="3.47435" ry="3.72395" fill="url(#paint2_linear_1750_2288)"/>
<path d="M5.14366 5.32308C5.16068 5.33213 5.17771 5.34118 5.19525 5.3505C6.15527 5.86491 6.69543 6.80435 7.20115 7.85067C7.26363 7.979 7.32751 8.10631 7.39148 8.23362C7.555 8.55933 7.70992 8.8894 7.86119 9.22317C7.95293 9.42485 8.0486 9.62031 8.15285 9.81342C8.20432 9.91205 8.2509 10.0131 8.29661 10.1155C8.52041 10.6163 8.76488 11.1042 9.00601 11.5937C9.11101 11.8072 9.2142 12.0217 9.31559 12.2375C9.4371 12.4959 9.56234 12.7518 9.68736 13.0079C9.72626 13.0877 9.76506 13.1675 9.80383 13.2473C9.91452 13.4753 10.0253 13.7031 10.1373 13.9301C10.3239 14.3083 10.5073 14.6881 10.6872 15.0708C10.8125 15.3367 10.9419 15.5995 11.0729 15.8615C11.1631 16.0421 11.2516 16.2234 11.3376 16.4067C11.5982 16.9681 11.5982 16.9681 11.8826 17.513C11.9462 17.6276 11.9994 17.7439 12.0505 17.8669C12.1311 18.0608 12.2193 18.2483 12.3107 18.4355C12.3237 18.4622 12.3367 18.4889 12.3501 18.5164C12.4138 18.6462 12.4785 18.7753 12.5446 18.9035C12.6353 19.0804 12.7208 19.2606 12.8062 19.4411C12.8388 19.5097 12.8714 19.5782 12.904 19.6467C12.9195 19.6794 12.935 19.712 12.951 19.7456C13.0605 19.9753 13.1709 20.2042 13.287 20.4294C13.3387 20.5297 13.3877 20.6312 13.435 20.7345C13.5219 20.9225 13.6134 21.1072 13.7052 21.2919C13.8619 21.6087 14.0122 21.9284 14.1575 22.2526C14.4431 22.8858 14.8005 23.6064 15.419 23.8299C15.446 23.8392 15.446 23.8392 15.4735 23.8487C15.4916 23.8552 15.5098 23.8618 15.5285 23.8686C15.709 23.9328 15.8657 23.9568 16.053 23.957C16.0739 23.9574 16.0947 23.9577 16.1162 23.9581C16.3909 23.9589 16.6525 23.8787 16.9174 23.8003C16.9567 23.789 16.9567 23.789 16.9968 23.7775C17.3181 23.6831 17.622 23.5508 17.9263 23.399C17.9823 23.3712 18.0385 23.3437 18.0946 23.3163C18.3083 23.2108 18.5098 23.0934 18.709 22.954C18.786 22.9014 18.8638 22.855 18.9442 22.8101C19.1478 22.6926 19.3368 22.5486 19.527 22.404C19.5437 22.3914 19.5604 22.3788 19.5776 22.3658C20.0517 22.0061 20.4893 21.5994 20.904 21.1503C20.9597 21.0907 21.0161 21.0327 21.0733 20.975C21.2048 20.8401 21.3283 20.6962 21.4517 20.5512C21.4857 20.5119 21.4857 20.5119 21.5203 20.4718C21.6435 20.3275 21.7565 20.1811 21.8604 20.0171C21.9111 19.9392 21.9699 19.8732 22.0296 19.8047C22.1699 19.6283 22.293 19.4381 22.4146 19.2438C22.4555 19.1789 22.4968 19.1143 22.5381 19.0497C22.8763 18.5189 23.169 17.9643 23.4522 17.3911C23.463 17.3695 23.4738 17.3478 23.4849 17.3256C23.8752 16.542 24.1852 15.7164 24.4551 14.8671C24.481 14.7874 24.5082 14.7084 24.5356 14.6294C24.5726 14.5216 24.6038 14.4155 24.6277 14.3025C24.6449 14.2221 24.6625 14.1462 24.689 14.0693C24.8768 13.5126 24.9616 12.9014 25.0591 12.3163C25.0688 12.2596 25.0785 12.2028 25.0882 12.146C25.1948 11.52 25.23 10.8911 25.26 10.2547C25.2779 9.88137 25.2779 9.88137 25.2962 9.50047C26.1481 9.50047 27.0001 9.50047 27.8778 9.50047C27.8778 10.4841 27.8006 11.4326 27.6558 12.4009C27.6392 12.5126 27.6232 12.6244 27.6074 12.7363C27.6012 12.7807 27.5948 12.8251 27.5884 12.8695C27.573 12.9762 27.5586 13.083 27.5459 13.1903C27.5005 13.5579 27.4158 13.906 27.3235 14.2609C27.2809 14.4259 27.2403 14.5915 27.1995 14.757C27.1711 14.8718 27.1425 14.9866 27.1139 15.1013C27.1074 15.1276 27.1009 15.154 27.0942 15.1811C27.0499 15.3588 26.9985 15.5317 26.9426 15.7047C26.8936 15.8583 26.8452 16.0107 26.8076 16.1688C26.7746 16.3057 26.7259 16.4301 26.6743 16.5585C26.6382 16.6524 26.6075 16.7472 26.5771 16.8438C26.5173 17.0305 26.445 17.2053 26.367 17.3822C26.3377 17.4509 26.3103 17.5207 26.2847 17.5914C26.2432 17.7041 26.1959 17.8115 26.1458 17.9191C26.0781 18.0659 26.0132 18.2134 25.9515 18.3639C25.7224 18.9057 25.4447 19.4215 25.1645 19.9285C25.1528 19.9497 25.1411 19.9708 25.1291 19.9926C24.9824 20.2576 24.8282 20.5135 24.664 20.764C24.6423 20.7971 24.6206 20.8302 24.5989 20.8633C24.5655 20.9143 24.5321 20.9653 24.4986 21.0161C24.4266 21.1256 24.3566 21.2365 24.2869 21.348C24.0714 21.6867 23.8258 21.9986 23.5839 22.3112C23.5649 22.3364 23.5459 22.3616 23.5263 22.3876C23.3526 22.6151 23.1699 22.8317 22.9862 23.048C22.9731 23.0635 22.96 23.0789 22.9465 23.0949C22.7949 23.2737 22.6408 23.4466 22.4775 23.6108C22.4368 23.6545 22.3962 23.6983 22.3556 23.7423C22.1922 23.9151 22.02 24.0732 21.8452 24.2297C21.8273 24.2458 21.8093 24.262 21.7908 24.2786C21.0386 24.9524 20.233 25.5141 19.3843 26.0008C19.3198 26.0381 19.2555 26.0757 19.1915 26.114C19.1753 26.1236 19.1591 26.1333 19.1424 26.1432C19.0979 26.1698 19.0534 26.1965 19.009 26.2233C18.4186 26.5506 17.7406 26.7715 17.1035 26.9218C17.065 26.9313 17.065 26.9313 17.0258 26.9411C16.3728 27.1003 15.6701 27.1262 15.0224 26.9218C14.9892 26.9114 14.9561 26.901 14.922 26.8903C14.8402 26.8623 14.7601 26.8316 14.6799 26.798C14.6494 26.7854 14.6494 26.7854 14.6183 26.7725C14.0616 26.5255 13.5641 26.1851 13.1483 25.6795C13.099 25.6218 13.0476 25.5697 12.9939 25.5177C12.9678 25.4909 12.9418 25.4641 12.9149 25.4365C12.9149 25.416 12.8833 25.4049 12.8701 25.3758C12.8438 25.3613 12.8627 25.3542 12.8359 25.3436C12.7971 25.2995 12.7971 25.2995 12.7552 25.2411C12.7311 25.2077 12.7311 25.2077 12.7065 25.1736C12.6884 25.148 12.6702 25.1224 12.6515 25.0961C12.6197 25.0525 12.6197 25.0525 12.5874 25.008C12.3606 24.6937 12.1748 24.3665 12.0028 24.0073C11.9843 23.969 11.9659 23.9307 11.9474 23.8925C11.9101 23.8151 11.8728 23.7377 11.8356 23.6602C11.7865 23.5579 11.7372 23.4558 11.6879 23.3537C11.5496 23.0673 11.4124 22.7802 11.2766 22.4922C11.1574 22.2395 11.036 21.9883 10.9149 21.7369C10.8587 21.6203 10.8027 21.5036 10.7469 21.3867C10.6303 21.1423 10.5124 20.8989 10.3942 20.6557C10.3851 20.637 10.3761 20.6184 10.3667 20.5992C10.2406 20.3398 10.113 20.0816 9.98422 19.8241C9.85243 19.5603 9.726 19.2937 9.60231 19.0246C9.51493 18.835 9.42393 18.6487 9.33 18.4635C9.23464 18.2748 9.14328 18.0837 9.05233 17.892C8.91816 17.6093 8.78259 17.3277 8.64566 17.0469C8.42996 16.6043 8.21519 16.1612 8.00385 15.7158C7.83406 15.3581 7.66181 15.0024 7.48553 14.649C7.34712 14.3714 7.21271 14.0914 7.07954 13.8103C6.91224 13.4574 6.74387 13.1055 6.56948 12.7573C6.42463 12.4678 6.28533 12.1751 6.14794 11.8807C5.96539 11.4897 5.77752 11.1025 5.58839 10.7158C5.57203 10.6824 5.55567 10.6489 5.53881 10.6144C5.52993 10.5963 5.52106 10.5782 5.51192 10.5595C5.40363 10.338 5.29679 10.1157 5.19305 9.89114C5.08079 9.65031 4.96591 9.41135 4.84894 9.17363C4.83425 9.14348 4.81956 9.11333 4.80442 9.08227C4.50264 8.4716 4.50264 8.4716 4.01256 8.09234C3.89811 8.06017 3.78234 8.05882 3.66515 8.05772C3.62888 8.05722 3.62888 8.05722 3.59187 8.0567C3.3295 8.06308 3.1229 8.16382 2.93351 8.37647C2.65448 8.73895 2.57216 9.13687 2.57499 9.6151C2.57487 9.66024 2.5747 9.70537 2.57449 9.7505C2.57404 9.87408 2.57425 9.99765 2.57456 10.1212C2.57479 10.2558 2.57441 10.3904 2.5741 10.525C2.57364 10.7608 2.57358 10.9966 2.57377 11.2323C2.57405 11.5829 2.57373 11.9334 2.57328 12.284C2.57255 12.8737 2.57231 13.4635 2.57235 14.0532C2.57238 14.6371 2.5722 15.221 2.57173 15.8048C2.5717 15.8411 2.57167 15.8775 2.57164 15.9149C2.57149 16.0993 2.57134 16.2837 2.57118 16.4681C2.57009 17.774 2.56948 19.08 2.56916 20.3859C2.56885 21.6546 2.56832 22.9233 2.56749 24.192C2.56745 24.2506 2.56745 24.2506 2.56741 24.3105C2.56716 24.7032 2.5669 25.096 2.56663 25.4887C2.5661 26.2888 2.56559 27.0889 2.5651 27.889C2.56506 27.9442 2.56506 27.9442 2.56503 28.0004C2.56386 29.9037 2.56314 31.807 2.56253 33.7102C2.56252 33.737 2.56251 33.7638 2.5625 33.7914C2.56233 34.3174 2.56218 34.8434 2.56202 35.3694C1.71878 35.3694 0.875534 35.3694 0.00673526 35.3694C0.00630824 34.1725 0.00630824 34.1725 0.00615 33.7083C0.00614015 33.6794 0.00613041 33.6505 0.00612026 33.6207C0.00546891 31.7072 0.00488017 29.7936 0.00450436 27.8801C0.00449708 27.8432 0.00448974 27.8062 0.00448225 27.7682C0.00432457 26.9654 0.00417878 26.1626 0.00404491 25.3598C0.00397919 24.9661 0.00391079 24.5724 0.00384111 24.1787C0.00383422 24.1396 0.00382731 24.1004 0.00382021 24.06C0.00359565 22.7899 0.00320006 21.5198 0.00271561 20.2497C0.00221873 18.9447 0.00189402 17.6396 0.00178707 16.3345C0.00177189 16.1503 0.00175478 15.966 0.00173642 15.7817C0.00173287 15.7454 0.00172923 15.7092 0.00172557 15.6718C0.00166328 15.0877 0.0014189 14.5035 0.00110654 13.9194C0.000796494 13.3324 0.000677925 12.7453 0.000755227 12.1582C0.000795336 11.8093 0.000688263 11.4604 0.000370948 11.1115C0.000173462 10.8785 0.000167024 10.6455 0.000316281 10.4124C0.00039586 10.2796 0.000392245 10.1468 0.000155495 10.014C-5.84648e-05 9.89309 -2.72404e-05 9.77216 0.000194887 9.65123C0.000232359 9.60787 0.000182343 9.56451 3.16893e-05 9.52115C-0.000817776 9.25999 0.01532 9.01388 0.0594216 8.75783C0.063632 8.73252 0.0678424 8.70722 0.0721804 8.68115C0.099367 8.52008 0.131514 8.36031 0.164794 8.20084C0.16909 8.18009 0.173386 8.15935 0.177812 8.13797C0.364713 7.26877 0.85356 6.45139 1.45561 5.91101C1.47802 5.89038 1.50044 5.86976 1.52353 5.84851C2.54941 4.93391 3.96461 4.68282 5.14366 5.32308Z" fill="url(#paint3_linear_1750_2288)"/>
<path d="M112.353 42.7617C112.896 42.7617 113.438 42.7617 113.997 42.7617C113.997 45.4034 113.997 48.0451 113.997 50.7668C114.671 50.6121 115.299 50.46 115.94 50.2064C116.005 50.1806 116.005 50.1806 116.073 50.1542C116.804 49.8457 117.463 49.3783 118.048 48.8206C118.107 48.7651 118.165 48.7103 118.224 48.6555C118.473 48.42 118.688 48.1671 118.891 47.885C118.936 47.8245 118.936 47.8245 118.983 47.7627C119.344 47.2792 119.618 46.7512 119.868 46.1938C119.894 46.1348 119.922 46.0763 119.95 46.018C120.212 45.4515 120.352 44.8223 120.436 44.2001C120.442 44.1577 120.448 44.1152 120.454 44.0715C120.508 43.6336 120.515 43.2072 120.534 42.7617C121.101 42.7617 121.668 42.7617 122.253 42.7617C122.253 43.4836 122.253 43.4836 122.225 43.7398C122.222 43.7676 122.219 43.7954 122.216 43.824C122.21 43.8816 122.204 43.9392 122.197 43.9967C122.187 44.0825 122.178 44.1683 122.17 44.2542C122.127 44.6472 122.051 45.0221 121.954 45.4034C121.941 45.458 121.941 45.458 121.927 45.5138C121.532 47.11 120.699 48.5419 119.638 49.7261C119.606 49.7621 119.574 49.798 119.541 49.835C119.325 50.0719 119.096 50.2822 118.853 50.4866C118.817 50.5178 118.781 50.5491 118.744 50.5812C118.021 51.1973 117.195 51.7236 116.312 52.0225C116.24 52.0469 116.17 52.0731 116.099 52.0994C114.834 52.5703 113.729 52.608 112.353 52.608C112.353 49.3587 112.353 46.1094 112.353 42.7617Z" fill="#2BABA2"/>
<path d="M117.936 45.115C118.303 45.4401 118.552 45.8949 118.599 46.4075C118.636 47.0335 118.493 47.5505 118.115 48.0381C117.895 48.2899 117.619 48.4433 117.322 48.5659C117.288 48.58 117.254 48.594 117.22 48.6085C116.78 48.7433 116.207 48.662 115.808 48.4299C115.342 48.107 115.013 47.6274 114.893 47.045C114.839 46.3492 114.954 45.8378 115.364 45.2838C116.046 44.4847 117.157 44.506 117.936 45.115Z" fill="#2CABA2"/>
<path d="M146.342 46.6237C146.57 46.7974 146.768 46.9838 146.908 47.2447C146.977 47.1733 147.044 47.1022 147.104 47.0214C147.385 46.6408 147.733 46.4473 148.178 46.3641C148.7 46.3016 149.141 46.4214 149.56 46.7644C149.582 46.7806 149.605 46.7968 149.628 46.8135C150 47.1062 150.188 47.6563 150.27 48.1253C150.293 48.3586 150.287 48.5935 150.284 48.8279C150.284 48.8935 150.284 48.9591 150.284 49.0247C150.283 49.1954 150.282 49.3661 150.28 49.5368C150.278 49.7117 150.278 49.8867 150.277 50.0616C150.275 50.4035 150.273 50.7453 150.27 51.0871C150.072 51.0871 149.875 51.0871 149.672 51.0871C149.671 50.9651 149.671 50.9651 149.67 50.8406C149.668 50.5703 149.666 50.3 149.663 50.0297C149.661 49.866 149.66 49.7023 149.659 49.5386C149.658 49.3802 149.657 49.2219 149.655 49.0636C149.654 49.0036 149.654 48.9435 149.653 48.8834C149.651 48.3473 149.597 47.7648 149.224 47.3648C148.874 47.1119 148.596 47.0461 148.178 47.0846C147.881 47.1714 147.679 47.3805 147.505 47.645C147.282 48.0642 147.269 48.4901 147.266 48.9608C147.265 49.0223 147.264 49.0837 147.264 49.1452C147.262 49.306 147.26 49.4668 147.259 49.6276C147.257 49.7921 147.255 49.9566 147.253 50.1211C147.25 50.4431 147.247 50.7651 147.244 51.0871C147.034 51.0871 146.825 51.0871 146.609 51.0871C146.608 51.005 146.608 50.9228 146.608 50.8382C146.606 50.5649 146.604 50.2915 146.602 50.0182C146.6 49.8527 146.599 49.6872 146.599 49.5217C146.598 49.3615 146.597 49.2014 146.595 49.0413C146.594 48.9806 146.594 48.9199 146.594 48.8593C146.594 48.3132 146.528 47.7769 146.161 47.3648C145.825 47.0975 145.524 47.0469 145.115 47.0846C144.79 47.1796 144.559 47.429 144.393 47.7356C144.213 48.1418 144.206 48.5552 144.203 48.996C144.202 49.0565 144.201 49.117 144.2 49.1775C144.198 49.3356 144.197 49.4937 144.196 49.6518C144.194 49.8136 144.192 49.9754 144.19 50.1372C144.187 50.4539 144.184 50.7705 144.181 51.0871C143.971 51.0871 143.762 51.0871 143.546 51.0871C143.543 50.7472 143.541 50.4072 143.54 50.0672C143.539 49.9093 143.538 49.7514 143.537 49.5935C143.536 49.4406 143.535 49.2877 143.535 49.1349C143.535 49.077 143.534 49.0192 143.534 48.9613C143.526 48.1505 143.69 47.4411 144.206 46.8344C144.765 46.2593 145.689 46.1954 146.342 46.6237Z" fill="#202020"/>
<path d="M125.054 44.6843C125.251 44.6843 125.449 44.6843 125.652 44.6843C125.664 45.6485 125.677 46.6127 125.689 47.6061C126.081 47.6875 126.081 47.6875 126.474 47.6862C126.559 47.6079 126.612 47.5481 126.677 47.4535C126.694 47.4298 126.712 47.4061 126.73 47.3817C126.765 47.3332 126.8 47.2844 126.835 47.2353C126.905 47.1376 126.978 47.043 127.05 46.9482C127.077 46.9126 127.104 46.877 127.132 46.8403C127.233 46.7095 127.337 46.5812 127.44 46.4529C127.608 46.2451 127.768 46.0325 127.925 45.8154C128.068 45.6186 128.217 45.4278 128.372 45.2418C128.457 45.1398 128.525 45.0501 128.586 44.9293C128.643 44.8157 128.693 44.7602 128.79 44.6843C128.884 44.6644 128.884 44.6644 128.988 44.6625C129.026 44.6617 129.063 44.661 129.101 44.6602C129.272 44.6625 129.442 44.6706 129.612 44.6843C129.503 44.867 129.383 45.0293 129.25 45.1921C129.114 45.3603 128.979 45.5292 128.848 45.7024C128.712 45.8818 128.572 46.0563 128.43 46.2302C128.281 46.4131 128.137 46.5976 128 46.7911C127.907 46.9175 127.809 47.039 127.711 47.1608C127.568 47.3383 127.426 47.5161 127.286 47.6962C127.259 47.731 127.232 47.7659 127.204 47.8019C127.139 47.8796 127.139 47.8796 127.146 47.9663C127.203 47.9947 127.203 47.9947 127.261 48.0237C128.354 48.5813 128.95 49.5478 129.528 50.648C129.552 50.6936 129.552 50.6936 129.576 50.7402C129.686 50.9536 129.686 50.9536 129.686 51.0883C129.452 51.0883 129.218 51.0883 128.977 51.0883C128.95 51.0361 128.924 50.9839 128.897 50.9301C128.469 50.082 128.017 49.2659 127.221 48.7668C127.194 48.7469 127.166 48.727 127.138 48.7065C126.988 48.6203 126.831 48.5756 126.668 48.5267C126.62 48.5118 126.62 48.5118 126.572 48.4967C126.266 48.4038 125.968 48.3501 125.652 48.2865C125.652 49.2111 125.652 50.1357 125.652 51.0883C125.455 51.0883 125.257 51.0883 125.054 51.0883C125.054 48.975 125.054 46.8616 125.054 44.6843Z" fill="#202020"/>
<path d="M130.209 44.6836C130.419 44.6836 130.629 44.6836 130.845 44.6836C130.857 45.4629 130.869 46.2422 130.882 47.0451C130.993 46.9262 131.104 46.8073 131.218 46.6849C131.334 46.6046 131.431 46.5425 131.554 46.4847C131.581 46.472 131.608 46.4593 131.636 46.4461C132.055 46.2813 132.535 46.3105 132.939 46.503C133.368 46.745 133.66 47.0556 133.882 47.5154C133.9 47.5525 133.9 47.5525 133.919 47.5904C134.125 48.0426 134.148 48.5181 134.143 49.0121C134.143 49.0724 134.142 49.1327 134.142 49.193C134.142 49.3498 134.141 49.5066 134.14 49.6634C134.138 49.8241 134.138 49.9848 134.137 50.1456C134.136 50.4596 134.134 50.7736 134.132 51.0877C133.91 51.0877 133.688 51.0877 133.459 51.0877C133.459 51.0075 133.458 50.9274 133.458 50.8448C133.456 50.5785 133.453 50.3122 133.451 50.0459C133.449 49.8846 133.448 49.7233 133.446 49.562C133.446 49.406 133.444 49.2501 133.442 49.0941C133.442 49.0349 133.441 48.9757 133.441 48.9165C133.438 48.3615 133.374 47.8716 133.018 47.4438C132.771 47.1922 132.509 47.0778 132.168 47.0676C131.795 47.0826 131.522 47.1997 131.255 47.4854C130.925 47.9401 130.859 48.4494 130.859 49.0082C130.859 49.0686 130.858 49.1289 130.857 49.1892C130.856 49.3464 130.855 49.5035 130.854 49.6606C130.854 49.8216 130.852 49.9826 130.851 50.1436C130.848 50.4583 130.846 50.773 130.845 51.0877C130.635 51.0877 130.425 51.0877 130.209 51.0877C130.209 48.9743 130.209 46.861 130.209 44.6836Z" fill="#232323"/>
<path d="M142.302 46.6146C142.593 46.8531 142.776 47.1461 142.873 47.5251C142.886 47.6637 142.883 47.7856 142.873 47.9253C142.676 47.9253 142.479 47.9253 142.275 47.9253C142.223 47.7853 142.188 47.6709 142.156 47.5276C142.096 47.3093 142.005 47.2047 141.827 47.0848C141.804 47.0683 141.781 47.0518 141.758 47.0348C141.466 46.8601 141.065 46.8686 140.747 46.9539C140.53 47.0493 140.388 47.1967 140.258 47.405C140.24 47.6144 140.264 47.7483 140.37 47.9253C140.679 48.2566 141.156 48.3213 141.565 48.4196C142.043 48.5351 142.468 48.6781 142.761 49.1261C142.918 49.4122 142.954 49.71 142.889 50.0337C142.791 50.3712 142.607 50.6435 142.327 50.8337C142.236 50.8833 142.146 50.927 142.051 50.9673C142.022 50.9813 141.993 50.9953 141.963 51.0098C141.431 51.2123 140.728 51.1201 140.222 50.873C139.829 50.6362 139.597 50.3142 139.462 49.8541C139.436 49.7265 139.436 49.7265 139.436 49.5263C139.646 49.5263 139.856 49.5263 140.071 49.5263C140.09 49.5998 140.108 49.6733 140.127 49.749C140.206 49.9993 140.306 50.1527 140.52 50.2868C140.764 50.4086 140.976 50.4277 141.243 50.4269C141.28 50.428 141.316 50.4292 141.354 50.4304C141.622 50.4311 141.828 50.3692 142.051 50.2068C142.184 50.0575 142.212 49.9071 142.226 49.704C142.22 49.55 142.205 49.4594 142.1 49.3512C141.752 49.0935 141.316 49.0013 140.911 48.8952C140.39 48.7568 139.951 48.5994 139.661 48.0854C139.534 47.8119 139.542 47.4607 139.615 47.1694C139.763 46.8103 140.057 46.5418 140.393 46.3945C141.033 46.1788 141.729 46.215 142.302 46.6146Z" fill="#222222"/>
<path d="M121.733 49.857C122.063 50.1617 122.239 50.463 122.29 50.928C122.293 50.9567 122.296 50.9855 122.299 51.0151C122.319 51.3842 122.202 51.776 121.979 52.0579C121.958 52.0813 121.938 52.1047 121.916 52.1288C121.884 52.1657 121.884 52.1657 121.851 52.2033C121.569 52.4967 121.241 52.6278 120.852 52.6341C120.444 52.6271 120.119 52.4825 119.823 52.1788C119.701 52.0292 119.608 51.8662 119.526 51.6885C119.512 51.6593 119.498 51.6301 119.483 51.6C119.371 51.2142 119.402 50.7407 119.561 50.3776C119.765 50.0033 120.045 49.7629 120.422 49.6072C120.884 49.4817 121.346 49.5558 121.733 49.857Z" fill="#2BABA2"/>
<path d="M134.916 46.3652C135.126 46.3652 135.336 46.3652 135.551 46.3652C135.552 46.4383 135.552 46.5113 135.552 46.5865C135.554 46.8305 135.556 47.0744 135.558 47.3184C135.56 47.466 135.561 47.6136 135.562 47.7612C135.537 48.9647 135.537 48.9647 136.03 50.0083C136.368 50.355 136.746 50.395 137.195 50.4078C137.195 50.3814 137.195 50.355 137.195 50.3278C137.216 50.3194 137.237 50.3111 137.258 50.3026C137.625 50.1438 137.828 49.9323 138.005 49.5532C138.147 49.1338 138.183 48.728 138.185 48.2844C138.186 48.2286 138.187 48.1728 138.187 48.117C138.189 47.9721 138.19 47.8271 138.191 47.6822C138.192 47.5335 138.194 47.3848 138.196 47.2362C138.199 46.9459 138.202 46.6556 138.204 46.3652C138.413 46.3652 138.623 46.3652 138.839 46.3652C138.84 46.6962 138.842 47.0271 138.843 47.358C138.843 47.5117 138.844 47.6654 138.844 47.8191C138.845 47.9678 138.846 48.1165 138.846 48.2652C138.846 48.3216 138.846 48.3779 138.847 48.4343C138.85 48.9003 138.83 49.3469 138.645 49.7749C138.628 49.8158 138.628 49.8158 138.61 49.8575C138.512 50.0796 138.4 50.2696 138.241 50.4478C138.2 50.494 138.2 50.494 138.159 50.541C137.737 50.9818 137.279 51.1048 136.704 51.0993C136.223 51.0623 135.806 50.7961 135.48 50.4266C135.129 49.9829 134.911 49.4359 134.912 48.8507C134.912 48.8238 134.912 48.7968 134.912 48.769C134.912 48.6805 134.912 48.5919 134.913 48.5033C134.913 48.4417 134.913 48.38 134.913 48.3184C134.913 48.1566 134.913 47.9948 134.914 47.833C134.914 47.6677 134.914 47.5025 134.915 47.3372C134.915 47.0132 134.916 46.6892 134.916 46.3652Z" fill="#222222"/>
<path d="M140.071 46.6445C140.019 46.7732 139.956 46.8575 139.861 46.9547C139.826 46.9916 139.826 46.9916 139.79 47.0292C139.772 47.0475 139.754 47.0659 139.735 47.0848C139.735 46.9351 139.77 46.9066 139.861 46.7971C139.885 46.7685 139.908 46.7399 139.932 46.7104C139.997 46.6445 139.997 46.6445 140.071 46.6445Z" fill="#343434"/>
<defs>
<linearGradient id="paint0_linear_1750_2288" x1="33.7883" y1="5.14062" x2="33.7883" y2="35.2232" gradientUnits="userSpaceOnUse">
<stop stop-color="#1B4477"/>
<stop offset="1" stop-color="#327EDD"/>
</linearGradient>
<linearGradient id="paint1_linear_1750_2288" x1="26.3967" y1="22.1035" x2="26.3967" y2="27.4567" gradientUnits="userSpaceOnUse">
<stop stop-color="#1B4477"/>
<stop offset="1" stop-color="#327EDD"/>
</linearGradient>
<linearGradient id="paint2_linear_1750_2288" x1="17.3993" y1="11.3379" x2="17.3993" y2="18.7858" gradientUnits="userSpaceOnUse">
<stop stop-color="#1B4477"/>
<stop offset="1" stop-color="#327EDD"/>
</linearGradient>
<linearGradient id="paint3_linear_1750_2288" x1="13.9389" y1="4.9668" x2="13.9389" y2="35.3694" gradientUnits="userSpaceOnUse">
<stop stop-color="#1B4477"/>
<stop offset="1" stop-color="#327EDD"/>
</linearGradient>
</defs>
</svg>
