<svg width="153" height="51" viewBox="0 0 153 51" fill="none" xmlns="http://www.w3.org/2000/svg">
<path d="M56.8072 23.3032C56.8072 23.9967 56.7879 24.5264 56.7494 24.8923H43.6609C43.7187 26.0866 44.0076 27.1075 44.5277 27.955C45.0478 28.8025 45.7316 29.4478 46.5791 29.8908C47.4266 30.3146 48.3512 30.5265 49.3528 30.5265C50.6626 30.5265 51.7606 30.2086 52.6466 29.573C53.5519 28.9374 54.149 28.0802 54.438 27.0015H56.576C56.1908 28.5425 55.3625 29.8041 54.0913 30.7865C52.8392 31.7496 51.2597 32.2311 49.3528 32.2311C47.8696 32.2311 46.5406 31.9037 45.3656 31.2488C44.1906 30.5746 43.266 29.6308 42.5919 28.4173C41.937 27.1845 41.6095 25.7495 41.6095 24.1122C41.6095 22.475 41.937 21.04 42.5919 19.8072C43.2468 18.5744 44.1617 17.6306 45.3367 16.9757C46.5117 16.3208 47.8504 15.9933 49.3528 15.9933C50.8552 15.9933 52.1651 16.3208 53.2823 16.9757C54.4187 17.6306 55.2855 18.5166 55.8826 19.6338C56.499 20.7318 56.8072 21.9549 56.8072 23.3032ZM54.7558 23.2454C54.7751 22.0705 54.5343 21.0689 54.0335 20.2406C53.5519 19.4123 52.8874 18.7863 52.0399 18.3625C51.1923 17.9388 50.2678 17.7269 49.2661 17.7269C47.7637 17.7269 46.4828 18.2085 45.4234 19.1715C44.364 20.1346 43.7765 21.4926 43.6609 23.2454H54.7558ZM59.5829 24.0833C59.5829 22.4653 59.9104 21.0496 60.5653 19.8361C61.2202 18.6033 62.1159 17.6595 63.2523 17.0046C64.4081 16.3304 65.7082 15.9933 67.1529 15.9933C68.5397 15.9933 69.7918 16.3304 70.909 17.0046C72.0261 17.6787 72.8448 18.5552 73.3649 19.6338V10.6192H75.3874V32H73.3649V28.4751C72.8833 29.573 72.0936 30.4783 70.9956 31.191C69.8977 31.8844 68.6072 32.2311 67.124 32.2311C65.6793 32.2311 64.3792 31.8941 63.2234 31.2199C62.087 30.5457 61.1913 29.5923 60.5364 28.3595C59.9008 27.1267 59.5829 25.7013 59.5829 24.0833ZM73.3649 24.1122C73.3649 22.8409 73.1048 21.7238 72.5847 20.7607C72.0647 19.7976 71.352 19.056 70.4467 18.5359C69.5606 18.0158 68.5783 17.7558 67.4996 17.7558C66.3824 17.7558 65.3808 18.0062 64.4947 18.507C63.6087 19.0078 62.9056 19.7398 62.3855 20.7029C61.8847 21.6467 61.6343 22.7735 61.6343 24.0833C61.6343 25.3739 61.8847 26.5103 62.3855 27.4927C62.9056 28.4558 63.6087 29.1974 64.4947 29.7175C65.3808 30.2183 66.3824 30.4687 67.4996 30.4687C68.5783 30.4687 69.5606 30.2086 70.4467 29.6886C71.352 29.1685 72.0647 28.4269 72.5847 27.4638C73.1048 26.5007 73.3649 25.3835 73.3649 24.1122ZM81.0158 13.2485C80.6113 13.2485 80.2646 13.104 79.9757 12.8151C79.6868 12.5262 79.5423 12.1698 79.5423 11.7461C79.5423 11.3223 79.6868 10.9756 79.9757 10.7059C80.2646 10.417 80.6113 10.2725 81.0158 10.2725C81.4203 10.2725 81.767 10.417 82.056 10.7059C82.3449 10.9756 82.4894 11.3223 82.4894 11.7461C82.4894 12.1698 82.3449 12.5262 82.056 12.8151C81.767 13.104 81.4203 13.2485 81.0158 13.2485ZM82.0271 16.2245V32H80.0046V16.2245H82.0271ZM85.6825 24.1122C85.6825 22.475 86.0099 21.0496 86.6648 19.8361C87.3197 18.6033 88.2251 17.6595 89.3808 17.0046C90.5365 16.3304 91.8559 15.9933 93.3391 15.9933C95.2846 15.9933 96.8833 16.4749 98.1353 17.438C99.4066 18.4011 100.225 19.7109 100.591 21.3674H98.4243C98.1546 20.231 97.5671 19.3449 96.6618 18.7093C95.7757 18.0544 94.6682 17.7269 93.3391 17.7269C92.2797 17.7269 91.3262 17.9677 90.4787 18.4492C89.6312 18.9308 88.957 19.6531 88.4562 20.6162C87.9747 21.56 87.7339 22.7254 87.7339 24.1122C87.7339 25.4991 87.9747 26.6741 88.4562 27.6372C88.957 28.6003 89.6312 29.3226 90.4787 29.8041C91.3262 30.2857 92.2797 30.5265 93.3391 30.5265C94.6682 30.5265 95.7757 30.2086 96.6618 29.573C97.5671 28.9181 98.1546 28.0128 98.4243 26.8571H100.591C100.225 28.4751 99.4066 29.7752 98.1353 30.7576C96.864 31.74 95.2653 32.2311 93.3391 32.2311C91.8559 32.2311 90.5365 31.9037 89.3808 31.2488C88.2251 30.5746 87.3197 29.6308 86.6648 28.4173C86.0099 27.1845 85.6825 25.7495 85.6825 24.1122ZM103.402 24.0833C103.402 22.4653 103.72 21.0496 104.355 19.8361C105.01 18.6033 105.906 17.6595 107.042 17.0046C108.198 16.3304 109.498 15.9933 110.943 15.9933C112.445 15.9933 113.736 16.34 114.815 17.0335C115.913 17.7269 116.702 18.613 117.184 19.6916V16.2245H119.206V32H117.184V28.504C116.683 29.5826 115.884 30.4783 114.786 31.191C113.707 31.8844 112.417 32.2311 110.914 32.2311C109.489 32.2311 108.198 31.8941 107.042 31.2199C105.906 30.5457 105.01 29.5923 104.355 28.3595C103.72 27.1267 103.402 25.7013 103.402 24.0833ZM117.184 24.1122C117.184 22.8409 116.924 21.7238 116.404 20.7607C115.884 19.7976 115.171 19.056 114.266 18.5359C113.38 18.0158 112.397 17.7558 111.319 17.7558C110.201 17.7558 109.2 18.0062 108.314 18.507C107.428 19.0078 106.725 19.7398 106.205 20.7029C105.704 21.6467 105.453 22.7735 105.453 24.0833C105.453 25.3739 105.704 26.5103 106.205 27.4927C106.725 28.4558 107.428 29.1974 108.314 29.7175C109.2 30.2183 110.201 30.4687 111.319 30.4687C112.397 30.4687 113.38 30.2086 114.266 29.6886C115.171 29.1685 115.884 28.4269 116.404 27.4638C116.924 26.5007 117.184 25.3835 117.184 24.1122ZM125.846 19.0271C126.289 18.0447 126.963 17.2839 127.869 16.7445C128.793 16.2052 129.92 15.9355 131.249 15.9355V18.0447H130.7C129.236 18.0447 128.061 18.4396 127.175 19.2293C126.289 20.0191 125.846 21.3385 125.846 23.1877V32H123.824V16.2245H125.846V19.0271ZM133.367 24.0833C133.367 22.4653 133.695 21.0496 134.349 19.8361C135.004 18.6033 135.9 17.6595 137.036 17.0046C138.192 16.3304 139.492 15.9933 140.937 15.9933C142.324 15.9933 143.576 16.3304 144.693 17.0046C145.81 17.6787 146.629 18.5552 147.149 19.6338V10.6192H149.171V32H147.149V28.4751C146.667 29.573 145.878 30.4783 144.78 31.191C143.682 31.8844 142.391 32.2311 140.908 32.2311C139.463 32.2311 138.163 31.8941 137.008 31.2199C135.871 30.5457 134.975 29.5923 134.321 28.3595C133.685 27.1267 133.367 25.7013 133.367 24.0833ZM147.149 24.1122C147.149 22.8409 146.889 21.7238 146.369 20.7607C145.849 19.7976 145.136 19.056 144.231 18.5359C143.345 18.0158 142.362 17.7558 141.284 17.7558C140.167 17.7558 139.165 18.0062 138.279 18.507C137.393 19.0078 136.69 19.7398 136.17 20.7029C135.669 21.6467 135.418 22.7735 135.418 24.0833C135.418 25.3739 135.669 26.5103 136.17 27.4927C136.69 28.4558 137.393 29.1974 138.279 29.7175C139.165 30.2183 140.167 30.4687 141.284 30.4687C142.362 30.4687 143.345 30.2086 144.231 29.6886C145.136 29.1685 145.849 28.4269 146.369 27.4638C146.889 26.5007 147.149 25.3835 147.149 24.1122Z" fill="#D4E2F5"/>
<path d="M47.4427 47.6621V39.4904H50.2038C50.8449 39.4904 51.3689 39.6061 51.7759 39.8375C52.1856 40.0663 52.4888 40.3762 52.6857 40.7672C52.8825 41.1582 52.9809 41.5945 52.9809 42.076C52.9809 42.5574 52.8825 42.995 52.6857 43.3887C52.4915 43.7824 52.1909 44.0963 51.7839 44.3304C51.3769 44.5618 50.8555 44.6775 50.2198 44.6775H48.2407V43.7997H50.1879C50.6268 43.7997 50.9792 43.7239 51.2452 43.5723C51.5112 43.4206 51.7041 43.2158 51.8238 42.9578C51.9462 42.6971 52.0073 42.4032 52.0073 42.076C52.0073 41.7488 51.9462 41.4562 51.8238 41.1981C51.7041 40.9401 51.5099 40.738 51.2412 40.5916C50.9726 40.4427 50.6161 40.3682 50.1719 40.3682H48.4322V47.6621H47.4427ZM56.8713 47.7898C56.318 47.7898 55.8325 47.6581 55.4149 47.3948C54.9999 47.1314 54.6754 46.763 54.4413 46.2895C54.2099 45.816 54.0942 45.2627 54.0942 44.6296C54.0942 43.9912 54.2099 43.4339 54.4413 42.9578C54.6754 42.4816 54.9999 42.1119 55.4149 41.8485C55.8325 41.5852 56.318 41.4535 56.8713 41.4535C57.4246 41.4535 57.9087 41.5852 58.3237 41.8485C58.7413 42.1119 59.0658 42.4816 59.2973 42.9578C59.5314 43.4339 59.6484 43.9912 59.6484 44.6296C59.6484 45.2627 59.5314 45.816 59.2973 46.2895C59.0658 46.763 58.7413 47.1314 58.3237 47.3948C57.9087 47.6581 57.4246 47.7898 56.8713 47.7898ZM56.8713 46.9439C57.2916 46.9439 57.6374 46.8362 57.9087 46.6207C58.18 46.4052 58.3809 46.1219 58.5112 45.7708C58.6416 45.4197 58.7067 45.0393 58.7067 44.6296C58.7067 44.22 58.6416 43.8383 58.5112 43.4845C58.3809 43.1307 58.18 42.8447 57.9087 42.6266C57.6374 42.4085 57.2916 42.2994 56.8713 42.2994C56.451 42.2994 56.1052 42.4085 55.8339 42.6266C55.5625 42.8447 55.3617 43.1307 55.2314 43.4845C55.101 43.8383 55.0358 44.22 55.0358 44.6296C55.0358 45.0393 55.101 45.4197 55.2314 45.7708C55.3617 46.1219 55.5625 46.4052 55.8339 46.6207C56.1052 46.8362 56.451 46.9439 56.8713 46.9439ZM62.2659 47.6621L60.3985 41.5333H61.3881L62.7128 46.2257H62.7766L64.0854 41.5333H65.0909L66.3837 46.2097H66.4475L67.7722 41.5333H68.7618L66.8944 47.6621H65.9687L64.628 42.9538H64.5323L63.1916 47.6621H62.2659ZM72.3678 47.7898C71.7773 47.7898 71.2679 47.6594 70.8396 47.3988C70.414 47.1354 70.0855 46.7683 69.8541 46.2975C69.6253 45.824 69.5109 45.2734 69.5109 44.6456C69.5109 44.0178 69.6253 43.4645 69.8541 42.9857C70.0855 42.5042 70.4074 42.1292 70.8197 41.8605C71.2347 41.5892 71.7188 41.4535 72.2721 41.4535C72.5913 41.4535 72.9065 41.5067 73.2177 41.6131C73.529 41.7195 73.8123 41.8924 74.0676 42.1318C74.323 42.3686 74.5265 42.6825 74.6781 43.0735C74.8297 43.4645 74.9056 43.946 74.9056 44.5179V44.9169H70.1813V44.1029H73.9479C73.9479 43.7571 73.8788 43.4486 73.7404 43.1772C73.6048 42.9059 73.4106 42.6918 73.1579 42.5348C72.9078 42.3779 72.6126 42.2994 72.2721 42.2994C71.897 42.2994 71.5725 42.3925 71.2985 42.5787C71.0272 42.7623 70.8184 43.0017 70.6721 43.2969C70.5257 43.5922 70.4526 43.9088 70.4526 44.2466V44.7892C70.4526 45.2521 70.5324 45.6444 70.692 45.9663C70.8543 46.2855 71.079 46.5289 71.3663 46.6965C71.6536 46.8614 71.9875 46.9439 72.3678 46.9439C72.6152 46.9439 72.8387 46.9093 73.0382 46.8401C73.2403 46.7683 73.4146 46.6619 73.5609 46.5209C73.7072 46.3773 73.8202 46.1991 73.9 45.9863L74.8098 46.2416C74.714 46.5502 74.5531 46.8215 74.327 47.0556C74.1009 47.287 73.8216 47.4679 73.4891 47.5983C73.1566 47.726 72.7828 47.7898 72.3678 47.7898ZM76.338 47.6621V41.5333H77.2477V42.459H77.3116C77.4233 42.1558 77.6255 41.9097 77.9181 41.7208C78.2107 41.532 78.5405 41.4375 78.9076 41.4375C78.9768 41.4375 79.0632 41.4389 79.167 41.4415C79.2707 41.4442 79.3492 41.4482 79.4024 41.4535V42.4111C79.3705 42.4032 79.2973 42.3912 79.1829 42.3752C79.0712 42.3566 78.9528 42.3473 78.8278 42.3473C78.5299 42.3473 78.2639 42.4098 78.0298 42.5348C77.7984 42.6572 77.6148 42.8274 77.4792 43.0456C77.3462 43.261 77.2797 43.5071 77.2797 43.7837V47.6621H76.338ZM82.9017 47.7898C82.3112 47.7898 81.8018 47.6594 81.3735 47.3988C80.9479 47.1354 80.6194 46.7683 80.388 46.2975C80.1592 45.824 80.0448 45.2734 80.0448 44.6456C80.0448 44.0178 80.1592 43.4645 80.388 42.9857C80.6194 42.5042 80.9412 42.1292 81.3536 41.8605C81.7685 41.5892 82.2527 41.4535 82.806 41.4535C83.1252 41.4535 83.4404 41.5067 83.7516 41.6131C84.0628 41.7195 84.3461 41.8924 84.6015 42.1318C84.8569 42.3686 85.0604 42.6825 85.212 43.0735C85.3636 43.4645 85.4394 43.946 85.4394 44.5179V44.9169H80.7151V44.1029H84.4818C84.4818 43.7571 84.4126 43.4486 84.2743 43.1772C84.1387 42.9059 83.9445 42.6918 83.6918 42.5348C83.4417 42.3779 83.1464 42.2994 82.806 42.2994C82.4309 42.2994 82.1064 42.3925 81.8324 42.5787C81.561 42.7623 81.3522 43.0017 81.2059 43.2969C81.0596 43.5922 80.9865 43.9088 80.9865 44.2466V44.7892C80.9865 45.2521 81.0663 45.6444 81.2259 45.9663C81.3881 46.2855 81.6129 46.5289 81.9002 46.6965C82.1875 46.8614 82.5213 46.9439 82.9017 46.9439C83.1491 46.9439 83.3726 46.9093 83.5721 46.8401C83.7742 46.7683 83.9485 46.6619 84.0948 46.5209C84.2411 46.3773 84.3541 46.1991 84.4339 45.9863L85.3437 46.2416C85.2479 46.5502 85.087 46.8215 84.8609 47.0556C84.6348 47.287 84.3554 47.4679 84.0229 47.5983C83.6904 47.726 83.3167 47.7898 82.9017 47.7898ZM89.1861 47.7898C88.6754 47.7898 88.2245 47.6608 87.8335 47.4028C87.4425 47.1421 87.1365 46.775 86.9158 46.3015C86.695 45.8253 86.5846 45.2627 86.5846 44.6137C86.5846 43.9699 86.695 43.4113 86.9158 42.9378C87.1365 42.4643 87.4438 42.0986 87.8375 41.8405C88.2312 41.5825 88.686 41.4535 89.2021 41.4535C89.6011 41.4535 89.9163 41.52 90.1477 41.653C90.3818 41.7834 90.5601 41.9323 90.6824 42.0999C90.8074 42.2648 90.9045 42.4005 90.9737 42.5069H91.0535V39.4904H91.9952V47.6621H91.0854V46.7204H90.9737C90.9045 46.8322 90.8061 46.9732 90.6784 47.1434C90.5507 47.311 90.3685 47.4613 90.1318 47.5943C89.895 47.7246 89.5798 47.7898 89.1861 47.7898ZM89.3138 46.9439C89.6915 46.9439 90.0108 46.8455 90.2714 46.6486C90.5321 46.4491 90.7303 46.1738 90.866 45.8227C91.0016 45.4689 91.0695 45.0606 91.0695 44.5977C91.0695 44.1402 91.003 43.7398 90.87 43.3967C90.737 43.0509 90.5401 42.7822 90.2794 42.5907C90.0187 42.3965 89.6969 42.2994 89.3138 42.2994C88.9148 42.2994 88.5823 42.4018 88.3163 42.6066C88.0529 42.8088 87.8548 43.0841 87.7218 43.4326C87.5914 43.7784 87.5262 44.1668 87.5262 44.5977C87.5262 45.034 87.5928 45.4303 87.7258 45.7868C87.8614 46.1406 88.0609 46.4225 88.3243 46.6327C88.5903 46.8401 88.9201 46.9439 89.3138 46.9439ZM97.1384 47.6621V39.4904H98.0801V42.5069H98.1599C98.229 42.4005 98.3248 42.2648 98.4472 42.0999C98.5722 41.9323 98.7504 41.7834 98.9818 41.653C99.2159 41.52 99.5325 41.4535 99.9315 41.4535C100.448 41.4535 100.902 41.5825 101.296 41.8405C101.69 42.0986 101.997 42.4643 102.218 42.9378C102.439 43.4113 102.549 43.9699 102.549 44.6137C102.549 45.2627 102.439 45.8253 102.218 46.3015C101.997 46.775 101.691 47.1421 101.3 47.4028C100.909 47.6608 100.458 47.7898 99.9474 47.7898C99.5537 47.7898 99.2385 47.7246 99.0018 47.5943C98.765 47.4613 98.5828 47.311 98.4551 47.1434C98.3275 46.9732 98.229 46.8322 98.1599 46.7204H98.0481V47.6621H97.1384ZM98.0641 44.5977C98.0641 45.0606 98.1319 45.4689 98.2676 45.8227C98.4033 46.1738 98.6014 46.4491 98.8621 46.6486C99.1228 46.8455 99.442 46.9439 99.8198 46.9439C100.213 46.9439 100.542 46.8401 100.805 46.6327C101.071 46.4225 101.271 46.1406 101.404 45.7868C101.539 45.4303 101.607 45.034 101.607 44.5977C101.607 44.1668 101.541 43.7784 101.408 43.4326C101.277 43.0841 101.079 42.8088 100.813 42.6066C100.55 42.4018 100.219 42.2994 99.8198 42.2994C99.4367 42.2994 99.1148 42.3965 98.8542 42.5907C98.5935 42.7822 98.3966 43.0509 98.2636 43.3967C98.1306 43.7398 98.0641 44.1402 98.0641 44.5977ZM104.376 49.9604C104.217 49.9604 104.075 49.9471 103.95 49.9205C103.824 49.8966 103.738 49.8726 103.69 49.8487L103.93 49.0187C104.158 49.0773 104.36 49.0985 104.536 49.0826C104.712 49.0666 104.867 48.9882 105.003 48.8472C105.141 48.7088 105.268 48.4841 105.382 48.1728L105.558 47.694L103.291 41.5333H104.313L106.004 46.4172H106.068L107.76 41.5333H108.782L106.18 48.5559C106.063 48.8724 105.918 49.1345 105.745 49.3419C105.572 49.5521 105.371 49.7077 105.143 49.8088C104.916 49.9099 104.661 49.9604 104.376 49.9604Z" fill="#B7B7B7"/>
<path d="M33.2414 4.88633C33.2747 4.90145 33.3081 4.91655 33.3414 4.93163C33.6371 5.06804 33.8896 5.24591 34.1387 5.4704C34.1613 5.4899 34.1839 5.50941 34.2072 5.5295C34.476 5.77943 34.6869 6.08061 34.8614 6.41604C34.8765 6.44505 34.8916 6.47405 34.9072 6.50394C35.1941 7.1 35.3143 7.73486 35.3131 8.40482C35.3131 8.44546 35.3132 8.48611 35.3132 8.52675C35.3133 8.6383 35.3132 8.74984 35.3131 8.86139C35.313 8.9828 35.3131 9.1042 35.3131 9.2256C35.3132 9.43833 35.3131 9.65105 35.313 9.86378C35.3129 10.1801 35.3129 10.4964 35.3129 10.8127C35.3129 11.3448 35.3128 11.8769 35.3127 12.409C35.3125 12.9359 35.3124 13.4628 35.3124 13.9896C35.3124 14.0224 35.3124 14.0551 35.3124 14.0889C35.3124 14.2552 35.3124 14.4216 35.3124 14.5879C35.3123 15.7663 35.3122 16.9446 35.3119 18.1229C35.3117 19.2677 35.3115 20.4124 35.3114 21.5572C35.3114 21.5925 35.3114 21.6278 35.3114 21.6641C35.3114 22.0184 35.3114 22.3728 35.3113 22.7271C35.3113 23.449 35.3112 24.1708 35.3111 24.8926C35.3111 24.9258 35.3111 24.959 35.3111 24.9932C35.3109 26.7106 35.3106 28.4279 35.3103 30.1453C35.3103 30.1694 35.3103 30.1936 35.3103 30.2185C35.3102 30.6931 35.3101 31.1678 35.3101 31.6425C34.5123 31.6425 33.7145 31.6425 32.8925 31.6425C32.8923 31.3513 32.8921 31.0601 32.8919 30.7601C32.8917 30.5625 32.8916 30.3649 32.8915 30.1674C32.8914 30.1417 32.8914 30.116 32.8914 30.0896C32.8902 28.3903 32.8889 26.691 32.8875 24.9916C32.8874 24.9424 32.8874 24.9424 32.8874 24.8922C32.8868 24.1792 32.8862 23.4663 32.8855 22.7533C32.8852 22.4036 32.8849 22.054 32.8846 21.7044C32.8845 21.6522 32.8845 21.6522 32.8845 21.5989C32.8835 20.471 32.8827 19.3431 32.8819 18.2152C32.8811 17.0562 32.8802 15.8972 32.8791 14.7381C32.8789 14.5745 32.8787 14.4108 32.8786 14.2471C32.8786 14.2149 32.8785 14.1827 32.8785 14.1495C32.878 13.6308 32.8777 13.1121 32.8774 12.5934C32.8771 12.072 32.8767 11.5506 32.8761 11.0293C32.8757 10.7194 32.8755 10.4096 32.8754 10.0998C32.8754 9.89281 32.8752 9.68582 32.8748 9.47884C32.8746 9.36092 32.8745 9.243 32.8746 9.12508C32.8747 9.01765 32.8745 8.91023 32.8742 8.80281C32.8741 8.74627 32.8742 8.68973 32.8744 8.6332C32.8726 8.23084 32.8473 7.94062 32.5962 7.63895C32.3971 7.42616 32.1917 7.37367 31.9234 7.3783C31.6826 7.38889 31.477 7.49218 31.3069 7.68577C31.1947 7.82358 31.106 7.97081 31.0201 8.13002C31.0063 8.15528 30.9925 8.18053 30.9783 8.20655C30.8516 8.43899 30.7277 8.67328 30.6042 8.90781C30.5281 9.05231 30.4511 9.19621 30.3737 9.33989C30.3615 9.36256 30.3493 9.38523 30.3367 9.40859C30.2997 9.47725 30.2627 9.5459 30.2257 9.61454C30.1748 9.70897 30.1239 9.80342 30.073 9.89789C30.0606 9.92091 30.0483 9.94394 30.0355 9.96766C29.9454 10.1352 29.8564 10.3032 29.7683 10.472C29.6912 10.6192 29.6111 10.7643 29.5309 10.9093C29.4446 11.0654 29.3593 11.2222 29.2739 11.3789C29.2648 11.3957 29.2557 11.4124 29.2463 11.4296C29.111 11.6783 28.9773 11.9279 28.8451 12.1786C28.7208 12.4141 28.5949 12.6484 28.4686 12.8826C28.43 12.9543 28.3915 13.026 28.353 13.0978C28.3335 13.1341 28.3335 13.1341 28.3137 13.1712C28.2894 13.2165 28.2651 13.2618 28.2408 13.3071C28.1735 13.4324 28.1054 13.5569 28.0366 13.6811C27.9389 13.858 27.8434 14.0362 27.7487 14.215C27.7219 14.2656 27.695 14.3162 27.6682 14.3667C27.5853 14.5196 27.5558 14.5371 27.4796 14.6941C27.3877 14.6787 27.3801 14.6287 27.2832 14.5757C27.1988 14.5104 27.1136 14.4503 27.0246 14.3932C26.8956 14.3102 26.7683 14.2245 26.6414 14.1376C26.3507 13.9388 26.0585 13.7429 25.764 13.5511C25.6465 13.4743 25.5058 13.3883 25.3906 13.3071C25.4279 13.2044 25.4456 13.1575 25.5025 13.0476C25.5124 13.0283 25.5551 12.9379 25.5653 12.918C25.6677 12.7199 25.7777 12.5273 25.8879 12.3346C26.0623 12.0291 26.2293 11.7185 26.3932 11.4058C26.513 11.1776 26.6371 10.9523 26.7614 10.7271C26.7796 10.694 26.7978 10.6609 26.816 10.6279C26.8812 10.5094 26.9466 10.391 27.012 10.2727C27.0375 10.2266 27.0375 10.2266 27.0635 10.1795C27.0785 10.1524 27.0935 10.1254 27.1089 10.0975C27.1502 10.0221 27.191 9.94651 27.2316 9.87073C27.3062 9.73172 27.3825 9.59395 27.4592 9.45636C27.6929 9.03606 27.9237 8.61379 28.1506 8.18891C28.2083 8.08163 28.2673 7.97527 28.3261 7.86879C28.4136 7.71021 28.5002 7.55101 28.5868 7.39173C28.6143 7.3411 28.6418 7.2905 28.6693 7.2399C28.7503 7.09125 28.8311 6.94256 28.9114 6.79347C29.4871 5.72673 30.2362 5.00687 31.3369 4.70158C31.9585 4.54926 32.6557 4.60642 33.2414 4.88633Z" fill="white"/>
<ellipse cx="23.7119" cy="22.2599" rx="2.32522" ry="2.4044" fill="white"/>
<ellipse cx="15.6308" cy="13.5308" rx="3.12102" ry="3.34525" fill="white"/>
<path d="M4.62057 4.78294C4.63587 4.79107 4.65116 4.7992 4.66692 4.80757C5.52931 5.26967 6.01454 6.11357 6.46883 7.05349C6.52495 7.16877 6.58234 7.28313 6.6398 7.39749C6.78669 7.69008 6.92586 7.98659 7.06175 8.28641C7.14416 8.46758 7.2301 8.64317 7.32375 8.81663C7.36999 8.90523 7.41182 8.99599 7.45289 9.08798C7.65393 9.53788 7.87354 9.97617 8.09014 10.4159C8.18447 10.6076 8.27717 10.8003 8.36824 10.9942C8.47739 11.2264 8.5899 11.4562 8.7022 11.6863C8.73715 11.7579 8.77201 11.8296 8.80683 11.9013C8.90626 12.1061 9.00578 12.3108 9.10642 12.5147C9.27402 12.8544 9.43876 13.1956 9.60032 13.5393C9.71291 13.7782 9.82916 14.0143 9.94687 14.2497C10.0279 14.4118 10.1073 14.5748 10.1846 14.7394C10.4187 15.2438 10.4187 15.2438 10.6742 15.7332C10.7313 15.8361 10.7792 15.9406 10.825 16.0511C10.8974 16.2253 10.9766 16.3937 11.0587 16.5619C11.0704 16.5858 11.0821 16.6098 11.0942 16.6345C11.1514 16.7512 11.2095 16.8671 11.2688 16.9823C11.3503 17.1412 11.4271 17.3031 11.5039 17.4653C11.5332 17.5268 11.5624 17.5884 11.5917 17.65C11.6057 17.6793 11.6196 17.7086 11.6339 17.7387C11.7323 17.9451 11.8315 18.1507 11.9358 18.353C11.9822 18.4432 12.0262 18.5343 12.0687 18.6271C12.1468 18.796 12.229 18.9619 12.3114 19.1279C12.4522 19.4124 12.5873 19.6996 12.7177 19.9908C12.9743 20.5596 13.2953 21.2069 13.851 21.4077C13.8752 21.416 13.8752 21.416 13.8999 21.4246C13.9162 21.4305 13.9325 21.4364 13.9494 21.4424C14.1114 21.5001 14.2522 21.5217 14.4205 21.5219C14.4392 21.5222 14.458 21.5225 14.4773 21.5229C14.724 21.5236 14.959 21.4515 15.197 21.3811C15.2323 21.371 15.2323 21.371 15.2683 21.3606C15.557 21.2758 15.8299 21.157 16.1033 21.0207C16.1536 20.9956 16.204 20.971 16.2545 20.9464C16.4464 20.8516 16.6275 20.7461 16.8064 20.6209C16.8756 20.5737 16.9455 20.5319 17.0177 20.4916C17.2006 20.3861 17.3704 20.2567 17.5412 20.1268C17.5562 20.1155 17.5712 20.1041 17.5867 20.0925C18.0125 19.7694 18.4057 19.4041 18.7782 19.0006C18.8282 18.9471 18.8789 18.895 18.9302 18.8432C19.0484 18.722 19.1593 18.5927 19.2702 18.4625C19.3007 18.4272 19.3007 18.4272 19.3318 18.3911C19.4424 18.2615 19.544 18.13 19.6373 17.9826C19.6829 17.9127 19.7357 17.8533 19.7893 17.7919C19.9154 17.6334 20.0259 17.4626 20.1352 17.288C20.1719 17.2297 20.209 17.1717 20.2461 17.1137C20.5499 16.6368 20.8128 16.1386 21.0672 15.6237C21.0769 15.6043 21.0866 15.5848 21.0966 15.5648C21.4472 14.861 21.7257 14.1193 21.9681 13.3564C21.9914 13.2848 22.0159 13.2138 22.0405 13.1428C22.0737 13.046 22.1017 12.9507 22.1232 12.8492C22.1387 12.777 22.1545 12.7088 22.1782 12.6397C22.347 12.1396 22.4231 11.5906 22.5107 11.065C22.5194 11.014 22.5281 10.963 22.5369 10.912C22.6326 10.3496 22.6642 9.78472 22.6912 9.21306C22.7073 8.87768 22.7073 8.87768 22.7237 8.53552C23.489 8.53552 24.2543 8.53552 25.0428 8.53552C25.0428 9.41909 24.9734 10.2711 24.8433 11.141C24.8284 11.2413 24.814 11.3418 24.7999 11.4422C24.7943 11.4821 24.7886 11.522 24.7828 11.5619C24.769 11.6578 24.7561 11.7537 24.7446 11.8501C24.7039 12.1803 24.6277 12.493 24.5448 12.8118C24.5066 12.96 24.4701 13.1088 24.4334 13.2575C24.4079 13.3606 24.3823 13.4637 24.3565 13.5667C24.3507 13.5904 24.3449 13.6141 24.3389 13.6385C24.2991 13.798 24.2529 13.9534 24.2027 14.1088C24.1587 14.2468 24.1152 14.3837 24.0814 14.5257C24.0518 14.6487 24.008 14.7604 23.9616 14.8758C23.9292 14.9601 23.9016 15.0453 23.8744 15.1321C23.8206 15.2998 23.7556 15.4568 23.6856 15.6157C23.6593 15.6774 23.6347 15.7401 23.6117 15.8036C23.5744 15.9049 23.5319 16.0013 23.4869 16.098C23.4261 16.2299 23.3678 16.3624 23.3124 16.4976C23.1066 16.9843 22.8571 17.4476 22.6054 17.9031C22.5949 17.9221 22.5844 17.9411 22.5736 17.9607C22.4418 18.1987 22.3033 18.4286 22.1558 18.6536C22.1363 18.6833 22.1168 18.7131 22.0973 18.7428C22.0674 18.7886 22.0373 18.8344 22.0072 18.8801C21.9426 18.9784 21.8796 19.078 21.8171 19.1782C21.6235 19.4825 21.4029 19.7626 21.1855 20.0434C21.1684 20.0661 21.1514 20.0887 21.1338 20.112C20.9778 20.3164 20.8136 20.5111 20.6486 20.7053C20.6369 20.7192 20.6251 20.7331 20.613 20.7474C20.4768 20.9081 20.3383 21.0634 20.1916 21.2109C20.1551 21.2502 20.1186 21.2895 20.0822 21.329C19.9354 21.4842 19.7807 21.6263 19.6237 21.7668C19.6076 21.7813 19.5914 21.7958 19.5748 21.8108C18.899 22.416 18.1754 22.9206 17.413 23.3578C17.3551 23.3913 17.2973 23.4251 17.2398 23.4595C17.2252 23.4682 17.2107 23.4769 17.1957 23.4858C17.1557 23.5097 17.1158 23.5337 17.0759 23.5577C16.5455 23.8517 15.9365 24.0501 15.3641 24.1852C15.3296 24.1937 15.3296 24.1937 15.2944 24.2025C14.7078 24.3455 14.0765 24.3688 13.4947 24.1852C13.4649 24.1758 13.4352 24.1665 13.4045 24.1569C13.3311 24.1318 13.2591 24.1042 13.187 24.074C13.1596 24.0626 13.1596 24.0626 13.1317 24.0511C12.6316 23.8292 12.1847 23.5234 11.8112 23.0693C11.7669 23.0174 11.7207 22.9706 11.6725 22.9239C11.6491 22.8998 11.6257 22.8757 11.6015 22.8509C11.6015 22.8326 11.5731 22.8225 11.5613 22.7964C11.5376 22.7833 11.5547 22.777 11.5305 22.7675C11.4957 22.7279 11.4957 22.7279 11.4581 22.6754C11.4364 22.6454 11.4364 22.6454 11.4143 22.6147C11.398 22.5918 11.3817 22.5688 11.3649 22.5451C11.3364 22.506 11.3364 22.506 11.3073 22.466C11.1036 22.1837 10.9367 21.8898 10.7821 21.567C10.7656 21.5327 10.749 21.4983 10.7324 21.4639C10.6989 21.3944 10.6654 21.3249 10.632 21.2553C10.5879 21.1634 10.5436 21.0717 10.4993 20.9799C10.3751 20.7227 10.2518 20.4648 10.1298 20.206C10.0227 19.9791 9.91373 19.7534 9.80489 19.5275C9.75441 19.4228 9.7041 19.3179 9.65402 19.2129C9.54928 18.9935 9.44333 18.7748 9.33715 18.5563C9.32901 18.5395 9.32087 18.5228 9.31248 18.5055C9.19921 18.2725 9.08454 18.0406 8.96887 17.8092C8.85049 17.5723 8.73692 17.3328 8.6258 17.0911C8.54731 16.9208 8.46556 16.7534 8.38119 16.5871C8.29553 16.4176 8.21346 16.2459 8.13175 16.0737C8.01123 15.8198 7.88945 15.5667 7.76644 15.3145C7.57267 14.917 7.37975 14.5189 7.1899 14.1188C7.03737 13.7974 6.88264 13.4779 6.72429 13.1605C6.59995 12.9111 6.47921 12.6596 6.35958 12.4071C6.2093 12.09 6.05805 11.7739 5.9014 11.4611C5.77128 11.2011 5.64615 10.9382 5.52272 10.6737C5.35874 10.3225 5.18998 9.97462 5.02008 9.62728C5.00538 9.59722 4.99068 9.56717 4.97554 9.5362C4.96757 9.51991 4.9596 9.50362 4.95139 9.48684C4.8541 9.28783 4.75813 9.08816 4.66494 8.88645C4.5641 8.67011 4.4609 8.45545 4.35583 8.24191C4.34263 8.21483 4.32944 8.18774 4.31584 8.15984C4.04474 7.61127 4.04474 7.61127 3.6045 7.27058C3.5017 7.24168 3.3977 7.24047 3.29242 7.23949C3.25984 7.23903 3.25984 7.23903 3.2266 7.23857C2.99091 7.2443 2.80532 7.33479 2.63518 7.52582C2.38453 7.85143 2.31058 8.20889 2.31313 8.63849C2.31302 8.67903 2.31286 8.71957 2.31268 8.76011C2.31228 8.87113 2.31246 8.98213 2.31274 9.09314C2.31295 9.21406 2.3126 9.33497 2.31233 9.45589C2.31192 9.66767 2.31186 9.87945 2.31203 10.0912C2.31228 10.4061 2.31199 10.7211 2.31159 11.036C2.31094 11.5657 2.31072 12.0955 2.31075 12.6253C2.31078 13.1498 2.31062 13.6743 2.3102 14.1988C2.31017 14.2314 2.31014 14.264 2.31012 14.2976C2.30998 14.4632 2.30984 14.6289 2.3097 14.7945C2.30872 15.9677 2.30818 17.1408 2.30789 18.314C2.30761 19.4536 2.30714 20.5933 2.30639 21.733C2.30636 21.7857 2.30636 21.7857 2.30632 21.8394C2.30609 22.1922 2.30586 22.545 2.30562 22.8979C2.30514 23.6166 2.30468 24.3353 2.30424 25.054C2.30421 25.1036 2.30421 25.1036 2.30418 25.1541C2.30313 26.8638 2.30249 28.5736 2.30193 30.2833C2.30192 30.3073 2.30191 30.3314 2.30191 30.3561C2.30175 30.8287 2.30162 31.3012 2.30148 31.7737C1.54399 31.7737 0.786496 31.7737 0.00605032 31.7737C0.00566673 30.6986 0.00566673 30.6986 0.00552458 30.2815C0.00551573 30.2555 0.00550698 30.2296 0.00549786 30.2028C0.00491275 28.4839 0.00438388 26.765 0.00404629 25.046C0.00403975 25.0129 0.00403316 24.9797 0.00402643 24.9455C0.00388478 24.2243 0.00375382 23.5032 0.00363356 22.782C0.00357453 22.4284 0.00351308 22.0747 0.00345049 21.7211C0.0034443 21.6859 0.00343809 21.6507 0.00343172 21.6144C0.00322999 20.4735 0.00287463 19.3326 0.00243945 18.1916C0.00199309 17.0193 0.00170141 15.8469 0.00160534 14.6746C0.0015917 14.509 0.00157633 14.3435 0.00155984 14.178C0.00155665 14.1454 0.00155338 14.1128 0.00155009 14.0792C0.00149413 13.5545 0.00127461 13.0298 0.000994014 12.5051C0.000715495 11.9777 0.000608983 11.4504 0.000678424 10.923C0.000714454 10.6096 0.00061827 10.2962 0.000333224 9.98274C0.000155822 9.7734 0.000150039 9.56406 0.000284117 9.35472C0.000355603 9.23542 0.000352356 9.11613 0.000139682 8.99684C-5.25192e-05 8.88821 -2.44702e-05 8.77957 0.000175068 8.67094C0.000208729 8.63199 0.0001638 8.59304 2.84667e-05 8.55409C-0.000734612 8.31949 0.013762 8.09841 0.0533788 7.86839C0.057161 7.84566 0.0609432 7.82293 0.06484 7.79951C0.0892619 7.65482 0.118139 7.5113 0.148036 7.36805C0.151895 7.34941 0.155753 7.33077 0.159729 7.31157C0.327623 6.53077 0.766758 5.79651 1.30758 5.31108C1.32772 5.29255 1.34785 5.27403 1.36859 5.25494C2.29014 4.43335 3.56143 4.20779 4.62057 4.78294Z" fill="white"/>
</svg>
