<svg width="38" height="27" viewBox="0 0 38 27" fill="none" xmlns="http://www.w3.org/2000/svg">
<path d="M1 3.75C1 3.02065 1.28973 2.32118 1.80546 1.80546C2.32118 1.28973 3.02065 1 3.75 1H34C34.7293 1 35.4288 1.28973 35.9445 1.80546C36.4603 2.32118 36.75 3.02065 36.75 3.75V23C36.75 23.7293 36.4603 24.4288 35.9445 24.9445C35.4288 25.4603 34.7293 25.75 34 25.75H3.75C3.02065 25.75 2.32118 25.4603 1.80546 24.9445C1.28973 24.4288 1 23.7293 1 23V3.75ZM36.75 3.75L20.4398 15.0415C19.98 15.3596 19.4341 15.5301 18.875 15.5301C18.3159 15.5301 17.77 15.3596 17.3103 15.0415L1 3.75" stroke="url(#paint0_linear_1465_8714)" stroke-width="2" stroke-linecap="round" stroke-linejoin="round"/>
<defs>
<linearGradient id="paint0_linear_1465_8714" x1="18.875" y1="1" x2="18.875" y2="25.75" gradientUnits="userSpaceOnUse">
<stop stop-color="#1B4477"/>
<stop offset="1" stop-color="#327EDD"/>
</linearGradient>
</defs>
</svg>
