<svg width="34" height="34" viewBox="0 0 34 34" fill="none" xmlns="http://www.w3.org/2000/svg">
<path d="M7.11084 1.65615C8.96855 0.852072 11.1289 1.26409 12.5603 2.69545L13.149 3.28416C15.0357 5.17094 15.4931 8.05803 14.2819 10.4356L13.168 12.6223C12.5079 13.9179 12.7572 15.4912 13.7853 16.5193L16.7412 19.4752C17.7693 20.5033 19.3426 20.7526 20.6382 20.0925L22.8249 18.9786C25.2025 17.7674 28.0896 18.2247 29.9763 20.1115L30.565 20.7002C31.9964 22.1316 32.4084 24.292 31.6043 26.1497C29.4457 31.1369 23.977 33.6723 19.3753 30.7814C16.609 29.0435 13.3779 26.6109 10.0138 23.2467C6.64958 19.8826 4.217 16.6515 2.47908 13.8852C-0.411839 9.28352 2.12359 3.81481 7.11084 1.65615Z" stroke="url(#paint0_linear_1470_9266)" stroke-width="2.5" stroke-linecap="round" stroke-linejoin="round"/>
<defs>
<linearGradient id="paint0_linear_1470_9266" x1="16.6355" y1="1.25" x2="16.6355" y2="32" gradientUnits="userSpaceOnUse">
<stop stop-color="#1B4477"/>
<stop offset="1" stop-color="#327EDD"/>
</linearGradient>
</defs>
</svg>
