<svg width="33" height="37" viewBox="0 0 33 37" fill="none" xmlns="http://www.w3.org/2000/svg">
<path d="M31.0667 14.9333C31.0667 15.3367 30.7367 15.6685 30.3333 15.6483C28.1784 15.5403 26.0738 14.9581 24.1697 13.9433C23.6545 13.6683 23 14.0258 23 14.6107V24.8333C22.9999 26.9777 22.373 29.0752 21.1965 30.8679C20.02 32.6607 18.3452 34.0705 16.378 34.9239C14.4108 35.7774 12.2371 36.0372 10.1242 35.6716C8.01126 35.3059 6.05129 34.3306 4.48534 32.8657C2.91939 31.4008 1.81574 29.5102 1.31014 27.4263C0.804544 25.3425 0.919042 23.1562 1.63956 21.1366C2.36007 19.1169 3.65518 17.3519 5.36558 16.0586C7.07599 14.7653 9.12711 14.0001 11.2667 13.8572C11.3623 13.8521 11.4579 13.8668 11.5476 13.9004C11.6373 13.9339 11.7191 13.9856 11.7879 14.0522C11.8567 14.1188 11.9111 14.1988 11.9475 14.2873C11.984 14.3758 12.0019 14.4709 12 14.5667V19.7C12 20.1033 11.67 20.4278 11.2703 20.4938C10.4429 20.633 9.67255 21.0058 9.05002 21.5683C8.4275 22.1308 7.9788 22.8596 7.7568 23.6687C7.53481 24.4779 7.54879 25.3336 7.79709 26.135C8.0454 26.9365 8.51767 27.6502 9.15823 28.1921C9.79879 28.734 10.5809 29.0815 11.4125 29.1935C12.244 29.3055 13.0902 29.1775 13.8513 28.8245C14.6125 28.4714 15.2568 27.9082 15.7084 27.201C16.16 26.4939 16.3999 25.6724 16.4 24.8333V1.73333C16.4 1.53884 16.4773 1.35231 16.6148 1.21479C16.7523 1.07726 16.9388 1 17.1333 1H22.2667C22.4627 1.005 22.6499 1.08291 22.7916 1.21851C22.9333 1.35412 23.0194 1.53767 23.033 1.73333C23.2045 3.61199 24.0289 5.37115 25.363 6.70491C26.6971 8.03868 28.4565 8.86269 30.3352 9.03367C30.7385 9.07033 31.0685 9.39483 31.0685 9.8L31.0667 14.9333Z" stroke="url(#paint0_linear_1465_8732)" stroke-width="2" stroke-linecap="round" stroke-linejoin="round"/>
<defs>
<linearGradient id="paint0_linear_1465_8732" x1="16.0343" y1="1" x2="16.0343" y2="35.8327" gradientUnits="userSpaceOnUse">
<stop stop-color="#1B4477"/>
<stop offset="1" stop-color="#327EDD"/>
</linearGradient>
</defs>
</svg>
