<svg width="34" height="34" viewBox="0 0 34 34" fill="none" xmlns="http://www.w3.org/2000/svg">
<path d="M28.3333 4.83344C26.806 3.29473 24.9881 2.07505 22.9854 1.24527C20.9825 0.415503 18.8346 -0.00774683 16.6667 0.000107338C13.7685 0.00294067 10.9218 0.76719 8.4119 2.21632C5.90196 3.66544 3.81683 5.74859 2.36529 8.25711C0.913751 10.7656 0.146792 13.6116 0.141167 16.5097C0.135562 19.408 0.891521 22.2568 2.33333 24.771L0 33.3335L8.75 31.0418C11.1661 32.386 13.881 33.1024 16.6458 33.1251C21.041 33.1253 25.2583 31.3893 28.3796 28.2951C31.501 25.2012 33.274 20.9993 33.3125 16.6043C33.2979 14.4112 32.8504 12.2425 31.996 10.2226C31.1417 8.20273 29.8969 6.37136 28.3333 4.83344ZM16.6667 30.271C14.2035 30.2726 11.7854 29.6105 9.66667 28.3543L9.16667 28.0418L3.97917 29.4168L5.35417 24.3543L5.02083 23.8335C3.24844 20.9724 2.58696 17.5605 3.16171 14.2443C3.73646 10.9282 5.50752 7.93794 8.13938 5.84017C10.7713 3.74238 14.081 2.68273 17.4419 2.86196C20.8027 3.04117 23.9813 4.44682 26.375 6.81261C28.9917 9.37134 30.4896 12.8616 30.5417 16.521C30.5088 20.1791 29.0323 23.6762 26.4338 26.2514C23.8354 28.8264 20.325 30.2712 16.6667 30.271ZM24.1875 19.9793C23.7708 19.771 21.75 18.771 21.375 18.646C21 18.521 20.7083 18.4376 20.4375 18.8543C20.03 19.4128 19.5917 19.9483 19.125 20.4585C18.8958 20.7501 18.6458 20.771 18.2292 20.4585C15.8535 19.5197 13.8744 17.7905 12.625 15.5626C12.1875 14.8335 13.0417 14.8751 13.8333 13.3126C13.8919 13.1999 13.9223 13.0749 13.9223 12.948C13.9223 12.8212 13.8919 12.6962 13.8333 12.5835C13.8333 12.3751 12.8958 10.3334 12.5625 9.52094C12.2292 8.70844 11.8958 8.83344 11.625 8.81261H10.8125C10.602 8.81584 10.3946 8.86398 10.2042 8.9538C10.0138 9.04361 9.84471 9.17305 9.70833 9.33344C9.24088 9.78798 8.87627 10.3374 8.63908 10.9448C8.4019 11.5521 8.29765 12.2032 8.33333 12.8543C8.46396 14.4128 9.0509 15.8983 10.0208 17.1251C11.7963 19.783 14.2294 21.9362 17.0833 23.3751C18.5802 24.2489 20.3198 24.6143 22.0417 24.4168C22.615 24.303 23.1581 24.0699 23.6354 23.7324C24.1129 23.3951 24.514 22.961 24.8125 22.4585C25.0892 21.8451 25.1763 21.1633 25.0625 20.5001C24.875 20.2918 24.6042 20.1876 24.1875 19.9793Z" fill="url(#paint0_linear_1465_8721)"/>
<defs>
<linearGradient id="paint0_linear_1465_8721" x1="16.6563" y1="0" x2="16.6563" y2="33.3335" gradientUnits="userSpaceOnUse">
<stop stop-color="#1B4477"/>
<stop offset="1" stop-color="#327EDD"/>
</linearGradient>
</defs>
</svg>
